<svg id="Layer_1" data-name="Layer 1" xmlns="http://www.w3.org/2000/svg" viewBox="0 0 170 169"><path d="M261.86,442H226.1q0-82.65-.1-165.31c0-3.25.85-3.64,3.8-3.64q81.21.17,162.42-.05c3.84,0,3.78,1.38,3.78,4.22Q395.91,359.61,396,442h-6.7c1.11-1.59-.4-1.76-1.24-2.13-4.71-2.12-9.35-4.44-14.21-6.11-1.74-.59-2.11-1.4-2.71-2.75a35.74,35.74,0,0,0-13.76-16.32c-2.75-1.73-4.2-1.85-6.71.08-3.14,2.42-5.74,6-10.36,5.94,0-.72,0-1.44,0-2.15L339,408.45q0-7.26-.1-14.53c1.9-3.13-1.32-8,3.39-10.17,3-.51,7.06-.68,8.08-3.46,1.93-5.29,5.55-9.88,6.35-15.6,1.57-3.28,3.85-6.43,1.79-10.34-5.9-3.29-4.64-8.54-4.55-14,.12-8.2,2.09-16.52-.59-24.66-2-5.12-4.77-9.41-10.85-10.15.62-2.52-1.41-3.83-2.53-5.56-.18-2.17-2.76-1.77-3.54-3.3-7.62-7.58-17-11.14-27.53-11.81-16.42-4.06-29.64,2.25-41.54,12.84-1.7,2.07-5.31,2.17-5.75,5.55-3,.58-3.88,2.93-4.44,5.47-1.32,6-2.64,11.92-1.95,18.1l0,1.12v2.23q.74,7.84,1.46,15.7c-7.94,6.89-8.46,10-2.67,15.77.63,3.23,0,6.92,3.35,9.15-1.84,7.35.89,11.35,6.7,9.81,2,6.28,1.31,13.3,5.29,19a8.14,8.14,0,0,0,2.53,4.37l1.27,4.49c-.76,4.19.61,8.19,1.15,12.26L273,423.24C266.31,427.74,261.13,433.12,261.86,442Z" transform="translate(-226 -273)" style="fill:#7C9082"/><path d="M340.26,420.71c4.62.08,7.22-3.52,10.36-5.94,2.51-1.93,4-1.81,6.71-.08A35.74,35.74,0,0,1,371.09,431c.6,1.35,1,2.16,2.71,2.75,4.86,1.67,9.5,4,14.21,6.11.84.37,2.35.54,1.24,2.13H352.37c-.47-1.18-.62-2.68-1.45-3.48-4.7-4.56-9.55-9-14.36-13.42C337.26,423.19,340.62,423.51,340.26,420.71Z" transform="translate(-226 -273)" style="fill:#222026"/><path d="M306.55,442H290.91a3.42,3.42,0,0,0-1.37-2.84c-6.38-4.45-7.15-11.59-8.77-18.32l.12-.11c2.18,1.29,4,3.25,6.72,3.53l2.09,1,2.25,1.17c.09,1.58,0,3.26,2.36,3.2l0,.05c-.48,2.53,2.11,5.15-.48,7.83-.47.48.37,5.19,3.55,2.77,4.1-3.12,7.61-7,11.38-10.56l5.82-5.15c3.6-3.61,7.38-7.09,9.75-11.73,3.27-1,4.84-3.49,5.69-6.6l2-.14,1.32.15-.12,3.23c-2.79,2.59-6.14,4.77-6.59,9.07l-.05,2.19a46.89,46.89,0,0,1-4.63,2.82c-5.51,2.61-7.24,6.55-5.47,12.83-1.55,1-3.66,1.29-4.38,3.37C310.21,440.3,307.25,438.32,306.55,442Z" transform="translate(-226 -273)" style="fill:#986b56"/><path d="M306.55,442c.7-3.68,3.66-1.7,5.61-2.26,3.28,0,6.57,0,9.85,0,2,0,3.75-.38,4.39-2.51,1.21-4.06,4.45-6.66,6.85-9.86l3.31-2.3c4.81,4.46,9.66,8.86,14.36,13.42.83.8,1,2.3,1.45,3.48Z" transform="translate(-226 -273)" style="fill:#1d130c"/><path d="M280.77,420.84c1.62,6.73,2.39,13.87,8.77,18.32a3.42,3.42,0,0,1,1.37,2.84H276.38q-1.69-9.37-3.41-18.76l1.27-2.51C276.44,418.91,278.6,420.32,280.77,420.84Z" transform="translate(-226 -273)" style="fill:#a6755e"/><path d="M273,423.24q1.71,9.38,3.41,18.76H261.86C261.13,433.12,266.31,427.74,273,423.24Z" transform="translate(-226 -273)" style="fill:#1d130c"/><path d="M353.33,315.67c2.68,8.14.71,16.46.59,24.66-.09,5.48-1.35,10.73,4.55,14l-1.75,3.11c-1.89-1.32-3.85-2.07-6.07-.78L349,355.05c2.63-4.19-.25-8.38,0-12.58.06-1.14.46-3-1.6-2.84a2.92,2.92,0,0,0-2.79,2.33c-.31,1.22,1,4-2.29,2.74a41,41,0,0,0-.93-8.24c-.71-3.79-2.57-2.79-4.74-1.89-.79-2.16-1-4.14,1.55-5.34,3.18-1.2,1.25-5.45,4.09-6.85,2.57,2.1,6.23-.43,8.77,2.9C351.5,321.43,350.54,318.05,353.33,315.67Zm-6.61,19.54-.49-.85c-.16.28-.43.56-.43.85s.27.56.43.84Z" transform="translate(-226 -273)" style="fill:#4a2b20"/><path d="M332.08,406.08l-2,.14c-4.21.29-8.45.5-11.23,4.43a6.19,6.19,0,0,0-4.46,2.25c-10.41,5.08-21.13,7.16-32.46,3.41l0,0c-.37-1.17-1.26-1.28-2.28-1.16l.05,0c-.3-1-.68-.88-1.11-.07l-5.53-6.68c-.43-1.5-.85-3-1.27-4.49,2.19-1.48-.35-3,0-4.5l0,0c3.57-.6,3.8,4.24,7,4.3,1.25,1.78,2.41,3.64,3.77,5.34,4.32,5.44,9.81,7.12,16.12,5.05l2.15-.29c2.49,1,3.59-1.84,5.66-2,1.93,1.74,4.5,1.5,4.93-.65.84-4.2,4.68-6,6.25-9.46,1.2-.27,3.1-3.52,3.23.76l1.23-.76h1.14l1,0c2.64,2.5,5.23-1.16,7.85-.08l.06.06Z" transform="translate(-226 -273)" style="fill:#614233"/><path d="M255.16,330.16v-2.23c.73-.33.82-.7,0-1.12-.69-6.18.63-12.14,1.95-18.1.56-2.54,1.44-4.89,4.44-5.47,4.85,2.57,7.46-2.84,11.48-3.2a1.9,1.9,0,0,0,2.15,2.12c-.17,3.53-6.13,1.42-5.53,5.69,0,.68,0,1.36-.07,2-2.78,1-2.76,3.52-3.27,5.77l-.49,1.88c-1.78.83-2.34,2-1,3.68l.08,3.37c-1.21,1.65-1.47,3.18.55,4.43l-.7,3.41C261.28,332.84,258.84,328.9,255.16,330.16Zm11.14-23.51c-1.46,0-2.92,0-4.38.07s-3.15.58-3,2.42c.13,1.3.09,3.22,1.72,3.69s1.91-1.3,2.64-2.27c1-1.31,2-2.57,3-3.86l.23-.52Z" transform="translate(-226 -273)" style="fill:#371f17"/><path d="M308.88,284.85c10.57.67,19.91,4.23,27.53,11.81-2.56,2-5.05-.83-7.6-.11-1.06.15-2.39.28-2.51,1.52-.18,1.71,1.38,1.71,2.57,1.93,1.64,3.13,4.72,3.68,7.74,4.35l.06,1.14a3.42,3.42,0,0,0,.05,1.06l-2.23.12c-3.8-2.93-8.17-2.39-12.51-2l-4.25-.23c-.6-2.34-.54-4.09,2.7-3.09,1.19.37,3.17,1.63,1.78-1.38.45-2.85-3.22-2.91-3.76-4.82,1.35-2.06,4.27,2.41,4.67-1.72l1.29-.14c.4.27.8.55,1.22.8,0,0,.18-.26.28-.4l-1.44-.46c-.76-1.11-1.51-1.17-2.25,0-6.22-2.47-12.52-3.52-19-1.09v-4.48C305.55,287.66,308.09,288,308.88,284.85Z" transform="translate(-226 -273)" style="fill:#4a2b20"/><path d="M350.65,356.68c2.22-1.29,4.18-.54,6.07.78,1.45,2.42-4.61,4.79,0,7.23-.8,5.72-4.42,10.31-6.35,15.6-1,2.78-5.06,2.95-8.08,3.46-2.3-2.05-1.93-4.15-1.11-7,1.25-4.44,3.25-9.05,1.34-13.89l0-.09a.55.55,0,0,0,.33-.86c.45,1,1.33,1.08,2.27,1v0c1.48,2.45,4,4.9,6.36,3.43s1.39-4.57-.86-6.66C349.63,358.84,349.84,357.66,350.65,356.68Z" transform="translate(-226 -273)" style="fill:#e2a382"/><path d="M342.48,362.83c1.91,4.84-.09,9.45-1.34,13.89-.82,2.88-1.19,5,1.11,7-4.71,2.2-1.49,7-3.39,10.17L336.73,395c-2.86-.91-5.35.55-7.38,1.94-3.12,2.14-3.29.09-3.83-2,5-2.92,5.58-6,2.24-11.19h0c1.44.62,3.08,1.88,3.38-1.08,2.73-2.38,2.17-6,3.34-9l1.09,0c3-.12,3.51-2,3.29-4.47C339.49,366.79,340,364.27,342.48,362.83Z" transform="translate(-226 -273)" style="fill:#a6755e"/><path d="M308.88,284.85c-.79,3.17-3.33,2.81-5.68,2.82-1.56-1.69-3.09-1.06-4.86-.2-3.53,1.71-7.18,3.17-10.77,4.73-1.28-1.67-2.72-.84-2.69.52.05,2.49-1.67,3.53-2.94,5l-3.26,1.13-1.17-1.13c-3.37-3-6.78.37-10.17-.06C279.24,287.1,292.46,280.79,308.88,284.85Z" transform="translate(-226 -273)" style="fill:#371f17"/><path d="M353.33,315.67c-2.79,2.38-1.83,5.76-2.27,9.61-2.54-3.33-6.2-.8-8.77-2.9,2.72-2.13,3.23-4.06.87-7.25-2-2.64-5-5.64-2.75-9.76l2.07.15C348.56,306.26,351.33,310.55,353.33,315.67Z" transform="translate(-226 -273)" style="fill:#614233"/><path d="M255.16,330.16c3.68-1.26,6.12,2.68,9.6,2.26a3.44,3.44,0,0,1-.49,3.4c-.81.22-1,.55-.19,1.05,0,7.26-3.17,14-3.39,21.25a3.13,3.13,0,0,1-1-.09l-2.37-5.47c-.19-2.24,1.7-4.71-.74-6.7Q255.89,338,255.16,330.16Z" transform="translate(-226 -273)" style="fill:#2b1810"/><path d="M269.29,399.61c-4-5.72-3.32-12.74-5.29-19l.18-1.17c3,1.2,3.4,4.18,4.45,6.71.63,2.92,1.32,5.78,6.23,5.37-3.92-3.19-.19-5.15.39-7.65,3.15-.35,4,1.77,4.53,4.24-3.38,2.51,2.15,1.8,1.24,3.42-2.33.73-6.54-.43-4.58,4.58-2.33,0-4.88-.26-4.55,3.36l0,0Z" transform="translate(-226 -273)" style="fill:#8d6048"/><path d="M336.56,425.1l-3.31,2.3a16.83,16.83,0,0,1-6-3.22c-.09-.1-.35-.06-.53-.09,0-.72,0-1.45,0-2.17,3.27-.47,5.17-2.29,5.52-5.64h1.1c2.76-.65,4.09,3,6.86,2.29,0,.71,0,1.43,0,2.15C340.62,423.51,337.26,423.19,336.56,425.1Z" transform="translate(-226 -273)" style="fill:#e2a382"/><path d="M340.22,418.56c-2.77.68-4.1-2.94-6.85-2.29a11.31,11.31,0,0,1-.09-6.81l.12-3.23a7.63,7.63,0,0,0,2.24-4.48c1.65-.75,2.25-.23,2.26,1.59s-.66,3.7,1.06,5.11Z" transform="translate(-226 -273)" style="fill:#d49475"/><path d="M256.62,345.86c2.44,2,.55,4.46.74,6.7-2.49,2.51-1.73,6.25-3.41,9.07C248.16,355.82,248.68,352.75,256.62,345.86Z" transform="translate(-226 -273)" style="fill:#7b4e3b"/><path d="M264.18,379.42l-.18,1.17c-5.81,1.54-8.54-2.46-6.7-9.81l.09-2.59,3.35.19a4.2,4.2,0,0,0-.06.87C260.3,373.17,263.87,375.73,264.18,379.42Z" transform="translate(-226 -273)" style="fill:#c3876a"/><path d="M328.81,296.55c2.55-.72,5,2.07,7.6.11.78,1.53,3.36,1.13,3.54,3.3-2.14.13-2.11,1.71-2.14,3.24l-1.2,1.15c-3-.67-6.1-1.22-7.74-4.35Z" transform="translate(-226 -273)" style="fill:#2b1810"/><path d="M273.09,408.47l5.53,6.68,1.11.07-.05,0c.39,1.11,1,1.77,2.28,1.16l0,0c-.11.75-.21,1.5-.32,2.25l-.7,2.17-.12.11c-2.17-.52-4.33-1.93-6.53-.11C273.7,416.66,272.33,412.66,273.09,408.47Z" transform="translate(-226 -273)" style="fill:#986b56"/><path d="M267.34,297.69c3.39.43,6.8-3,10.17.06a2.69,2.69,0,0,0-1.32,2.21l-.81,0-2.31.11c-4,.36-6.63,5.77-11.48,3.2C262,299.86,265.64,299.76,267.34,297.69Z" transform="translate(-226 -273)" style="fill:#1d130c"/><path d="M257.39,368.19l-.09,2.59c-3.36-2.23-2.72-5.92-3.35-9.15,1.68-2.82.92-6.56,3.41-9.07l2.37,5.47C256.7,360.9,257.51,364.65,257.39,368.19Z" transform="translate(-226 -273)" style="fill:#a6755e"/><path d="M339,408.45c-1.72-1.41-1-3.37-1.06-5.11s-.61-2.34-2.26-1.59c.36-2.24.73-4.48,1.09-6.71l2.13-1.12Q338.91,401.18,339,408.45Z" transform="translate(-226 -273)" style="fill:#c3876a"/><path d="M356.68,364.69c-4.57-2.44,1.49-4.81,0-7.23l1.75-3.11C360.53,358.26,358.25,361.41,356.68,364.69Z" transform="translate(-226 -273)" style="fill:#a6755e"/><path d="M337.81,303.2c0-1.53,0-3.11,2.14-3.24,1.12,1.73,3.15,3,2.53,5.56l-2.07-.15-.24-.09C340.12,303.75,339.08,303.34,337.81,303.2Z" transform="translate(-226 -273)" style="fill:#371f17"/><path d="M269.29,399.61l2.57-.13c-.39,1.5,2.15,3,0,4.5A8.14,8.14,0,0,1,269.29,399.61Z" transform="translate(-226 -273)" style="fill:#7b4e3b"/><path d="M255.2,326.81c.77.42.68.79,0,1.12Z" transform="translate(-226 -273)" style="fill:#2b1810"/><path d="M281.59,418.56c.11-.75.21-1.5.32-2.25,11.33,3.75,22,1.67,32.46-3.41,2.58,3.4,4.16,1.48,5.61-1.06,1.79-1.14,3.37-1.35,4.39,1-2.37,4.64-6.15,8.12-9.76,11.73-1.73-.76-3.28-.11-4.72.76-5.34,3.23-10.4,2.69-15.47-.75-1.3-.88-3.12-1-4.7-1.44l-2-1C285.8,420.73,284,419.14,281.59,418.56Z" transform="translate(-226 -273)" style="fill:#1d130c"/><path d="M336.73,395c-.36,2.23-.73,4.47-1.09,6.71a7.63,7.63,0,0,1-2.24,4.48l-1.32-.15.21-4.31.45-.49-.51.43c-2.62-1.08-5.21,2.58-7.85.08-1-3.17-3.34-4.94-6.39-4.19-2.39.58.14,2.73-.25,4.15-1.57,3.45-5.41,5.26-6.25,9.46-.43,2.15-3,2.39-4.93.65a2.69,2.69,0,0,1,.11-3.29c3.65-.79,5-3.11,4.48-6.71,2.68-2.53,4.54-5.35,3.12-9.27,0-2.36,4.25-1.87,3.34-4.89a1.44,1.44,0,0,1,.05-.62,2.33,2.33,0,0,1,2.36,2.37h0c-2,2.31-3.66,4.47,1.45,4.48,1.44,0,3-.34,4.08,1.08.54,2.06.71,4.11,3.83,2C331.38,395.59,333.87,394.13,336.73,395Z" transform="translate(-226 -273)" style="fill:#8d6048"/><path d="M326.7,424.09c.18,0,.44,0,.53.09a16.83,16.83,0,0,0,6,3.22c-2.4,3.2-5.64,5.8-6.85,9.86-.64,2.13-2.42,2.53-4.39,2.51-3.28,0-6.57,0-9.85,0,.72-2.08,2.83-2.36,4.38-3.37,2-1.67,5.9-4.46,5.67-4.85C319,425.92,325.17,426.43,326.7,424.09Z" transform="translate(-226 -273)" style="fill:#d49475"/><path d="M289.71,423.12c1.59.46,3.41.56,4.71,1.44,5.07,3.44,10.13,4,15.47.75,1.44-.87,3-1.52,4.72-.76l-5.81,5.15c-4.82,1.68-9.65,4.13-14.45,0l0-.05a3.21,3.21,0,0,0-2.36-3.2l-2.25-1.17C289.71,424.54,289.71,423.83,289.71,423.12Z" transform="translate(-226 -273)" style="fill:#614233"/><path d="M294.35,429.66c4.8,4.17,9.63,1.72,14.45,0-3.77,3.56-7.28,7.44-11.38,10.56-3.18,2.42-4-2.29-3.55-2.77C296.46,434.81,293.87,432.19,294.35,429.66Z" transform="translate(-226 -273)" style="fill:#7b4e3b"/><path d="M326.7,424.09c-1.53,2.34-7.73,1.83-4.49,7.43.23.39-3.68,3.18-5.67,4.85-1.77-6.28,0-10.22,5.47-12.83a46.89,46.89,0,0,0,4.63-2.82c0,.4.07.8.1,1.2Z" transform="translate(-226 -273)" style="fill:#c3876a"/><path d="M324.37,412.82c-1-2.33-2.6-2.12-4.39-1l-1.15-1.19c2.78-3.93,7-4.14,11.23-4.43C329.21,409.33,327.64,411.8,324.37,412.82Z" transform="translate(-226 -273)" style="fill:#371f17"/><path d="M333.28,409.46a11.31,11.31,0,0,0,.09,6.81h-1.11c-2.46-.76-3.45,2.15-5.57,2.25C327.14,414.23,330.49,412.05,333.28,409.46Z" transform="translate(-226 -273)" style="fill:#c3876a"/><path d="M281.59,418.56c2.4.58,4.21,2.17,6.11,3.59l-.09,2.11c-2.71-.28-4.54-2.24-6.72-3.53Z" transform="translate(-226 -273)" style="fill:#614233"/><path d="M326.69,418.53c2.12-.1,3.11-3,5.57-2.25-.35,3.35-2.25,5.17-5.52,5.64,0-.4-.06-.8-.1-1.2C326.66,420,326.68,419.26,326.69,418.53Z" transform="translate(-226 -273)" style="fill:#d49475"/><path d="M287.61,424.26l.09-2.11,2,1c0,.71,0,1.42,0,2.12Z" transform="translate(-226 -273)" style="fill:#8d6048"/><path d="M292,426.41a3.21,3.21,0,0,1,2.36,3.2C292,429.67,292,428,292,426.41Z" transform="translate(-226 -273)" style="fill:#7b4e3b"/><path d="M342.78,361.88a.54.54,0,0,1-.34.85q-.58-5.12-1.15-10.22c2-2.39.57-5.22,1-7.8h0c3.3,1.25,2-1.52,2.29-2.74a2.92,2.92,0,0,1,2.79-2.33c2.06-.11,1.66,1.7,1.6,2.84-.24,4.2,2.64,8.39,0,12.58-2,1.84-2.81,4.28-3.41,6.83a.87.87,0,0,0-.86-.27Z" transform="translate(-226 -273)" style="fill:#2b1810"/><path d="M340.41,305.37c-2.29,4.12.8,7.12,2.75,9.76,2.36,3.19,1.85,5.12-.87,7.25-2.84,1.4-.91,5.65-4.09,6.85-1.21-3.38,3.3-7.3-1-10.39l-.36-4.34c1-.84.9-1.57-.19-2.23l-.41-1.93c.16-1.27.31-2.53.47-3.8a3.34,3.34,0,0,1-.05-1.05l3.5-.21Z" transform="translate(-226 -273)" style="fill:#7b4e3b"/><path d="M345.6,361.88c.6-2.55,1.41-5,3.41-6.83l1.64,1.63c-.81,1-1,2.16-.1,3,2.25,2.09,3.14,5.23.86,6.66s-4.88-1-6.36-3.43C345.23,362.57,345.41,362.22,345.6,361.88Z" transform="translate(-226 -273)" style="fill:#7b4e3b"/><path d="M337.21,318.84c4.29,3.09-.22,7,1,10.39-2.51,1.2-2.34,3.18-1.55,5.34a1.1,1.1,0,0,1-.78,0c-2.49.32-2.69-1.85-3.58-3.28q1.71-3.89,3.43-7.77C337.28,322.3,336.4,320.3,337.21,318.84Z" transform="translate(-226 -273)" style="fill:#a6755e"/><path d="M336.65,334.57c2.17-.9,4-1.9,4.74,1.89a41,41,0,0,1,.93,8.24h0c-2.12-1.53-2.42-4.74-5.2-5.67l-.31-.19a2.56,2.56,0,0,0-.23-1.06l-.71-3.21A1.13,1.13,0,0,0,336.65,334.57Z" transform="translate(-226 -273)" style="fill:#2b1810"/><path d="M346.72,335.21l-.49.84c-.16-.28-.43-.56-.43-.84s.27-.57.43-.85Z" transform="translate(-226 -273)" style="fill:#2b1810"/><path d="M276.44,396.09c-2-5,2.25-3.85,4.58-4.58l3.16.47c.83,2.89,4.11,3.16,5.65,5.3-.26,2.26,2.52,3.38,2.13,5.7l-3.29,0c.06-1.53.07-3.2-1.7-3.7-3.05-.85-5.27-2.91-7.85-4.81,1.53,4.89,3,9.69,6.16,13.69,2,2.56,4.67,3.5,7.76,1.65l1.42-.16h.67l1.36,1.12c.79,1.09,2.46,1.58,2.26,3.34-6.31,2.07-11.8.39-16.12-5.05-1.36-1.7-2.52-3.56-3.77-5.34C278.56,401,278.14,398.36,276.44,396.09Z" transform="translate(-226 -273)" style="fill:#a6755e"/><path d="M276.44,396.09c1.7,2.27,2.12,5,2.42,7.66-3.17-.06-3.4-4.9-7-4.3C271.56,395.83,274.11,396.11,276.44,396.09Z" transform="translate(-226 -273)" style="fill:#7b4e3b"/><path d="M317.74,401.75c.39-1.42-2.14-3.57.25-4.15,3.05-.75,5.41,1,6.39,4.19l-1,0c-.37-.71-.76-.78-1.14,0l-1.23.76C320.84,398.23,318.94,401.48,317.74,401.75Z" transform="translate(-226 -273)" style="fill:#7b4e3b"/><path d="M298.75,414.14c.2-1.76-1.47-2.25-2.26-3.34,2.14-1.09,4.91-.27,6.77-2.22.64,2.4-2.09,3.28-2.36,5.27Z" transform="translate(-226 -273)" style="fill:#c3876a"/><path d="M300.9,413.85c.27-2,3-2.87,2.36-5.27a3.2,3.2,0,0,1,1-.16l2.28,0,.11.12a2.69,2.69,0,0,0-.11,3.29C304.49,412,303.39,414.89,300.9,413.85Z" transform="translate(-226 -273)" style="fill:#a6755e"/><path d="M318.83,410.65l1.15,1.19c-1.45,2.54-3,4.46-5.61,1.06A6.19,6.19,0,0,1,318.83,410.65Z" transform="translate(-226 -273)" style="fill:#2b1810"/><path d="M282,416.34c-1.27.61-1.89,0-2.28-1.16C280.7,415.06,281.59,415.17,282,416.34Z" transform="translate(-226 -273)" style="fill:#1d130c"/><path d="M279.73,415.22l-1.11-.07C279.05,414.34,279.43,414.24,279.73,415.22Z" transform="translate(-226 -273)" style="fill:#1d130c"/><path d="M322.2,401.75c.38-.77.77-.7,1.14,0Z" transform="translate(-226 -273)" style="fill:#8d6048"/><path d="M264.27,335.82a3.44,3.44,0,0,0,.49-3.4c.23-1.13.47-2.27.7-3.41,1.25-1.65,1.39-3.17-.55-4.43,0-1.12-.05-2.24-.08-3.36,1.76-.84,1.46-2.25,1-3.69.16-.63.32-1.26.49-1.88l3.29-.08c.23,9.36,2.86,18.8-1.06,28-.39,1.38-2.75,2.64-1.78,3.69,3,3.24-.33,5.74-.45,8.57-1,1.83-2.21,3.25-4.43,3.45l-1.23-1.16c.22-7.23,3.37-14,3.39-21.25A1.47,1.47,0,0,0,264.27,335.82Z" transform="translate(-226 -273)" style="fill:#a6755e"/><path d="M275.38,299.93l.81,0a2.5,2.5,0,0,0,2.49-1.08l3.26-1.13,1.2,0c1,1.76,3.5.38,4.43,2.22a2,2,0,0,0,2.24,2.2l1.1,1.12h0a2.23,2.23,0,0,0,2.24,1.17l0,0c0,.94.09,1.88.14,2.82l-4.57-.24c-4.32-3.32-8.23-.14-12.28.77-2.25-1.79-4.47-.4-6.7.05-.6-4.27,5.36-2.16,5.53-5.69C275.28,301.42,275.33,300.68,275.38,299.93Z" transform="translate(-226 -273)" style="fill:#2b1810"/><path d="M266.36,306.71c-1,1.28-2.06,2.54-3,3.85-.73,1-1,2.73-2.64,2.27s-1.59-2.39-1.72-3.69c-.19-1.84,1.36-2.36,3-2.42s2.92-.05,4.38-.07Z" transform="translate(-226 -273)" style="fill:#1d130c"/><path d="M269.64,315.57l-3.29.08c.51-2.25.49-4.81,3.27-5.76l4.54.16c-.35.75-.71,1.51-1.06,2.27l0,0a3,3,0,0,0-3.3,2.22C269.72,314.91,269.68,315.24,269.64,315.57Z" transform="translate(-226 -273)" style="fill:#7b4e3b"/><path d="M274.16,310.05l-4.54-.16c0-.68.05-1.36.07-2,2.23-.45,4.45-1.84,6.7-.05l0,1.17Z" transform="translate(-226 -273)" style="fill:#4a2b20"/><path d="M264.91,324.58c1.94,1.26,1.8,2.78.55,4.43C263.44,327.76,263.7,326.23,264.91,324.58Z" transform="translate(-226 -273)" style="fill:#7b4e3b"/><path d="M265.86,317.53c.43,1.44.73,2.85-1,3.69C263.52,319.53,264.08,318.36,265.86,317.53Z" transform="translate(-226 -273)" style="fill:#7b4e3b"/><path d="M275.38,299.93c-.05.75-.1,1.49-.16,2.23a1.9,1.9,0,0,1-2.15-2.12Z" transform="translate(-226 -273)" style="fill:#4a2b20"/><path d="M266.3,306.65l.29-.47c-.08.18-.16.35-.23.52Z" transform="translate(-226 -273)" style="fill:#1d130c"/><path d="M287.57,292.2c3.59-1.56,7.24-3,10.77-4.73,1.77-.86,3.3-1.49,4.86.2v4.48c-1.18.69-.12,1.4,0,2.1,1.2,2.26,4.47,1.9,5.75,4.48H303.3c-2.05-3.31-5.15-1.74-8-1.43l7.79,1.67,3.49,3.23c-3.71,0-7.44.3-11-1.12a2.32,2.32,0,0,0-2.43-1.14h0c-.63-1.45-2.22-1.54-3.3-2.35.58-1.05,2.49-1.36,1.94-3-.7-2.13-2.09-.45-3.16-.37C286.69,294.37,287.19,293.27,287.57,292.2Zm10.37.55c-.3-.19-.57-.49-.85-.5s-.59.27-.89.42c.28.17.55.47.84.49S297.63,292.9,297.94,292.75Z" transform="translate(-226 -273)" style="fill:#614233"/><path d="M303.3,298.73h5.62c-1.28-2.58-4.55-2.22-5.75-4.47,7.05-.43,13,2.88,19,5.71,1.39,3-.59,1.75-1.78,1.38-3.24-1-3.3.75-2.7,3.09a1.43,1.43,0,0,1-.86.35c-1.75-.89-3.1.81-4.73.72-.89-2-2.84-2.44-4.55-3.24l-1-.09,0,0L303.09,299Z" transform="translate(-226 -273)" style="fill:#371f17"/><path d="M322.21,300c-6.07-2.83-12-6.14-19-5.71-.09-.71-1.15-1.42,0-2.11,6.5-2.43,12.8-1.38,19,1.09.29.07.6.14.9.19-.4,4.13-3.32-.34-4.67,1.72C319,297.06,322.66,297.12,322.21,300Z" transform="translate(-226 -273)" style="fill:#7b4e3b"/><path d="M316.87,304.8a1.51,1.51,0,0,0,.86-.36l4.26.22,1.34,3.12c0,.45.07.91.1,1.36l-2.34-.11c-1.92,0-4-.89-5.6,1l-4.69-.51C311.81,306.62,316.19,308.09,316.87,304.8Z" transform="translate(-226 -273)" style="fill:#c3876a"/><path d="M323.33,307.78,322,304.66c4.33-.38,8.7-.92,12.5,2,0,.47,0,.95,0,1.42l-4.45-.34c-.43-1-.8-.9-1.12.06Z" transform="translate(-226 -273)" style="fill:#7b4e3b"/><path d="M328.81,296.55l.06,3.45c-1.19-.22-2.75-.22-2.57-1.93C326.42,296.83,327.75,296.7,328.81,296.55Z" transform="translate(-226 -273)" style="fill:#371f17"/><path d="M334.47,308.09c0-.47,0-.95,0-1.42l2.23-.12c-.16,1.26-.31,2.52-.47,3.79A2.38,2.38,0,0,1,334.47,308.09Z" transform="translate(-226 -273)" style="fill:#a6755e"/><path d="M340.17,305.28l-3.5.21-.06-1.14,1.2-1.15C339.08,303.34,340.12,303.75,340.17,305.28Z" transform="translate(-226 -273)" style="fill:#614233"/><path d="M323.12,293.43c-.3-.05-.61-.12-.9-.19.74-1.18,1.49-1.12,2.25,0l-.06.06Z" transform="translate(-226 -273)" style="fill:#371f17"/><path d="M324.47,293.23l1.44.46c-.1.14-.27.41-.28.4-.42-.25-.82-.53-1.22-.8Z" transform="translate(-226 -273)" style="fill:#371f17"/><path d="M335.72,323.53q-1.73,3.89-3.43,7.77c-3.62.15-.63,3-1.71,4.16-1.37,1.46-3.41,2.7-.43,4.66,2.28,1.5,4.38,2.58,6.62.09,1.73,4,1.67,8.69,4.52,12.3q.57,5.1,1.15,10.22s0,.11,0,.1c-2.45,1.44-3,4-3.62,6.42-2.53.43-2.88,2.48-3.29,4.47l-1.09,0H330c0-1.64,1.59-2.53,1.94-3.77.89-3.19,5.6-5.45,2.51-9.64-3.16-5.19-7.17-.92-10.79-1-2.52-2.65-7.32-.46-9.23-4.38l8.84-.42,3.28.06,1.21.16c1.73,1.56,3,1.32,3.32-1.08.4-3.19.75-6.5-3.34-7.83a9.7,9.7,0,0,0-1.07-.11l-1.22-2c2.54-1.88-.12-3.8,0-5.69-.09-4.63,3.41-7.51,5.18-11.22C332,324.09,333.06,323.18,335.72,323.53Z" transform="translate(-226 -273)" style="fill:#d49475"/><path d="M342.78,361.88l2-.27c.1.42.21.85.31,1.28C344.11,363,343.23,362.89,342.78,361.88Z" transform="translate(-226 -273)" style="fill:#4a2b20"/><path d="M345.05,362.89c-.1-.43-.21-.86-.31-1.28a.87.87,0,0,1,.86.27c-.19.34-.37.69-.55,1Z" transform="translate(-226 -273)" style="fill:#a6755e"/><path d="M330,373.77h4.47c-1.17,3-.61,6.58-3.34,9-1.44-.62-3.09-1.9-3.38,1.08h0c-2,.23-3.31,1.68-2.48,3.3,1.12,2.18.33,2.79-1.37,3.69-2,1-3.09.45-3.92-1.36h0c2.34-2.94.14-4.87-1.29-7.31-1.59,1.72-.73,3.44-1.07,4.94a1.44,1.44,0,0,0-.05.62l-4.27-1.49c-1.59-.24-2.27.59-2.39,2.05h-3.3l0-4.45c2.75-.18,4.9-2.67,7.87-2.07,1.7.62.77-.83,1-1.33l1.08-3.21,1.18-1.19h2.23c1,2.3,3,2.6,5,2.09s.22-2.13.57-3.18C327.9,374.86,329.23,375.1,330,373.77Z" transform="translate(-226 -273)" style="fill:#c3876a"/><path d="M320,389.45c.83,1.81,2,2.39,3.92,1.36,1.7-.9,2.49-1.51,1.37-3.69-.83-1.62.47-3.07,2.48-3.3,3.34,5.2,2.73,8.27-2.24,11.19-1.08-1.42-2.64-1.07-4.08-1.08C316.33,393.92,318,391.76,320,389.45Z" transform="translate(-226 -273)" style="fill:#986b56"/><path d="M335.57,373.72c.41-2,.76-4,3.29-4.47C339.08,371.72,338.53,373.6,335.57,373.72Z" transform="translate(-226 -273)" style="fill:#c3876a"/><path d="M327.76,383.81c.29-3,1.94-1.7,3.38-1.08C330.84,385.69,329.2,384.43,327.76,383.81Z" transform="translate(-226 -273)" style="fill:#986b56"/><path d="M287.57,292.2c-.38,1.07-.88,2.17,1.08,2,1.07-.08,2.46-1.76,3.16.37.55,1.63-1.36,1.94-1.94,3l-6.73.19-1.2,0c1.27-1.5,3-2.54,2.94-5C284.85,291.36,286.29,290.53,287.57,292.2Z" transform="translate(-226 -273)" style="fill:#4a2b20"/><path d="M278.68,298.88a2.5,2.5,0,0,1-2.49,1.08,2.69,2.69,0,0,1,1.32-2.21Z" transform="translate(-226 -273)" style="fill:#4a2b20"/><path d="M260.69,358.12l1.23,1.16c-.06,1.08-.11,2.16-.16,3.24-2.71.42-.76,2.29-1.07,3.46q0,.54.06,1.08v1.32l-3.35-.19c.12-3.54-.69-7.29,2.34-10.16A3.13,3.13,0,0,0,260.69,358.12Z" transform="translate(-226 -273)" style="fill:#7b4e3b"/><path d="M264.27,335.82a1.47,1.47,0,0,1-.19,1.05C263.27,336.37,263.46,336,264.27,335.82Z" transform="translate(-226 -273)" style="fill:#371f17"/><path d="M264.18,379.42c-.31-3.69-3.88-6.25-3.5-10.17,2.3,0,1.92,2.42,3,3.42,1.82,1.69,2,5.78,6,4.47l2.23.12c-2.4,4.15.17,4.48,3.34,4.35,2,0,4.05.07,6.05-.1,1.64-.14,3.12-1.17,2.38-2.88-2.31-5.38,1.77-6,5.07-7.25a3.69,3.69,0,0,1,2.1,3.56c-6.59-1-2.33,5.36-5.27,6.77,1.83,1.58,4.24.17,5.34,2.21l0,2.16-6.71,2.07-4.39-.06c-.53-2.47-1.38-4.59-4.53-4.24a15.18,15.18,0,0,0-6.62,2.28C267.58,383.6,267.22,380.62,264.18,379.42Z" transform="translate(-226 -273)" style="fill:#986b56"/><path d="M279.78,388.09l4.39.06c7.81,2.24,15.67,1.69,23.54.4l-.06-.28H311a2,2,0,0,0,2.39-2.05l4.27,1.49c.91,3-3.31,2.53-3.34,4.89l-9.78,1.21c-.94-2.05-2.71-2.22-4.66-2.18-4.08.09-8.16.08-12.24.11l-3.41.25-3.16-.47C281.93,389.89,276.4,390.6,279.78,388.09Z" transform="translate(-226 -273)" style="fill:#4a2b20"/><path d="M268.63,386.13a15.18,15.18,0,0,1,6.62-2.28c-.58,2.5-4.31,4.46-.39,7.65C270,391.91,269.26,389.05,268.63,386.13Z" transform="translate(-226 -273)" style="fill:#a6755e"/><path d="M269.68,377.14c-4,1.31-4.19-2.78-6-4.47-1.07-1-.69-3.38-3-3.42a4.2,4.2,0,0,1,.06-.87c0-.44,0-.88,0-1.32.79-.4.73-.76-.06-1.08.31-1.17-1.64-3,1.07-3.46C267.63,365.64,265.92,372.87,269.68,377.14Z" transform="translate(-226 -273)" style="fill:#a6755e"/><path d="M304.49,393.8l9.78-1.21c1.42,3.92-.44,6.74-3.12,9.27-3.15-1.25-2.12,3.53-4.62,3.21-2.37-2.11-5.31-.48-7.89-1.2,1.31-2.81,4-5.44,1.16-8.8C301,393.41,302.9,394.12,304.49,393.8Z" transform="translate(-226 -273)" style="fill:#d49475"/><path d="M306.53,405.07c2.5.32,1.47-4.46,4.62-3.21.54,3.6-.83,5.92-4.48,6.71l-.11-.12c0-.77-.05-1.55-.07-2.32A7.52,7.52,0,0,1,306.53,405.07Z" transform="translate(-226 -273)" style="fill:#a6755e"/><path d="M317.66,387.08c.34-1.5-.52-3.22,1.07-4.94,1.43,2.44,3.63,4.37,1.29,7.31A2.33,2.33,0,0,0,317.66,387.08Z" transform="translate(-226 -273)" style="fill:#a6755e"/><path d="M332.23,401.71l.51-.43-.45.49Z" transform="translate(-226 -273)" style="fill:#614233"/><path d="M341.29,352.51c-2.85-3.61-2.79-8.28-4.52-12.3.12-.39.23-.78.34-1.17,2.78.93,3.08,4.14,5.2,5.67C341.86,347.29,343.27,350.12,341.29,352.51Z" transform="translate(-226 -273)" style="fill:#4a2b20"/><path d="M335.72,323.53c-2.66-.35-3.73.56-5,3.29-1.77,3.71-5.27,6.59-5.18,11.22-1.71-.11-3.37.07-2.65-2.76.77-3,1.38-6.09,2.35-9.09s3.46-5.84,2.56-9.44v-2.24c3.55-.66,1.8-3.51,2.26-5.45v-1.31l4.45.34a2.38,2.38,0,0,0,1.78,2.25c.13.64.27,1.28.41,1.93-1.05.83-1.06,1.58.19,2.23l.36,4.34C336.4,320.3,337.28,322.3,335.72,323.53Z" transform="translate(-226 -273)" style="fill:#e2a382"/><path d="M336.85,314.5c-1.25-.65-1.24-1.4-.19-2.23C337.75,312.93,337.89,313.66,336.85,314.5Z" transform="translate(-226 -273)" style="fill:#a6755e"/><path d="M337.11,339c-.11.39-.22.78-.34,1.17-2.24,2.49-4.34,1.41-6.62-.09-3-2-.94-3.2.43-4.66,1.08-1.16-1.91-4,1.71-4.16.89,1.43,1.09,3.6,3.58,3.28.23,1.07.46,2.14.7,3.21-.82.55-1,.95.23,1.06Z" transform="translate(-226 -273)" style="fill:#c3876a"/><path d="M336.8,338.85c-1.2-.11-1.05-.51-.23-1.06A2.56,2.56,0,0,1,336.8,338.85Z" transform="translate(-226 -273)" style="fill:#4a2b20"/><path d="M306.53,405.07a7.52,7.52,0,0,0,0,1.06,2.18,2.18,0,0,0-2.21,2.29,3.2,3.2,0,0,0-1,.16c-1.86,1.95-4.63,1.13-6.77,2.22l-1.35-1.12c-.22-.86-.45-.77-.68,0l-1.42.15c.13-2.13-.81-2.24-2.67-1.81-2.13.5-3.4-1.41-4.05-2.89-.75-1.69,2.13-.71,2.35-2.12l3.29,0c1.34,1.09,2.89,1,4.46.77l2.22.12C301.22,404.59,304.16,403,306.53,405.07Z" transform="translate(-226 -273)" style="fill:#efb397"/><path d="M288.67,403c-.22,1.41-3.1.43-2.35,2.12.65,1.48,1.92,3.39,4.05,2.89,1.86-.43,2.8-.32,2.67,1.81-3.09,1.86-5.76.92-7.76-1.64-3.13-4-4.63-8.8-6.16-13.69,2.58,1.9,4.8,4,7.85,4.81C288.74,399.8,288.73,401.47,288.67,403Z" transform="translate(-226 -273)" style="fill:#c3876a"/><path d="M296.42,403.74c-1.57.23-3.12.33-4.46-.76.39-2.32-2.39-3.44-2.14-5.7l6.67-.06c1.51.28,2.59.91,1.33,2.51A6.1,6.1,0,0,0,296.42,403.74Z" transform="translate(-226 -273)" style="fill:#8d6048"/><path d="M296.49,397.22l-6.67.06c-1.53-2.14-4.81-2.41-5.64-5.3l3.41-.25c2.49,3.68,7.14.78,10,3.28A2.36,2.36,0,0,0,296.49,397.22Z" transform="translate(-226 -273)" style="fill:#986b56"/><path d="M294.46,409.67c.23-.76.46-.85.68,0h-.68Z" transform="translate(-226 -273)" style="fill:#c3876a"/><path d="M304.28,408.42a2.18,2.18,0,0,1,2.21-2.29c0,.77,0,1.55.07,2.32Z" transform="translate(-226 -273)" style="fill:#c3876a"/><path d="M269.68,377.14c-3.76-4.27-2.05-11.5-7.92-14.62.05-1.08.1-2.16.16-3.24,2.22-.2,3.48-1.62,4.43-3.45l4.4.12,1.22,4.34c-1.35.3-3.19-.57-4,1.09-1.53,3.2,3.82,12,7.33,12.33,4.46-.85,6.33-4.66,8.83-7.75,1.62-1.62,1.63-3.57,1.16-5.62,0-.39,0-.78,0-1.18l6.54-1.23.24,4.7c-.77,1.49-2.36,2.53-2.43,4.41-2.11,1.06-2.2,2.56-.92,4.34-3.3,1.27-7.38,1.87-5.07,7.25.74,1.71-.74,2.74-2.38,2.88-2,.17-4,.08-6.05.1,0-2.86,4.3-2.94,3.9-6.42-2.64.06-4.62,2.42-7.24,2.07Z" transform="translate(-226 -273)" style="fill:#c3876a"/><path d="M269.64,315.57c0-.33.08-.66.14-1,1.58,0,3.14-.08,3.3-2.22l0,0,5.52-.05a22.63,22.63,0,0,0-.38,11.31c.83,4.11,1.6,8.72-2.32,12.34a6.84,6.84,0,0,0-1.72,6.16l-4.47,1.63-1.15-.14C272.5,334.37,269.87,324.93,269.64,315.57Z" transform="translate(-226 -273)" style="fill:#c3876a"/><path d="M268.58,343.57l1.15.13c-.41,3.43,1.93,3.33,4.22,3.3,2.64,1.94,5.35-.54,8,.12v3.12a73.69,73.69,0,0,0-9.43.58c-2.88.52-3.18,2.15-.62,3.9L270.75,356l-4.4-.13c.12-2.83,3.47-5.33.45-8.57C265.83,346.21,268.19,345,268.58,343.57Z" transform="translate(-226 -273)" style="fill:#8d6048"/><path d="M307.59,302.27c1.71.8,3.66,1.27,4.55,3.24-1.64,2.51-5.12-.22-6.73,2.37l-3.33.13c-1.49-2-1.95-.73-2.37.74a5.87,5.87,0,0,1-4.34-.95,3.23,3.23,0,0,0-2.27-3.35l0,0a2.27,2.27,0,0,0-2.24-1.17h0l-1.1-1.12a2,2,0,0,1-2.24-2.2l5.6-.06h0c.46,1.13,1.44,1.15,2.43,1.14,3.56,1.42,7.29,1.16,11,1.12l0,0C306.84,302.76,307.18,303,307.59,302.27Z" transform="translate(-226 -273)" style="fill:#4a2b20"/><path d="M295.37,307.8a5.88,5.88,0,0,0,4.35.95,2.09,2.09,0,0,0,2.36-.74l3.33-.13c0,.6,0,1.2,0,1.8-2.94,2.56-6.68,1.81-10.08,2.46a2.26,2.26,0,0,0-2.22-1.06c-5-1.6-9.94-2.12-14.54,1.19l-5.52.05c.35-.76.71-1.52,1.06-2.27l2.26-1.08L288.67,307l4.57.24Z" transform="translate(-226 -273)" style="fill:#a6755e"/><path d="M288.67,307,276.42,309l0-1.17C280.44,306.89,284.35,303.71,288.67,307Z" transform="translate(-226 -273)" style="fill:#614233"/><path d="M293.17,300l-5.6.06c-.93-1.84-3.47-.46-4.43-2.22l6.73-.19C291,298.41,292.54,298.5,293.17,300Z" transform="translate(-226 -273)" style="fill:#1d130c"/><path d="M295.37,307.8l-2.13-.53c-.05-.94-.09-1.88-.14-2.82A3.23,3.23,0,0,1,295.37,307.8Z" transform="translate(-226 -273)" style="fill:#614233"/><path d="M290.9,303.32a2.27,2.27,0,0,1,2.24,1.17A2.23,2.23,0,0,1,290.9,303.32Z" transform="translate(-226 -273)" style="fill:#614233"/><path d="M289.81,302.21l1.1,1.12Z" transform="translate(-226 -273)" style="fill:#614233"/><path d="M273.08,312.35c-.16,2.14-1.72,2.19-3.3,2.22A3,3,0,0,1,273.08,312.35Z" transform="translate(-226 -273)" style="fill:#a6755e"/><path d="M303.09,299l-7.79-1.67c2.85-.31,5.95-1.88,8,1.43Z" transform="translate(-226 -273)" style="fill:#371f17"/><path d="M297.94,292.75c-.31.15-.61.42-.9.41s-.56-.32-.84-.49c.3-.15.6-.43.89-.42S297.64,292.56,297.94,292.75Z" transform="translate(-226 -273)" style="fill:#4a2b20"/><path d="M295.58,301.08c-1,0-2,0-2.43-1.14A2.32,2.32,0,0,1,295.58,301.08Z" transform="translate(-226 -273)" style="fill:#1d130c"/><path d="M305.46,309.68c0-.6,0-1.2,0-1.8,1.61-2.59,5.09.14,6.73-2.37,1.63.09,3-1.61,4.73-.72-.68,3.3-5.06,1.83-6.07,4.72Z" transform="translate(-226 -273)" style="fill:#7b4e3b"/><path d="M307.59,302.27c-.41.7-.75.49-1-.09Z" transform="translate(-226 -273)" style="fill:#614233"/><path d="M305.46,309.68l5.34-.17,4.69.51c2.2,1.57,4.26,2.33,5.6-1l2.34.11c2.78.71,1,5.08,4.33,5.37v2.24c-2.4,1.26-6.53-.12-7.4,2.57-1.39,4.28-3.94,3.14-6.84,3.12s-5.77-.52-8.74-.45c-8.76.21-9.86-1.18-9.41-8.61,0-.42,0-.83,0-1.24C298.78,311.49,302.52,312.24,305.46,309.68Z" transform="translate(-226 -273)" style="fill:#f5bb9b"/><path d="M327.76,314.51c-3.3-.29-1.55-4.66-4.33-5.37,0-.45-.07-.91-.1-1.36l5.57,0c.37.42.74.84,1.12,1.25C329.56,311,331.31,313.85,327.76,314.51Z" transform="translate(-226 -273)" style="fill:#efb397"/><path d="M321.09,309c-1.34,3.32-3.4,2.56-5.6,1C317.08,308.14,319.17,309,321.09,309Z" transform="translate(-226 -273)" style="fill:#efb397"/><path d="M330,309.06c-.38-.41-.75-.83-1.12-1.25.32-1,.69-1,1.12-.06Z" transform="translate(-226 -273)" style="fill:#c3876a"/><path d="M295.37,313.38c-.45,7.43.65,8.82,9.41,8.61,3-.07,5.82.43,8.74.45s5.45,1.16,6.84-3.12c.87-2.69,5-1.31,7.4-2.57.9,3.6-1.56,6.35-2.56,9.44s-1.58,6.05-2.35,9.09c-.72,2.83.94,2.65,2.65,2.76-.16,1.89,2.5,3.81,0,5.69-2-.24-3.77-2-5.93-.75-1.06-.1-2.16-.37-3,.59-2.25-.81-4.46-.94-6.55.47l-1.14-.54c0-1.45,0-2.9,0-4.36,1.21-2,2.06-2.85,3.77-.08,1.48,2.39,4.41.9,6.7,1.05a1.21,1.21,0,0,0,1.35-1.37c-.36-2.61-2.62-3.29-4.54-4.39-2.28-1.31-4.9-.88-7.32-2.2-7.68-4.21-10-2.69-10,5.86a28.9,28.9,0,0,0-11.16.07l-2.26,0,0-6.85c1.49-2.23-.75-3.73-1.09-5.6,1.62-.76,3.71-1.37,3.3-3.64-.6-3.33,1.6-5.75,2.3-8.63l3.35,0Z" transform="translate(-226 -273)" style="fill:#efb397"/><path d="M323.67,359.38c3.62.06,7.63-4.21,10.79,1-3.51,5.42-8.95,8.92-13.37,13.43h-2.24l-5.51-1.23c-2.12-2.18-4.24-6.39-6.2.2-.17.58-1.86.7-2.84,1l-2.2.2-3.35-.81,1.27-1.74c2.19-2.41,2.8-4.44-.26-7-1.66-1.38-2.19-4,1-5.25,3.74,3.69,4.12,3.74,5.82.85l9.88,2.28c1.9.22,4,.94,4.81-1.76Zm-16.76,8.09c-.15-.05-.33-.19-.45-.15-.53.15-.54.41,0,.65a.56.56,0,0,0,.46-.1C306.94,367.81,306.9,367.61,306.91,367.47Z" transform="translate(-226 -273)" style="fill:#efb397"/><path d="M323.67,359.38l-2.44,1.2c-1.83,0-4-1-4.81,1.76l-9.88-2.28c-1.27-2.29-3.49-1.91-5.56-2l-.15-3.11a26,26,0,0,1,9.12-1.4l4.49,1.42C316.35,358.92,321.15,356.73,323.67,359.38Z" transform="translate(-226 -273)" style="fill:#a6755e"/><path d="M321.09,373.79c4.42-4.51,9.86-8,13.37-13.43,3.09,4.19-1.62,6.45-2.51,9.64-.35,1.24-2,2.13-1.94,3.77-.78,1.33-2.11,1.09-3.33,1.17C325.13,373,323,374.07,321.09,373.79Z" transform="translate(-226 -273)" style="fill:#e2a382"/><path d="M327.77,354.8l-1.21-.16c0-4.9-3.51-4.17-6.59-4.15l-3.34-.07h-1.15l-3.38.07,1.11-2.55,4.39-.4c1.72.64,2.68-.3,3.44-1.67l5.64-.08a9.7,9.7,0,0,1,1.07.11C327.41,348.86,331.34,351.82,327.77,354.8Z" transform="translate(-226 -273)" style="fill:#8d6048"/><path d="M312.1,350.48l3.38-.07c.38.55.76.55,1.15,0l3.34.07c1.2,1.29,3.48,1.7,3.31,4.09l-8.84.42L310,353.58C309.68,351.86,311.38,351.51,312.1,350.48Z" transform="translate(-226 -273)" style="fill:#1d130c"/><path d="M327.77,354.8c3.57-3-.36-5.94,0-8.91,4.09,1.33,3.74,4.64,3.34,7.83C330.78,356.12,329.5,356.36,327.77,354.8Z" transform="translate(-226 -273)" style="fill:#a6755e"/><path d="M323.28,354.58c.17-2.39-2.11-2.8-3.31-4.09,3.08,0,6.61-.75,6.59,4.15Z" transform="translate(-226 -273)" style="fill:#371f17"/><path d="M326.68,345.78l-5.64.08h0c0-1.13-.29-2-1.53-2.31a.47.47,0,0,1,0-.56c2.16-1.22,4,.51,5.93.75Z" transform="translate(-226 -273)" style="fill:#a6755e"/><path d="M290.88,386.08c0-.72,0-1.44,0-2.17l3.44-1.06c3.44.86,7.64,3.49,7.8-3.34,2.06-.45,3.21-2.11,4.6-3.47l4.33-.09a3.82,3.82,0,0,1,2.16,2.34c-3.84-.16-7.94-.58-5.57,5.53l0,4.45.06.28C302.35,386,296.22,388.75,290.88,386.08Z" transform="translate(-226 -273)" style="fill:#d49475"/><path d="M307.68,383.82c-2.37-6.11,1.73-5.69,5.57-5.54l2.19,2.26.11,1.21C312.58,381.15,310.43,383.64,307.68,383.82Z" transform="translate(-226 -273)" style="fill:#efb397"/><path d="M321.09,373.79c1.88.28,4-.76,5.59,1.15-.35,1.05,1.44,2.68-.57,3.18s-4,.21-5-2.09v-2.25Z" transform="translate(-226 -273)" style="fill:#d49475"/><path d="M315.44,380.54l-2.19-2.26a3.83,3.83,0,0,0-2.16-2.33,1.83,1.83,0,0,1,2.09-2.1l4.49,3.36-1.08,3.21Z" transform="translate(-226 -273)" style="fill:#a6755e"/><path d="M317.67,377.21l-4.49-3.36c.06-.43.11-.87.16-1.3l5.51,1.23V376Z" transform="translate(-226 -273)" style="fill:#d49475"/><path d="M318.85,376v-2.24h2.23V376Z" transform="translate(-226 -273)" style="fill:#e2a382"/><path d="M313.34,386.21a2,2,0,0,1-2.39,2.05C311.07,386.8,311.75,386,313.34,386.21Z" transform="translate(-226 -273)" style="fill:#7b4e3b"/><path d="M315.44,380.54l1.15-.12c-.27.5.66,1.95-1,1.33C315.51,381.35,315.47,380.94,315.44,380.54Z" transform="translate(-226 -273)" style="fill:#d49475"/><path d="M260.69,366c.79.32.85.68.06,1.08Q260.71,366.52,260.69,366Z" transform="translate(-226 -273)" style="fill:#986b56"/><path d="M294.36,382.85l-3.44,1.06c-1.1-2-3.51-.62-5.34-2.2,2.94-1.41-1.32-7.78,5.27-6.77,1.59.19,3.35-.66,4.73.8-2,.89-2.43,2.95-3.21,4.61-.89,1.92,1.07.75,1.65,1.14Z" transform="translate(-226 -273)" style="fill:#614233"/><path d="M290.88,386.08c5.34,2.67,11.47-.1,16.83,2.47-7.87,1.29-15.73,1.84-23.54-.4Z" transform="translate(-226 -273)" style="fill:#7b4e3b"/><path d="M295.58,375.74c-1.38-1.46-3.14-.61-4.73-.8a3.69,3.69,0,0,0-2.1-3.56c-1.28-1.78-1.19-3.28.93-4.34,2.71,3.2,5.79,5.53,10.34,4.4l-1.27,1.74C297,373.21,297.36,375.79,295.58,375.74Z" transform="translate(-226 -273)" style="fill:#e2a382"/><path d="M271.91,377.26c2.62.35,4.6-2,7.24-2.07.4,3.48-3.93,3.56-3.9,6.42C272.08,381.74,269.51,381.41,271.91,377.26Z" transform="translate(-226 -273)" style="fill:#8d6048"/><path d="M297.6,395c-2.87-2.5-7.52.4-10-3.28,4.08,0,8.16,0,12.24-.11,1.95,0,3.72.13,4.66,2.18-1.59.32-3.46-.39-4.69,1.27Z" transform="translate(-226 -273)" style="fill:#c3876a"/><path d="M297.6,395l2.2.06c2.85,3.36.15,6-1.16,8.8l-2.22-.12a6.11,6.11,0,0,1,1.4-4c1.26-1.6.18-2.23-1.33-2.51A2.36,2.36,0,0,1,297.6,395Z" transform="translate(-226 -273)" style="fill:#a6755e"/><path d="M300,371.44c-4.55,1.13-7.63-1.2-10.34-4.4.06-1.88,1.65-2.92,2.41-4.41,2.24-.23,3.47-1.57,3.2-3.7-.4-3.08,1.34-4.76,3.44-6.36l1.65.3.45,2.11.15,3.11c-.08.37-.17.75-.26,1.12-3.15,1.24-2.62,3.87-1,5.25C302.82,367,302.21,369,300,371.44Z" transform="translate(-226 -273)" style="fill:#f5bb9b"/><path d="M284.15,366c-2.5,3.09-4.37,6.9-8.83,7.75,2-3.68-4.58-1.59-3.58-5.66.79-3.23,3.27-4.19,4.71-6.36l5.47-.07C282.17,363.33,281.3,365.6,284.15,366Z" transform="translate(-226 -273)" style="fill:#e2a382"/><path d="M281.92,361.62l-5.48.06L272,360.29,270.75,356l1.16-1.23,6.7.13,4.36.34c-.32,2,1.28,2.82,2.35,4,0,.4,0,.79,0,1.18Z" transform="translate(-226 -273)" style="fill:#a6755e"/><path d="M272,360.29l4.47,1.39c-1.43,2.18-3.91,3.14-4.7,6.37-1,4.07,5.55,2,3.58,5.66-3.51-.3-8.86-9.13-7.33-12.33C268.78,359.72,270.62,360.59,272,360.29Z" transform="translate(-226 -273)" style="fill:#d49475"/><path d="M298.73,352.57c-2.1,1.6-3.84,3.28-3.44,6.36.27,2.13-1,3.47-3.2,3.7-.07-1.56-.15-3.13-.23-4.7l1.26-5.39C295,351.77,296.89,348.38,298.73,352.57Z" transform="translate(-226 -273)" style="fill:#e2a382"/><path d="M293.12,352.54l-1.26,5.39-6.54,1.23c-1.07-1.15-2.67-2-2.35-4,1.86-.91,4.35.58,5.9-1.54,1.22,0,2.5.13,3.22-1.21A4,4,0,0,0,293.12,352.54Z" transform="translate(-226 -273)" style="fill:#7b4e3b"/><path d="M281.92,361.62l3.39-1.28c.47,2.05.46,4-1.16,5.62C281.3,365.6,282.17,363.33,281.92,361.62Z" transform="translate(-226 -273)" style="fill:#d49475"/><path d="M285.3,338.1l2.26,0c1.25,2.59,3.76,1.69,5.81,2.25,4,1.1,8.82-.67,12.11,3.16-4.86-.38-9.83.85-14.59-1.31-1.42-.64-2.8.42-3.48,1.95l-5.43-.54-5.37-.45-2.41-1.06a6.84,6.84,0,0,1,1.72-6.16c3.92-3.62,3.15-8.23,2.32-12.34a22.63,22.63,0,0,1,.38-11.31c4.6-3.31,9.53-2.79,14.54-1.19,0,.76,0,1.52,0,2.28l-3.35,0c-.88.25-1.79.45-2.66.74-7.82,2.64-8.27,4-3.32,9.93.31.37.26,1.06.38,1.6.34,1.87,2.58,3.37,1.09,5.6-4,.56-3.55,3.57-3.11,6.2C282.48,339.47,283.92,339.39,285.3,338.1Z" transform="translate(-226 -273)" style="fill:#d49475"/><path d="M274.2,342.08l2.41,1.06c-1.34,1-2.59,2-2.66,3.86-2.29,0-4.63.13-4.22-3.3Z" transform="translate(-226 -273)" style="fill:#7b4e3b"/><path d="M282,343.59l5.43.53,1.25,2.85c.09,2.24,1.6,3.43,3.31,4.47a8.27,8.27,0,0,1,.12,1c-.72,1.34-2,1.21-3.22,1.21-2.18-1-4.18-2.45-6.72-2.42a8.63,8.63,0,0,1-.19-1v-3.12C282,345.94,282,344.76,282,343.59Z" transform="translate(-226 -273)" style="fill:#614233"/><path d="M282,350.24a8.63,8.63,0,0,0,.19,1c-1.84.56-5.79-1-3.54,3.62l-6.7-.13c-2.56-1.75-2.26-3.38.62-3.9A73.69,73.69,0,0,1,282,350.24Z" transform="translate(-226 -273)" style="fill:#371f17"/><path d="M282,343.59c0,1.17,0,2.35,0,3.53-2.66-.66-5.37,1.82-8-.12.07-1.85,1.32-2.89,2.66-3.86Z" transform="translate(-226 -273)" style="fill:#371f17"/><path d="M302.08,308a2.09,2.09,0,0,1-2.36.74C300.13,307.28,300.59,306,302.08,308Z" transform="translate(-226 -273)" style="fill:#7b4e3b"/><path d="M293.12,313.36c0-.76,0-1.52,0-2.28a2.26,2.26,0,0,1,2.22,1.06c0,.41,0,.82,0,1.24Z" transform="translate(-226 -273)" style="fill:#e2a382"/><path d="M298.72,338c0-8.55,2.34-10.07,10-5.86,2.42,1.32,5,.89,7.32,2.2,1.92,1.1,4.18,1.78,4.54,4.39a1.21,1.21,0,0,1-1.35,1.37c-2.29-.15-5.22,1.34-6.7-1.05-1.71-2.77-2.56-1.95-3.77.08Z" transform="translate(-226 -273)" style="fill:#f5bb9b"/><path d="M300.83,355l-.45-2.11c-.23-4.74,5.64-4.93,6.56-8.82l1.88-.55L310,344c-.69,2.77,2.12,2.62,3.25,3.89l-1.11,2.55c-.72,1-2.42,1.38-2.15,3.1A26,26,0,0,0,300.83,355Z" transform="translate(-226 -273)" style="fill:#4a2b20"/><path d="M308.82,343.5l-1.88.55-1.46-.56c-3.29-3.83-8.08-2.06-12.11-3.16-2.05-.56-4.56.34-5.81-2.25a28.9,28.9,0,0,1,11.16-.07l10.06,1.13C308.79,340.6,308.8,342.05,308.82,343.5Z" transform="translate(-226 -273)" style="fill:#e2a382"/><path d="M284.17,325.65c-.12-.54-.07-1.23-.38-1.6-5-5.92-4.5-7.29,3.32-9.93.87-.29,1.78-.49,2.66-.74-.7,2.88-2.9,5.3-2.3,8.63C287.88,324.28,285.79,324.89,284.17,325.65Z" transform="translate(-226 -273)" style="fill:#e2a382"/><path d="M313.21,347.93c-1.13-1.27-3.94-1.12-3.25-3.89,2.09-1.41,4.3-1.28,6.55-.47.36,1.32.72,2.64,1.09,4Z" transform="translate(-226 -273)" style="fill:#371f17"/><path d="M285.3,338.1c-1.38,1.29-2.82,1.37-3.15-.65-.44-2.63-.89-5.64,3.11-6.2C285.27,333.53,285.28,335.82,285.3,338.1Z" transform="translate(-226 -273)" style="fill:#e2a382"/><path d="M317.6,347.53c-.37-1.32-.73-2.64-1.09-4,.86-1,2-.69,3-.59a.47.47,0,0,0,0,.56c-1.12,1.85.06,2.18,1.53,2.31h0C320.28,347.23,319.32,348.17,317.6,347.53Z" transform="translate(-226 -273)" style="fill:#4a2b20"/><path d="M295.58,375.74c1.78.05,1.45-2.53,3.17-2.56l3.35.81a2.09,2.09,0,0,0,2.31.78l2.35,1.27c-1.39,1.36-2.54,3-4.6,3.47-3-.47-5.39,1.5-8.14,2-.58-.39-2.54.78-1.65-1.14C293.15,378.69,293.59,376.63,295.58,375.74Z" transform="translate(-226 -273)" style="fill:#371f17"/><path d="M306.76,376l-2.35-1.27a6.53,6.53,0,0,1-.11-1c1-.34,2.67-.46,2.84-1,2-6.59,4.08-2.38,6.2-.2,0,.43-.1.87-.16,1.3a1.83,1.83,0,0,0-2.09,2.1Z" transform="translate(-226 -273)" style="fill:#c3876a"/><path d="M300.72,359.21c.09-.37.18-.75.26-1.12,2.07.06,4.29-.32,5.56,2C304.84,363,304.46,362.9,300.72,359.21Z" transform="translate(-226 -273)" style="fill:#d49475"/><path d="M316.42,362.34c.82-2.72,3-1.78,4.81-1.76C320.4,363.28,318.32,362.56,316.42,362.34Z" transform="translate(-226 -273)" style="fill:#d49475"/><path d="M304.3,373.79a6.53,6.53,0,0,0,.11,1,2.09,2.09,0,0,1-2.31-.78Z" transform="translate(-226 -273)" style="fill:#614233"/><path d="M306.91,367.47c0,.14,0,.34,0,.4a.56.56,0,0,1-.46.1c-.49-.24-.48-.5,0-.65C306.58,367.28,306.76,367.42,306.91,367.47Z" transform="translate(-226 -273)" style="fill:#c3876a"/><path d="M316.63,350.42c-.39.54-.77.54-1.15,0Z" transform="translate(-226 -273)" style="fill:#371f17"/><path d="M321,345.85c-1.47-.13-2.65-.46-1.53-2.31C320.75,343.83,321.07,344.72,321,345.85Z" transform="translate(-226 -273)" style="fill:#8d6048"/><path d="M294,381.49c2.75-.48,5.15-2.45,8.14-2-.16,6.83-4.36,4.2-7.8,3.34C294.25,382.4,294.13,381.94,294,381.49Z" transform="translate(-226 -273)" style="fill:#986b56"/><path d="M305.48,343.49l1.46.56c-.92,3.89-6.79,4.08-6.56,8.82l-1.65-.3c-1.84-4.19-3.73-.8-5.61,0a4,4,0,0,1-1-.1c0-.34-.06-.67-.11-1,.15-2.43-.38-4.34-3.32-4.47l-1.25-2.85c.68-1.52,2.06-2.58,3.48-1.94C295.65,344.34,300.62,343.11,305.48,343.49Z" transform="translate(-226 -273)" style="fill:#a6755e"/><path d="M278.61,354.85c-2.25-4.57,1.7-3.06,3.54-3.62,2.54,0,4.54,1.44,6.72,2.42-1.55,2.12-4,.63-5.9,1.54Z" transform="translate(-226 -273)" style="fill:#1d130c"/><path d="M288.66,347c2.94.13,3.47,2,3.32,4.47C290.26,350.4,288.75,349.21,288.66,347Z" transform="translate(-226 -273)" style="fill:#7b4e3b"/></svg>