<?xml version="1.0"?>
<svg xmlns:rdf="http://www.w3.org/1999/02/22-rdf-syntax-ns#" xmlns="http://www.w3.org/2000/svg" xmlns:cc="http://creativecommons.org/ns#" xmlns:dc="http://purl.org/dc/elements/1.1/" xmlns:svg="http://www.w3.org/2000/svg" id="svg6503" xml:space="preserve" viewBox="0 0 291.11 189.79" version="1.0">
  <g id="g6510" transform="matrix(1.25 0 0 -1.25 -13.48 799.71)">
    <g id="g6975" transform="matrix(1.1852 0 0 1.1852 -1.9971 -111.45)">
      <path id="path6532" fill="#7C9082" d="m10.784 574.55c0.717-1.88 37.586-68.82 37.586-68.82l158.91 48.66-67.63 75.83-128.87-55.67"/>
      <path id="path6558" fill="#7C9082" d="m10.784 575.83c0.717-1.88 37.586-68.82 37.586-68.82l158.91 48.66-67.63 75.83-128.87-55.67"/>
      <path id="path6560" fill="#A7A284" d="m44.424 545.79l8.048-18.49 104.3 25.9v9.8l-112.35-17.21"/>
      <path id="path6562" fill="#433E0E" d="m83.511 619.71c1.81 0.44 3.445 0.23 5.255 0.68 0.594 0.54-0.194 1.22 0.16 1.78l4.382 0.66c0.289-0.58 0-1.42 0.791-1.76l0.334 0.28c0.37-0.23 1.717 0.14 2.133 0.77 4.544 3.87 12.494 6.71 19.434 5.19 1.62-0.16 3.58-0.72 5.11 0.25l0.03-0.16c10.42 2.13 21.07 4.29 31.96 6.44l0.93-54.85c0.01-3.24 0.09-7.16 0.1-10.79-0.31-0.05-0.88 0.03-1.05-0.28-0.84 0.22-1.95 0.17-2.7 0l-0.37 0.23c-13.81-0.82-27.14-0.54-40.95-1.36-1.67-0.71-3.71-0.5-4.56-1.65 1.98-0.33 4.37 0.37 6.07-0.86 0.47-0.66-0.23-1.11-0.34-1.69-5.13-1.97-12.691-3.33-17.651-1.4-0.414 0.79-0.048 1.64 0.634 2.14 1.207 0.3 2.348 0.52 2.924 1.52 0.04 0.18-0.254 0.42 0.105 0.59l-0.433 0.16c-16.992-4.37-33.427-9.45-50.597-13.72l-21.094 55.41-3.011 7.45c0.029 0.23 0.278 0.89 0.653 1.35 11.616-3.26 25.053 1.36 35.22 5.67 9.292 2.19 18.707 1.67 26.531-2.05"/>
      <path id="path6564" fill="#fff" d="m89.561 613.97l5.616-42.32 0.112-0.5c-14.235 3.95-28.966-3.43-38.625-10.73-0.828-0.92-2.165-1.35-2.867-2.48-4.234 16.14-11.668 30.95-16.289 46.69l-3.203 7.6c12.836-0.53 22.343 8.18 35.263 5.85 6.839-1.08 12.872-4.27 19.993-4.11"/>
      <path id="path6566" fill="#fff" d="m144.86 623.73c0.9-16.18 1.67-31.42 2.59-47.66l0.49-2.21c-6.65 2.36-14.03 2.34-21.21 2.8-8.95-0.15-20.16-0.86-27.012-5.41-1.496 6.71-1.974 14.2-2.84 21.29l-2.676 24.85c5.545 5.44 16.358 8.99 25.458 7.06 8.11-1.12 16.13-3.22 25.2-0.72"/>
      <path id="path6568" fill="#433E0E" d="m162.21 624.68c1.11-2.11-0.44-6.21 4.13-6.03 3.91-2.2 7.03-4.81 7.86-8.55-5.68-0.17-9.33 4.06-11.91 7.09-0.68-0.16-1.89-0.06-1.89-0.8 0.74-4.04 2.35-7.67 5.6-10.48 6.7 0.21 13.02-3.5 16.63-7.23l0.47-2.09c-5.79-1.15-11.4 1.93-15.38 4.8l-2.77 2.43c-1.52-0.68-0.66-2.03-0.31-2.89 2.94-3.2 8.54-5.14 11.7-8.25 3.15-2.37 5.51-5.09 6.29-8.61-0.48-0.7-0.63-1.46-1.44-2.1-5.73-1.03-9.11 4.15-14.58 4.07l0.08-0.38c6.61-5.38 19.55-7.82 22.98-14.98 0.1-0.84-0.12-1.61-0.85-2.29-0.66-0.55-2.01-0.59-2.88-0.6-4.51 0.97-5.7 5.23-10.52 5.13 1.14-3.7 7.96-5.06 10.58-8.25l0.09-0.39-1.11-0.05c-5.16 1.79-9.27 4.53-10.97 8.2 0.44 0.18 0.66 0.61 0.76 0.91l-0.19 0.14c1.39 1.23 3.42 0.34 5.04 0.19 3.3-1.27 5.62-3.83 9.06-4.62-0.16 2.48-3.92 3.68-6.71 5.14-6.65 3.1-16.21 6.04-16.91 12.02 0.12 0.53 0.51 0.59 1.09 0.85 5.61 0.5 9.61-3.57 14.83-4.15 1.7 1.28-1.03 2.12-0.74 3.3-5.1 6.52-21.18 9.11-17.64 18.51l0.78 0.8c-2.96 3.65-5.9 8.27-4.19 12.74 0.39 0.4 1.03 0.38 1.63 0.53-0.05-0.13 0.13-0.21 0.22-0.26l0.38 0.06c-0.33 3.65-2.29 7.79 0.62 11.13l0.66 0.26c-0.53-1.55-0.65-3.5-0.49-5.3zm2.81-7.6c1.62-1.91 3.26-3.94 6.57-4.87-1.25 2.03-3.57 3.9-6.57 4.87zm4.43-13.83c3.3-2.69 8.45-4.03 12.43-6.16l0.12 0.13c-2.58 3.03-7.83 5.2-12.55 6.03"/>
      <path id="path6570" fill="#433E0E" d="m113.56 558.88c1.47-6.21 3.23-11.8 4.36-17.66-4.68-1.5-10.57-2.21-15.55-3.53l-47.73-11.41c-0.892-0.19-1.643-0.65-2.656-0.69-2.483 6.57-5.039 13.47-7.56 20.2l59.756 11.28c3.1 0.58 6.29 1.17 9.38 1.81"/>
      <path id="path6572" fill="#433E0E" d="m159.07 564.61c-0.21-4.41-0.69-8.74-0.56-13.16-13.74-2.85-27.4-6.04-41.71-7.9-0.25 1.16-0.45 2.04-0.67 3.03 12.51 3.01 24.82 5.82 37.91 8.52 0.78 1.88 0.06 3.94 0.57 5.83-13.54-2.2-26.69-5.82-40.9-7.32l-0.28 2.4c14.7 2.77 30.58 5.55 45.64 8.6"/>
      <path id="path6574" fill="#433E0E" d="m181.35 563.71c1.7 0.77 3.4 0 4.59-0.78 0.69-0.81 0.62-2.02-0.81-2.46-1.74-0.6-2.91 0.08-4.37 0.14-2.3-2.67-4.37-6.74-10.08-6.68-4.79-0.66-6.54 3-11.13 2.99 0.27 0.33-0.28 0.87 0.38 0.97 4.62 0.24 8.13-3.27 13.05-1.68 4.07 1.57 4.28 7.12 10.12 5.72l0.58 0.49c-0.94 1.16-3.12-0.13-4.55 0.17-4.37-0.6-8.27 3.14-12.32 0.31-1.37-1.85-4.45-2.54-7.42-2.59l-0.15 0.66c5.46-0.43 6.41 4.83 11.99 4.24 3.17-0.89 6.37-1.89 10.12-1.5"/>
      <path id="path6576" fill="#A7A284" d="m110.49 552.44c1.11-1.6 2.48-3.5 2.21-5.36-0.32-0.1-0.75 0.68-1.18-0.06l-9.21-1.78-41.463-8.72-2.677-0.74c-0.075 3.4-0.71 6.09-3.641 8.56 17.346 3.84 35.035 7.69 53.251 10.31l2.71-2.21"/>
      <path id="path6578" fill="#EDEEC0" d="m171.74 561.02c2 0.19 3.46 0.86 5.48 1l0.12-0.55c-1.71-1.11-6.23-0.31-5.99-2.55-0.61-0.66-1.47-1.41-2.51-1.29-1.56 0.11-1.54 1.54-1.19 2.27 0.35 1.08 3.36 3.63 4.09 1.12"/>
      <path id="path6580" fill="#A7A284" d="m170.26 560.4c-0.25-0.03-0.51-0.02-0.64-0.2 1.14-0.12 0.61-0.82 0.27-1.22 0.25 0.44-0.49 0.33-0.41 0.34-0.17 0.37-0.32 1.03 0.44 1.43l0.34-0.35"/>
      <path id="path6582" fill="#EDEEC0" d="m55.454 536.5c0.496-2.6 0.06-5.13-1.006-7.18l-0.749-0.06c-1.445 4.71-2.238 9.62-3.751 14.18 2.792-1.2 5.303-3.86 5.506-6.94"/>
      <path id="path6584" fill="#EDEEC0" d="m93.361 539.28c0.492-0.44 0.61-0.85 0.421-1.46-0.9-1-2.907-1.65-4.852-2.19-1.203-0.25-2.777-0.18-3.098 0.3-0.439 0.57 0.726 1.28 1.872 1.74 0.673 0.2 1.86 0.53 2.547 0.36-0.221-0.51-2.41-0.83-1.952-1.47 1.555 0 2.522 0.75 3.08 1.36 0.616 0.4 0.199 0.9-0.149 1.15-1.549 0.3-4.186-0.36-5.865-0.89-3.819-1.96-6.267-4.56-11.702-5.66-1.891-0.42-3.578-0.59-5.15-0.51-1.419 0.17-2.349 0.54-2.525 1.15l0.306 1.18c-1.199 0.03-2.662-0.28-3.495 0.08-0.186 0.32 0.731 0.63 1.29 0.92 2.002 0.65 4.875 1.14 6.902 1.08 0.394-0.11 0.213-0.43 0.361-0.62-0.838-0.58-2.904-0.71-3.064-1.42-0.027-0.55 0.863-0.78 1.81-0.9 6.239 0.86 10.577 3.23 14.551 5.61 1.646 0.63 3.498 0.86 5.204 0.96 1.546 0.03 2.59-0.43 3.508-0.77"/>
      <path id="path6586" fill="#fff" d="m67.328 535.5c-0.056-0.45-1.368-0.65-2.013-0.62 0.502 0.16 1.348 0.39 2.013 0.62"/>
    </g>
  </g>
<metadata><rdf:RDF><cc:Work><dc:format>image/svg+xml</dc:format><dc:type rdf:resource="http://purl.org/dc/dcmitype/StillImage"/><cc:license rdf:resource="http://creativecommons.org/licenses/publicdomain/"/><dc:publisher><cc:Agent rdf:about="http://openclipart.org/"><dc:title>Openclipart</dc:title></cc:Agent></dc:publisher><dc:title>Book and Pen</dc:title><dc:date>2007-11-09T04:56:00</dc:date><dc:description>an image from the US government EPA "Sunwise" program. I converted it from PDF format, and removed all the "sunwise" logos. the source link is here - http://www.epa.gov/sunwise/doc/guide.pdf</dc:description><dc:source>http://openclipart.org/detail/8051/book-and-pen-by-ryanlerch</dc:source><dc:creator><cc:Agent><dc:title>ryanlerch</dc:title></cc:Agent></dc:creator><dc:subject><rdf:Bag><rdf:li>book</rdf:li><rdf:li>clip art</rdf:li><rdf:li>clipart</rdf:li><rdf:li>epa</rdf:li><rdf:li>epa sunwise</rdf:li><rdf:li>externalsource</rdf:li><rdf:li>image</rdf:li><rdf:li>media</rdf:li><rdf:li>pen</rdf:li><rdf:li>public domain</rdf:li><rdf:li>read</rdf:li><rdf:li>school</rdf:li><rdf:li>svg</rdf:li><rdf:li>write</rdf:li></rdf:Bag></dc:subject></cc:Work><cc:License rdf:about="http://creativecommons.org/licenses/publicdomain/"><cc:permits rdf:resource="http://creativecommons.org/ns#Reproduction"/><cc:permits rdf:resource="http://creativecommons.org/ns#Distribution"/><cc:permits rdf:resource="http://creativecommons.org/ns#DerivativeWorks"/></cc:License></rdf:RDF></metadata></svg>
