<svg xmlns="http://www.w3.org/2000/svg" viewBox="0 0 247.2 73.2"><g id="Layer_2" data-name="Layer 2"><g id="Layer_1-2" data-name="Layer 1"><path d="M168.75,73.15q-82.95,0-165.91,0C.74,73.2,0,73,0,70.56Q.18,36.39,0,2.24C0,.29.57,0,2.35,0Q123.57.08,244.79.05c1.23,0,2.42-.53,2.41,1.85-.14,23.75-.08,47.5-.08,71.25H170.55c-.15-1.3-.9-3.08.29-3.75,1.51-.85.17-1.47.32-2.14a3.34,3.34,0,0,1,2.36-.57c2,2.52,2.75.33,3.69-1l1.12-.12c.21,2.89,2.26,1.23,3.64,1.44a1.68,1.68,0,0,1-1.25-1.44c1.22.09,2.39.06,3-1.24l.51,0c1.66,1.1,3.39.7,5.12.26l1.52-.49.32.78.25-.7,1.78.12c6,.33,11.92-.5,17.88.17,1.11.13.1-.77.12-1.19l2.36-.13c0,1.12.4,1.87,1.71,1.77s2.77-.2,3.09-2c2.05,1.66,4.77.58,6.77,1.38,4,1.59,5.72-1.36,8.19-3,1,.07,1.39-.39,1.32-1.34-.1-1.32-.19-2.64-.28-4l-.15-1.81c0-.63,0-1.25,0-1.87-.16-1.1,1.32-2.73-1-3.1-2.53-1.51.3-1.9.59-2.82,0-1,.35-2.1-.21-3.09-.13-1.74-.25-3.47-.37-5.21.5-.05.61-.41.61-.82q-.06-6.45-.14-12.9c.36-.09.95-.07,1-.28.78-1.69-1-6.93-2.65-8-.2-.68-.66-.5-1.12-.33-3.63-1.24-7.2.12-10.79.26-.41-.67-1.18-.49-1.76-.75-1.06-1.71-2.21.11-3.31-.09l-1.39-.38a.64.64,0,0,0-.17-.49c-.33-1-1.17-.47-1.79-.59-3.52-2.77-7.18-1-10.8-.33a.33.33,0,0,0-.48,0,.81.81,0,0,0-.74-1c-3.24-.41-6.51-1-9.57.8l-.61.06a1.31,1.31,0,0,0-.47-.12L188,11.78c-.31-1.13-1-.78-1.85-.61-2,.4-4.06.67-5.94-.54-.56-.82-1.31-.17-2-.24-.08-.64-.55-.78-1.09-.84-1.4-1.89-2.8-1.84-4.18,0-2.47.49-4.81-.76-7.27-.54l-7-1.88c-.41-1-1.19-.46-1.85-.42-.52-.75-1.81-1.5-2.05-1.07-.88,1.59-2.29.64-3.36,1-1.23-1.21-2.78-.54-4.19-.7a.92.92,0,0,0-.57-.06c-3.91-1.36-7.76-3-12.06-2.15l.05-.15c-.12-1.79-1.51-1.16-2.47-1.22-3.29-.21-6.59.51-9.78-1.42-1.63-1-4-.64-4.33,2.24a18,18,0,0,1-4.93,2.19c-8.3,2.55-8.54,2.88-8.35,11.29,0,.58.09,1.17.13,1.76l0,7.7c-.39,1.57.28,3.25-.6,4.82-.29.51.6.51,1,.61.39,1.18-1.14,1-1.29,1.8-.58,1.53-2.62.91-3.63,2.6,2.09-.7,2.2.2,2.78,1.77.82,2.24-1.07,4.2.08,6.2l-.27.67-1.75-.37c-.48-1.6-1.83-.91-2.7-.82a12.22,12.22,0,0,1-10.59-4.3A126.69,126.69,0,0,0,73.13,25.49L71,22a15.92,15.92,0,0,0-1.34-5l-2-1.27c0-.79-.64-1.14-1.13-1.6a4.53,4.53,0,0,0-5.4-1.7c-.58-.75-.84.14-1.26.23-1.15-.07-2.36.27-3.36-.72-2-2-3.69-4.38-6.71-5.09-.31-.07-.54-.75-.71-1.18-.88-2.29-7.42-4-8.93-2.14C39.06,5,37.37,5.84,36.45,7.16c-1.52,2.19-4.29,3.52-4.7,6.48-2.07,2.49-1.45,5.13-.45,7.79l.14,1.18c-2.77.07-2.08,1.93-1.85,3.55-2.4,3.24-5.84,5.41-8.61,8.27-1.39,1-3.34,1.32-4.25,3-1.55.33-1.69,2.35-4.06,2.69,3,1.37,3.64,4.48,6.53,5.09.77,1.28,1.47,4.09,3.25,2,2-2.31,4.9-3,7-5.26,1.51-1.61,4.25-2.19,6.19-4.25s5-3.61,7-6.12c2.75-.69.34-2.9,1.24-4.14.71-.16,1.51-.61,1.5-1.22-.07-3,2.29-3.85,4.38-4.93.94.63,2.12,1,2.21,2.43-2.82,2-3.08,3.78-.67,5.12,1,.55,2,1.22,3.27.78,1.48,1.73,4.27,2.84,2.92,5.95-.42.05-.65.22-.49.68a.94.94,0,0,0,0,.5c-.13.48.1.66.55.65.43,1.35-.54,2.86.47,4.15-1.37.18-2.73.68-4.1,0-1.88-.19-3.3.87-4.78,1.76-.72-.1-.73-1.33-1.69-1-.89-.15-1.79-.39-2.5.45-1.61.49-1.2,1.93-1.4,3-.43,2.38.45,4.71.33,7.08l-.3,2.29a.47.47,0,0,0-.44.1c-1-.06-2,.26-2.25,1.13s.91.65,1.48.84l.4.31.35-.57h0c1.28-.06.38,2,1.78,1.83-.44,2.18-1.75,4.24-.94,6.59-.58,2.94-2.74,3.08-5.13,2.93a14.87,14.87,0,0,0-5,.09,3.92,3.92,0,0,0,1.05,1.86c2.53,2.76,5.72,2.33,8.9,2.09h9.54c1.79,0,3.63.64,5.34-.41,1.26-.79,2.58,0,3.87-.14-.31-1.6-.61-3.2-.91-4.8a2.64,2.64,0,0,0,.14-.48c1.09.49.64,2.48,2.34,2.36C62.8,72.22,63,72.58,66.2,72.58c.49,0,1-.07,1.48-.1h9.54c2.66,0,5.34-.12,8,.13s4.88-.12,5.85-3c1.22-.55,3.64,1.34,3.6-1.75l4.19-.18.24,0,.23,0,.65.16c1.75,2,3.91,1.12,6,.82,3.61-.16,7.22-.52,10.81.19a10.07,10.07,0,0,0,2.36.91c1.63.17,3.5,1.35,4.79-.76a30.36,30.36,0,0,0,13.21.13,15.82,15.82,0,0,1,6.49-.23c2.71.52,5.58,1.27,8.17-.19,2.89-1.63,5.8-1.64,8.89-1,.65.14,1.25,1.1,1.87.5,1.83-1.75,3.84-.68,5.79-.55C167.94,69.55,169.85,71.23,168.75,73.15Z" style="fill:#f5f5f5"/><path d="M171.16,67.26c-.15.67,1.19,1.29-.32,2.14-1.19.67-.44,2.45-.29,3.75h-1.8c1.1-1.92-.81-3.6-.43-5.47Z" style="fill:#c6ced9"/><path d="M171.16,67.26l-2.84.42c-1.95-.13-4-1.2-5.79.55-.62.6-1.22-.36-1.87-.5-3.09-.66-6-.65-8.89,1-2.59,1.46-5.46.71-8.17.19a15.82,15.82,0,0,0-6.49.23A30.36,30.36,0,0,1,123.9,69a10.36,10.36,0,0,0-6.56-1c-.22,0-.4.59-.59.9-3.59-.71-7.2-.35-10.81-.19-1.76-1.9-4-.39-6-.82l-.65-.16c1.82-1.41,4.25.5,6-1.1,3.41,0,6.84-.2,10.23.09,3,.26,4.22-.66,3.73-3.63.54-1.25,1.06-.51,1.59,0l1.83.53,1.78.6a29.31,29.31,0,0,1,8.39,2.95c1.6,0,3.25.44,4.73-.53a34.25,34.25,0,0,0,13.79.08c.53-.15,1.39-.17,1.53-.49.3-.7-.53-.86-1-1.07-.78-.35-1.59-.62-2.39-.92-1.25-.85-2.42-1.92-4.12-1.74a16.42,16.42,0,0,0-6.56-3A147.67,147.67,0,0,0,125.38,53c-4.61-2.08-4.63-2-4.64,2.91h-1.5c-.08-1.48-.15-3-.22-4.38-2,.06-2.68,3.27-5,1.55a4.86,4.86,0,0,0,2.72-2.41H113c-5,.17-9.92.32-14.87.54-1,0-2.32-.58-2.6,1.12l-1.47,0-.26-.6L93.63,51c-.29-1.28.82-2.65-.25-3.89,0-.82-.33-1.25-1.21-1.13l-.6-.14-1.77-1.3C89.51,46.62,87,45.59,86.22,47c-2.78-2.2-5.33-4.68-8.39-6.53-.07-.78-.55-.84-1.17-.64a1,1,0,0,0-.06-.53,32,32,0,0,0-8.75-7.38L67,31.06c-.62-2.39-3.07-2.5-4.66-3.69-.61-1.77-2.17-2.21-3.73-2.67-.77-1-1.37-2.23-2.74-2.66-1.08-1.64-2.06-3.41-4.39-3.54l-.16-.2.2.17c1.26,2.32-1.83,1.18-1.94,2.41l-1.18-.12c-.14-1.45-1.31-1-2.07-1a93.3,93.3,0,0,1-10.95-.68l-1,0-2-.14c-.19-1.78.38-3.65-.65-5.33.41-3,3.18-4.29,4.7-6.48.92-1.32,2.61-2.2,3.75-3.59,1.51-1.85,8-.15,8.93,2.14.17.43.4,1.11.71,1.18,3,.71,4.72,3.1,6.71,5.09,1,1,2.21.65,3.36.72,0,.32,0,.63,0,.94-.68-.08-.59.31-.33.64s.65.44.71.38c.39-.38,0-.64-.24-.92h1.69c1.18.42.59,2.56,2.36,2.4.2.91-.53,2.23.63,2.67,1.37.53,1.29-1.16,2-1.73.23-.18.5-.32.75-.48.1.18.21.35.31.52A5.49,5.49,0,0,1,69,19.65c-1.24.55-1.87,1.31-.55,2.37,1.51,1.22,3.12,2.32,4.69,3.47A126.69,126.69,0,0,1,87.91,39.17a12.22,12.22,0,0,0,10.59,4.3c.87-.09,2.22-.78,2.7.82-1,1.07-.57,2.37-.57,3.59,0,1,.84.89,1.48.84s1.3-.21,1.1-1.21a24.54,24.54,0,0,1-.26-2.85l.27-.67c2.72-.06,5.55.26,7.59-2.21.17-.21.75-.1,1.14-.14.62,1.3,1.9,2.7,1.73,3.88-.4,2.7.88,2.83,2.85,2.7,1.13-.08,2.27,0,4.12,0-1.85-1.36-1.4-2.81-1.59-4.12l.67-1.7c1.1-1.08.26-2.46.59-3.65.79-2.8-1.51-5.53-.17-8.33q0-13.63.07-27.26c1.53-.59,2.36,1,3.65,1.17l.18.67c-1.59,1.77.15,3.1.61,4.6-.76.38-1.89.55-1.1,1.85,1,1.43,2.34,2.63,3.81.91,2.15-2.53-1.06-3.19-2.32-4.72,1.56-.5,3.54-.55,2.39-2.82a5,5,0,0,0,5.52-1l1.66-.12-.05.15c.42,1.57,1.72.92,2.7,1s2.15-.31,2.82.5c1.67,2,4.3.11,6,1.61l.5-1a.92.92,0,0,1,.57.06c1.13,1.85,2.58,1.75,4.19.7,1.07-.41,2.48.54,3.36-1,.24-.43,1.53.32,2.05,1.07l.5,35.5.75,0V8.94c1.06.09,1.48,1.57,2.73,1.25.08.71-.06,1.47.52,2.05.26.17.5.59.8.11.05-.08-.23-.37-.36-.57-.26-1.48.19-2,1.48-1,1.11.87.6-.47.95-.63L165.68,9c2.46-.22,4.8,1,7.27.54l4.18,0c.54.06,1,.2,1.09.84,0,.37-1.25.63-.38.95,1.93.72,1.67,2.16,1.65,3.62,0,1.06,0,2.12,0,3.17h.69v-7.5c1.88,1.21,3.93.94,5.94.54.83-.17,1.54-.52,1.85.61-1.15,2.55,0,5.28-.61,7.87a2.89,2.89,0,0,0-2,2.5,6.6,6.6,0,0,0-1.67.08c-.33.09-.14.47.09.64a1.09,1.09,0,0,0,1.72-.24c1.21.63-.32,2.88,1.78,3a74.4,74.4,0,0,1,.44,11.84H186.3c-4.13-1.76-5.09-1.17-4.88,3,.05,1,.14,2,.21,2.94-.52-.16-1.18.06-1.54-.55,0-1.57.06-3.14.07-4.71,0-1.9-1.39-2.08-2.67-1.77-1,.25-2.53-1.47-3.08,1.4-.42,2.19,1.37,3.31,1,5.07-.13.45-.93,1.07.25,1.21.87.1,1.76.08,2.65.11,0,.69,0,1.59-.88,1.57-3.27-.09-6.59.68-9.82-.45-.33-2,2-.7,2.35-1.8A1.51,1.51,0,0,0,170,43l1.09-.2c.69.33.94,1.66,2,1,.59-.36.49-1,0-1.44C173,36,173,36,167,36.26a1.22,1.22,0,0,0-1.45-.39l-4.18-.09c-.73,0-1.59,0-1.47,1,.31,2.46-.93,5.15,1.06,7.38-.49.56-1.52.93-1.22,1.78s1.36.44,2.05.45c.93,0,2,.31,2.79-.44l1.85-.08c3.51,1.28,7.2,0,11,.77-2.39.93-4.79-.37-6.85.9l-1.81.05c-1.17.2-2.52-.62-3.5.63-.16,1.76-1.38,2-2.76,1.78-3-.47-3.77.9-3.46,3.61.22,1.94.09,3.92.12,5.88-.15.92.57,1.94-.44,2.81-.22.19.32,1.13.75,1.07,2.17-.31,4.83,1.26,6.36-1.56,6.38-4.19,12.86-8.22,19.62-11.79a.74.74,0,0,0,.24-.11s0-.11,0-.17l-.28.3c-1.66,0-3.34,0-5-.15-1.38-.1-3,.66-4-1,.2-.21.4-.41.59-.62,3,0,6,0,9-.06.71,0,1.88.3,1.73-.94s-1.05-.37-1.64-.33A3.68,3.68,0,0,1,182,44.13l3-.2a2.4,2.4,0,0,0,.53.12c.06.56.13,1.12.2,1.68.69-.1.37-.71.55-1.07,1.11-.11,1.25-1.09,1.68-1.82,1.22-.62.63-1.74.64-2.62,0-6.3-.17-12.61,0-18.91.08-2.74-.77-5.59.6-8.25a1.31,1.31,0,0,1,.47.12.78.78,0,0,0,.94.6l2,.26c-.07.5.12.82.66.87a4.6,4.6,0,0,0,.52-.06,1.08,1.08,0,0,1-.48,1.24L190.94,15c.17,1.71,1.31,1.65,2.36,1.71a2.61,2.61,0,0,0,1.77,2.89V13.68l0,0,.26,0,.25,0c1.46-.58,2.9-.15,4.35.07,0,1.48,0,3-.05,4.43-.08,1.95.83,2.35,2.54,1.79a16.85,16.85,0,0,1-1.25-5.76A10,10,0,0,0,204.9,14c1.73-.56,3.3-.25,4.22,1.56,0,1.41,0,2.83.11,4.24,0,.43-1.46.46-.33,1.08a1.08,1.08,0,0,0,1.44-.59c.41.52.56,1.34,1.51,1.19l.6.62h-4.83c1.69.24,3.18,1.22,4.86,1.15q.14,7.11.28,14.22l-1.12.18-4-.1h-1.23c-4.76-.33-4.76-.33-4.74,4.28,0,.58,0,1.16,0,1.74-1.25-1.34-.53-3-.67-4.49-.1-1.12-.35-2.05-1.62-2-1.65,0-3.38-.5-4.94.51-1.32-.93-3.29-1.16-4-.12-1,1.5-.5,3.63-.17,5.47s1.92.89,2.94,1.2c-.18,1.56,0,2.59,1.81,1.21,1.23,2.28,3.14.74,5,1.08-1.17-1.3-3.77.72-3.74-2.12,1.37-1.21,2.72-2.57,4.3-.21.08.11.71-.15,1.09-.24l3.53.25c.14.66.66.95,1.19,1.24,1,2.1,2.85,1,4.31,1.06s1-1.33,1.11-2.23l0,0c.54,0,1-.11,1.12-.77l.91-.34.83-.09c.51.6.84,1.46,1.88,1.29.26.66,1.42.22,1.47,1.36-1.21.77-3.51-.44-4.39,2.33,4.19-2.57,8.45-.75,12.84-1.74-2.23-.69-4.25.17-6.38-.82,1.72-1.18,3.49-.06,4.8-1.06.87.09,1.9-.64,2.5.7.93,2.08,1-.72,1.64-.34l3,.06.62,1c.17.59.63.72,1.17.71-.29.92-3.12,1.31-.59,2.82.36,1-.7,2.52,1,3.1,0,.62,0,1.24,0,1.87l-2.76,0c-.93-.35-1.6-1.89-2.88-.6-.31,0-.53.1-.48.46.72,1.19,2.61,1.89,2.07,3.58-.42,1.3-1.84.46-2.81.62.7-1.14,1.08-2.45-.63-2.76s-1.16,1.25-1.17,2.13a2.64,2.64,0,0,1-1.07,2c-.49.58-2,.45-1.49,1.69a1.57,1.57,0,0,0,2.41.76,7.05,7.05,0,0,1,2.29-.32,11.69,11.69,0,0,1,5.63-.43c-2.47,1.61-4.19,4.56-8.19,3-2-.8-4.72.28-6.77-1.38l0-.44c0-.36.21-.92-.26-.93a.94.94,0,0,0-.91,1.13c-.56.56-1.21.37-1.86.23l.06-1.09A20.21,20.21,0,0,0,221,57.29l10.57-7.9h-18c-3-1.49-6,.77-9-.07-.07-.48-.15-1-.23-1.45l5.42-.3c-.45-.81-1.11-.56-1.66-.59-5.42-.24-10.87.48-16.28-.37-.68-.1-1.31.16-1.3.83,0,1,1,.64,1.6.8-.14,1,.74,1.13,1.37,1.45a.35.35,0,0,1-.22.31c-.82,1.52-2,.64-3,.41-.33-1.58-1.19-.56-1.88-.37-2.29,1.26-4.26,3.44-6.35,4.38-3.64,1.65-7.11,3.16-9.71,6.25-1.25.1-2.82-.34-3.49,1.07s1,1.76,1.69,2.49c-1.14.1-2.19,1-3.42.32-1.73-.92-2.93-.13-4.16,1.31a23.36,23.36,0,0,0,4.94-.17c1.91-.15,3.92-.88,5.71.5a2.1,2.1,0,0,1-.09.5A3.34,3.34,0,0,0,171.16,67.26Zm31.91-42.61,1.26-.34c-.06-.15-.07-.37-.17-.42a1,1,0,0,0-1.4.44c-.11.13-.33.34-.31.37C202.66,25,202.88,24.88,203.07,24.65Zm-47.48,20-.07-1.19,0-1.78a2.86,2.86,0,0,0,0-4.13c-.06-3.29-2.76-1.23-4.07-2-.42-1.11-.85-1.13-1.28,0-1.54-.29-.77,1.64-2,2-.31-3.23-2.45-2.47-4.62-2.32-3.57.24-3.86.32-3.4,3.77a27.36,27.36,0,0,0,1.08,3.91c-2.88.1-1.07-2.55-2.09-3.54-.58-4.17-.58-4.17-5-4.32-.11-.57-.32-1-1-1-.56,0-.72.46-.82.92-1.1,0-1,.82-1.17,1.61-.36,1.88.94,3.49.72,5.32-.29.9-1,1-1.81,1a5.68,5.68,0,0,1-.24-4.8c.84-2.09.06-3.85-2.87-3.43a12.87,12.87,0,0,1-3-.08c-1.31-.12-1.76.46-1.73,1.71,0,2.16,0,4.33,0,6.49,0,.83.35,1.36,1.17,1.27,1.59-.19,3,.56,4.55.65,1.72,1.86,3.28,1.63,4.12-.62,1.07,0,2.15,0,3.22,0,3.57.25,7.21-.63,10.73.56l.33,1.1h-13v.87c1.93,1.07,4.31-.49,6.17,1h-9.75v.73h8.61l-.56,2.07-5.67.34c.52.76,1.16,1.61.3,2.49s-.29,1.23.31,1.55c1.84,1,3.61,2.14,5.83,2.4s.67-2.3,2.15-2.4l3.1-.18c-.24.63-.31,1.48-.77,1.85-2.12,1.72-1.19,2.6.75,3.4,2.17.89,4.32,1.84,6.47,2.77,1,1,1.63-.34,2.46-.33,1.63.28,1.52,2.81,3.48,2.66v-.07c-.24.61.28.7.62.92,2.4-.11.81-1.8,1.1-2.75,0-1.36,0-2.72,0-4.09l.1-4.79c0-5,0-4-4.12-4-3.25,0-6.48.61-9.73.1l.06-1.95h6.64V47.7L148,47.52l.46-1c1.1-.45,1.14-1.52,1.46-2.43l2.77,0,1.73.07c.06.54-.21,1.29.49,1.49S155.53,45.07,155.59,44.61Zm41.93-25.44-.86-1.06c-.15.18-.45.37-.43.52.08.69.11,1.54,1.24,1.09.42-.15,1.23-.12,1.06-.67C198.28,18.24,197.9,19.36,197.52,19.17Zm-50.15,6.9c-.17-.42-.26-.95-.91-.81-.1,0-.25.41-.21.44a8.87,8.87,0,0,0,.86.61v6.94C147.64,30.83,148.36,28.42,147.37,26.07Zm61.27-.63c-.54-.32-.62-1.78-1.72-.67-.45-.42-.07-1.31-.85-1.58L205.34,25c-1.26.75-.56,2.34-1.94,3.31,1.56,0,1.75-.85,2-1.56.51.64.27,1.95,1.64,1.81,1.69-.19,2-1.32,2-2.76l1.7-1.22C209.7,24.3,208.89,24.27,208.64,25.44Zm-56.81-5.37c-.5.55-2.08-.59-1.79.92.22,1.09-.81,3.18,1.75,3,.25.52.54,1.27,1.18.54.39-.44-.2-.81-.66-1a4.36,4.36,0,0,1,0-3c.35-.13.89-.37.68-.7C152.62,19.29,152.17,19.69,151.83,20.07Zm31.32-2.73c-.56-.07-.53-1.22-1.32-.76a1,1,0,0,0-.39,1.28c.42.83,1,.74,1.64.16,2.15-.77,2.55-2.66,1.14-5.35C182.32,13.87,184.69,16,183.15,17.34ZM146,16.09c0-1.46.07-2.92-.08-4.37-.27-2.61-1.25-3-4.17-1.44,2.6-.33,3.19.84,3,2.76a4,4,0,0,0,.67,3.06,8.25,8.25,0,0,0-1.18.73c.51,1.22,1.64,1.08,2.66,1,.85-.07,1.55-.5,1.28-1.52C147.67,14.36,146.71,16.45,146,16.09Zm-18.49,33.3c-.57,0-.64-1.14-1.41-.7-.49.29-.46.83-.43,1.33.34,3.16,3.14,2.42,5,3.43C130.91,50.84,129.17,50.15,127.53,49.39Zm37.4-28c.11-.32.34-.91.33-.92-1.7-.68-3.48-2-4.9.43a2.12,2.12,0,0,0,.2,3.27,2.94,2.94,0,0,0,3.51.5C165.61,23.79,165.16,22.57,164.93,21.34Zm-41.6-4.6c-1.87,1.17-1.39,2.83-.66,4.29.34.69,1.26,2.09,2.21,1.27,1.3-1.13,2.8-.57,4.18-1.09-.19-1-.38-1.9-.57-2.83s1.66-1.82.35-2.77a2.77,2.77,0,0,0-3.25-.13C124.87,16,124.09,16.32,123.33,16.74Zm10,6.56c2.44.16,3.37-.68,2.58-2.95a2.76,2.76,0,0,1-.14-1.42c.54-2.56-1.77-2.49-3-2.65-2-.26-1,1.57-1.15,2.54-.11.77.19,1.64-.06,2.33C130.92,23.18,131.87,23.53,133.36,23.3Zm33.6-.85c.34,1.37-1,3.53,1.95,3.36,1.26-.07,2.13-.47,2.17-1.86,0-1.73-1.93-4.34-3.24-4.07C166.22,20.21,167.36,21.66,167,22.45Zm29.66-.94c-.09,0-.65.17-.7.4a13.61,13.61,0,0,0-.06,5.54c.15.81,1.17.45,1.83.48a1.25,1.25,0,0,0,1.2-1.34c-1-1.22-.08-2.76-.83-4C197.76,22.07,197.68,21.47,196.62,21.51Zm-6.87,3.08c-.2,1.86,1.11,2.55,2.51,2.52a2.11,2.11,0,0,0,2.17-2.28c-.05-2.28-2.09-1.73-3.24-2.12C189.87,22.28,189.72,23.55,189.75,24.59ZM48.13,17.89c1.54-.8.94-2.39,1.93-3.39.63-.64-.09-2.24-1.15-2.51s-2.68-.84-3.42.64c-.48.94-.44,2.27.94,2.62C48,15.64,48,16.81,48.13,17.89ZM139,33.63c.69-2.74.23-4.84.29-6.93.08-3-1.23-1.81-2.86-1.28C139.72,27.4,137.33,30.66,139,33.63ZM133,10.8c.27.77.77.28,1.18.26,1.31-.09,1.33.42.63,1.3-.23.3-1.15-.06-.77.6.14.23,1.25.86,1.74.18,1-1.37.39-3,0-4.29s-1.68-1.3-2.86-.5c.58,1,2,.21,2.19,1.42C134.63,10.63,133.23,9.61,133,10.8Zm16.21,15.88c5.56-.64,6.54,2.46,5.94,6.85C156,24.72,156.2,26.05,149.19,26.68Zm2.12-12c2.12.09,2.7-2.59,1.33-6.09C150.89,10.28,152.12,12.7,151.31,14.68Zm66.5,32.37c3.16.13,6.37,2.09,9.49,0ZM172.49,25.87l.85-.08c.16-2.24.67-4.5-.85-6.59Zm6.16-12.46c-1.61-.22-3.3-.78-3.38.47-.12,1.59-.38,3.21-.48,4.86,1.5-.56,1.34-1.73,1.11-2.79C175.51,14.07,177.4,14.38,178.65,13.41Zm28.13,23.31c.47-4.27.47-4.27-.84-6.2C205.71,34.62,205.71,34.62,206.78,36.72Zm-20.26-2.28c-.09-2,.81-4.12-.86-6.65C185.48,30.54,185.16,32.57,186.52,34.44ZM153.41,17.55c2,2,1.32,4.62,1.84,7.43C156.2,19.14,155.84,17.65,153.41,17.55Zm-11,5.73c1.31,1.44,2.75,1.31,3.6.38s.31-2.33-1-4C145.64,22.45,144.8,23.48,142.39,23.28Zm30.43-11.83c-.13,2-1,4.13.56,6.05Zm32.11,9c.15-1,.8-2.11-.47-3.16A2.58,2.58,0,0,0,204.93,20.46Zm-76.47,48.2a2.22,2.22,0,0,0,2.28,0A2.4,2.4,0,0,0,128.46,68.66ZM143.8,18.85c.07-.17.23-.37.18-.49s-.3-.15-.47-.22c-.07.16-.23.37-.19.48S143.63,18.78,143.8,18.85Zm20.2-5.2c-.19-.18-.36-.44-.59-.53s-.61,0-.39.41a3,3,0,0,0,.63.59Zm37.69,32.63.2-.15-.17-.19-.27.25ZM182.24,15.09l-.09.14.13,0Z" style="fill:#868681"/><path d="M77.83,40.46c3.06,1.85,5.61,4.33,8.39,6.53,1,1.94,2.2,2.88,4.18,1.14l1.19.61c0,1.38-.08,2.78,2,2.23l.18.75c-1.21.41-1.07.84,0,1.28.09,1.18.19,2.36.29,3.54.17,3.77-.66,7.59.56,11.32,0,3.09-2.38,1.2-3.6,1.75,2.25-5.56,1.58-8.13-2.94-11.9-1-.84-2.17-1.92-3.33-1.63-3,.74-6.32.44-9,2.27-1.14.76-2.24,1.67-.59,2.85.87.63.78,1.14.58,2-.77,3.29.07,6.35,1.5,9.31H67.68c.39-2.13,2.14-3.86,1.88-6.18,2.85-.37,2.52-2.85,2.42-4.48-.15-2.63-2.54-.46-3.72-1.18-3.71-3.33-7.91-4.54-12.77-3-1.61.51-3.55,1.26-3.81,2.78-.73,4.09-3.26,8.61,1.61,12H43.75c.11-.45.12-1.23.34-1.3,2.76-.84,1.7-2.4.83-3.94l-1-1.73c-.81-2.35.5-4.41.94-6.59,1.15.4,2.16.85,2,2.41a6.88,6.88,0,0,0,.39,2c.18.81,0,2.13,1.23,1.9,1.11-.2.61-1.47.59-2.25a26.37,26.37,0,0,0-.47-3.41,10.33,10.33,0,0,0,3.51-4.16c.72-1.76,4.92-2.8,6.54-1.89l7.83,0A1.07,1.07,0,0,0,67.66,53L77.83,53a9.29,9.29,0,0,0,6.59,0l2.32-.11.69-.37c.08-1.3-.09-2.28-1.71-1.27a2.41,2.41,0,0,1-3.15,0l0-.69C83.07,48,82,46.3,80,44.82c-1.46-1.07-3.16-2-3.73-4a2,2,0,0,0,.35-.37Z" style="fill:#080806"/><path d="M86.74,52.9,84.42,53a9,9,0,0,0-6.59,0L67.66,53c.07-.65,0-1.72.92-1.39s1.3,0,1-.38c-1.64-2.09,1-1.52,1.59-2.23-1.57-1.12-3.09-.42-4.51-.62l-2.18,0a3.31,3.31,0,0,0-.55,0l.15-.59V45.76l-.1-1c-.27-1-1.07-.63-1.71-.68-1.64-.15-1.07,1-1.09,1.82-1,2.47.9,5.9-2.52,7.59-1.62-.91-5.82.13-6.54,1.89a10.33,10.33,0,0,1-3.51,4.16c-1.44-.2-1.2-1.3-1.24-2.27-.06-1.46.28-3-.62-4.32a16.28,16.28,0,0,0,.53-2.55c0-.58.46-1.46-.46-1.75a3.08,3.08,0,0,0-2-.14c-.86.37-.29,1.15-.12,1.77a4.32,4.32,0,0,1,0,2.59l-.83.1c.12-2.37-.76-4.7-.33-7.08.2-1.11-.21-2.55,1.4-3,1,.86,1.89.88,2.5-.45,1-.29,1,.94,1.69,1,1.39.9,2.84.46,4.29.23,2,.69,3.39-.31,4.76-1.51l2.29.07c2.22.09,1.3-1.75,1.65-2.76.63-1.8-.82-4.11,1.38-5.54.51,1.28-1.48,3.91,2,3.61.73-.07,1.54.21,2.14-.47l.1-.83c2.62,1.32,4.57,3.89,7.77,4.14l.8.46c.58,1.94,2.28,2.91,3.74,4,2,1.48,3.06,3.2,2.58,5.71-1.21.31-2.17.2-2.36-1.32,0-.45,0-1.23-.64-1.1-2.49.55-5.15-.29-7.63.89,1.5.16,1.7,2.16,3.94,1.81a19.08,19.08,0,0,1,6.67.41,2.41,2.41,0,0,0,3.15,0c1.62-1,1.79,0,1.71,1.27Z" style="fill:#868681"/><path d="M213.8,14.78l1.39.38a.8.8,0,0,0,.28.37v2.72c.69-.7.47-2,1.74-1.37,1.2.07.35-1.49,1.29-1.63.58.26,1.35.08,1.76.75-.23,1,.84,1.27,1.19,1.94a3.13,3.13,0,0,1-1.11,2.23,1.16,1.16,0,0,0,.15,1.61,1.84,1.84,0,0,0,1.37.22c1-.24.23-.94.26-1.43,0-.68,0-1.37,0-2.06,1-.36,2.23-.28,3-1.27l.57.08.57.83h0c-2.75.47-.92,2.26-.9,3.55l.81-1.75a1.86,1.86,0,0,0,.42.37c.45.7.82.5,1.16-.1,1.71-.81.62-2.29.84-3.46.87-.26,2.15.45,2.52-1,.46-.17.92-.35,1.12.33-.13.6.06,1.28-.52,1.75-1,.25-.56,1.14-.73,1.76-1.84,0-2.38.81-1.44,2.45.25.66.56,1.26,1.43,1.1s.67-1,.8-1.61c1-.08,1.9.07,1.43,1.43a1,1,0,0,0,.63,1.42q.07,6.45.14,12.9c0,.41-.11.77-.61.82-.57.31-1.52-.42-1.82.64l-2.47,0c-1.72-.85-3.4-1.51-4.15,1.14h-.93c.16-2.18-1.38-1.9-2.75-1.89-2.51,0-1.12,1.95-1.52,3s-.44,2.14-1.72,2.49c0-.38-.21-.81-.09-1.14,1.75-4.67,1.76-4.67-3-4.76L214,36.8q-.07-3.78-.16-7.57l1-.72c1.9.56,3.57.69,3.93-1.92.34-2.38-1.53-1.95-2.82-2.26,0-1,1.39-1.22,1.23-2.29.51-1.33,2-3-1.16-2.94l-.63.62,0,1.74-1.16-.62C213.08,18.89,213.93,16.8,213.8,14.78Zm18.73,21.55c.51-5.54.51-5.54-3-5C233.39,31.05,231.64,34.11,232.53,36.33Zm-5.68-10a5.31,5.31,0,0,0-.07,1.21c.08.43.21,1.21.8.66S227.61,27,226.85,26.32Zm-5.85,1a2,2,0,0,0-.09.6c.06.31.22.32.36,0a.49.49,0,0,0,0-.29A1.78,1.78,0,0,0,221,27.29Z" style="fill:#868681"/><path d="M120.22,3.14q0,13.63-.07,27.26c-2.12-.11-2.15-1.66-2.23-3.18-.2-3.89-1.31-5.09-5.37-5.77-1.17-.14-3.08-2.15-2.92,1.12-.94-.11-1.09.92-1.9,1.33.46-2.62-1.61-3.78-2.84-5.41,0-.59-.12-1.18-.13-1.76-.19-8.41,0-8.74,8.35-11.29A18,18,0,0,0,118,3.25C118.77,3.32,119.42,1.79,120.22,3.14Zm-4.55,10.55h.26v-7h-.26Zm.17,4.61c-.09.16-.24.3-.25.45a1.18,1.18,0,0,0,.21.46c.08-.14.23-.28.24-.42S115.92,18.47,115.84,18.3Z" style="fill:#282622"/><path d="M43.85,27.53c-.9,1.24,1.51,3.45-1.24,4.14-.33-2-1.92-1.16-3.06-1.32l-.25-.13.25.14c-.58,1.7-2.46,1.27-3.65,2.16-5.17,3.92-10,8.29-15.93,11.22a1.7,1.7,0,0,0-.77,1.51c-2.89-.61-3.52-3.72-6.53-5.09,2.37-.34,2.51-2.36,4.06-2.69,1.83-.44,4-.37,4.25-3,2.77-2.86,6.21-5,8.61-8.27l1,0c.85.58,1.59.83,1.79-.58l0,0c.9.67,2.22-1.44,2.78.21.94,2.72,1.61.91,2.41,0,.23.4.38,1.1.93.22A4.34,4.34,0,0,0,39,23.22l.64-.79c.93.24,2,.19,2.4,1.37H39.87c.49.86.8,1.71,1.68,1.47.6-.16.4-1,.41-1.51l1.22.24C42.9,25.27,43.69,26.34,43.85,27.53Z" style="fill:#868681"/><path d="M112.55,21.45c4.06.68,5.17,1.88,5.37,5.77.08,1.52.11,3.07,2.23,3.18-1.34,2.8,1,5.53.17,8.33-.33,1.19.51,2.57-.59,3.65-.68-2,.78-4.34-1-6.15.55,2.61-1.4,5.32.34,7.85.19,1.31-.26,2.76,1.59,4.12-1.85,0-3-.06-4.12,0-2,.13-3.25,0-2.85-2.7.17-1.18-1.11-2.58-1.73-3.88l.52-1.81.62-.57,0,0c1.28-1.23.27-2.78.57-4.15.36-1.64-.09-2.63-2.13-2.26s-3.76,0-5-1.76c-.79-1.55,1.07-4-1.72-4.88l0-7.7c1.23,1.63,3.3,2.79,2.84,5.41.81-.41,1-1.44,1.9-1.33C111,23.22,111.73,22.21,112.55,21.45ZM109.1,32.14c.4-1.28.33-2.52,1.36-3.2.34-.23.84-.71.27-1.17a1.74,1.74,0,0,0-1.1-.22c-.53,0-1.11.47-.82.9C109.59,29.59,108.17,30.68,109.1,32.14Z" style="fill:#080806"/><path d="M77.22,72.48c-1.43-3-2.27-6-1.5-9.31.2-.83.29-1.34-.58-2-1.65-1.18-.55-2.09.59-2.85,2.73-1.83,6-1.53,9-2.27,1.16-.29,2.32.79,3.33,1.63,4.52,3.77,5.19,6.34,2.94,11.9-1,2.88-3.14,3.25-5.85,3S79.88,72.51,77.22,72.48Zm4.26-10.56c-.62.47-2.06.36-1.28,1.81a2.26,2.26,0,0,0-1.68,3c.53,1.62,1.46,3.48,3.16,3.72,1.47.21,3.92,1.63,4.58-1.43,2.11-.92,3-3.93,1.94-6.26-.84-1.88-2.46-2.49-4.27-2.63C82.77,60.05,81.47,60.2,81.48,61.92Z" style="fill:#282622"/><path d="M69.56,66.3c.26,2.32-1.49,4-1.88,6.18-.5,0-1,.09-1.48.1-3.19,0-3.4-.36-2.13-3.59,1.81-.34,1.86-1.63,1.66-3,.07-.66.37-1.37-.44-1.82C63.38,61,61.67,60.47,58.74,62l-2.45.8a.56.56,0,0,1-.5.27c-.33.06-.51.22-.42.58l.2,0,.19-.06-.11.61v-.07c-2.34,4.91-1.73,6,3,7.88-1.71,1-3.55.37-5.34.41-4.87-3.41-2.34-7.93-1.61-12,.26-1.52,2.2-2.27,3.81-2.78,4.86-1.56,9.06-.35,12.77,3C68.33,62.61,70.88,64,69.56,66.3Z" style="fill:#282622"/><path d="M39.55,30.35c1.14.16,2.73-.69,3.06,1.32-1.94,2.51-4.92,3.95-7,6.12S31,40.43,29.44,42c-2.09,2.23-5,3-7,5.26-1.78,2-2.48-.77-3.25-2A1.7,1.7,0,0,1,20,43.74c5.88-2.93,10.76-7.3,15.93-11.22,1.19-.89,3.07-.46,3.65-2.16Z" style="fill:#6c6c68"/><path d="M172.34,60.67c2.6-3.09,6.07-4.6,9.71-6.25,2.09-.94,4.06-3.12,6.35-4.38.1,3.16.21,6.33.31,9.49.13,1.68-.6,3.46.68,5-1.73.44-3.46.84-5.12-.26.9-1.78,1.5-3.37-1.58-3.36-.6,0-1.43-.34-1.1-1.34.17-.5.24-1-.44-1.11s-1,.49-1,1.13-.05,1.17-.07,1.76C177.51,61.05,174.83,61.9,172.34,60.67Zm15.49-6.36c-.81,1.81.24,4.29-2.67,5.3-.73.25,1.08.54,1,1.43-.08.52.06,1.33.91,1.09a1.45,1.45,0,0,0,.77-1.12C187.87,58.78,187.83,56.54,187.83,54.31Z" style="fill:#080806"/><path d="M112.47,39.83,112,41.64c-.39,0-1-.07-1.14.14-2,2.47-4.87,2.15-7.59,2.21-1.15-2,.74-4-.08-6.2-.58-1.57-.69-2.47-2.78-1.77,1-1.69,3-1.07,3.63-2.6.72,2.28,2.65,1.61,4.23,1.67,4.43.14,5,.59,4.9,4.15l0,0C112.85,39.42,112.2,39.13,112.47,39.83Z" style="fill:#6c6c68"/><path d="M60.46,42.23l-2.29-.07a1.38,1.38,0,0,0-.17-.52c-1-1.29,0-2.8-.47-4.15.54-.82-.4-.41-.55-.65a.94.94,0,0,1,0-.5l.49-.68c1.35-3.11-1.44-4.22-2.92-5.95a4.1,4.1,0,0,0-.32-1.13c-.44-.71-1.9-.84-1-2.27s1.57-.41,2.47-.16c1.29.36,2.54.22,2.92-1.45,1.56.46,3.12.9,3.73,2.67-.12,2-2.5,3.13-1.87,5.35-1.59,1.75-1.57,4.43,0,5.41C61.18,39.5,60.47,40.86,60.46,42.23Z" style="fill:#080806"/><path d="M94.65,67.86c-1.22-3.73-.39-7.55-.56-11.32h1.53c.1,1.2-.11,2.49,1.85,2.48,1.07,0,.39,1,.43,1.58-2.53.18-2.79.92-1.72,5.2,1.41-1.32,3.35-1.76,4.5-3.32,1.42-.53,1.46-3,3.61-2.5l6-4.39c0,1.82-1.17,2.5-2.1,3.48-2.62,2.76-6.52,3.85-8.83,7-.76.35-.52,1-.57,1.65Z" style="fill:#868681"/><path d="M44,65.48l1,1.73c.87,1.54,1.93,3.1-.83,3.94-.22.07-.23.85-.34,1.3-3.18.24-6.37.67-8.9-2.09A3.92,3.92,0,0,1,33.8,68.5a14.87,14.87,0,0,1,5-.09C41.21,68.56,43.37,68.42,44,65.48Z" style="fill:#282622"/><path d="M158.05,8.94V42.21l-.75,0-.5-35.5c.66,0,1.44-.62,1.85.42Z" style="fill:#080806"/><path d="M58.63,72.05c-4.71-1.93-5.32-3-3-7.88.16.67.83.43,1.22.7-.3.69-1.07,1.49.41,1.79,1.24,2,2.8.94,4.31.45l.91,4.8C61.21,72,59.89,71.26,58.63,72.05Z" style="fill:#c6ced9"/><path d="M227.41,58.22c1-.16,2.39.68,2.81-.62.54-1.69-1.35-2.39-2.07-3.58l.48-.46c1.28-1.29,2,.25,2.88.6.16,1.41.31,2.82.46,4.24.27-1.46.93-2.34,2.45-2.41.09,1.32.18,2.64.28,4,.07.95-.35,1.41-1.32,1.34a11.69,11.69,0,0,0-5.63.43c-.16-.27-.32-.55-.49-.82l-.15-1.21a1.19,1.19,0,0,0,0-.42Z" style="fill:#080806"/><path d="M58.61,24.7c-.38,1.67-1.63,1.81-2.92,1.45-.9-.25-1.61-1.22-2.47.16s.56,1.56,1,2.27a4.1,4.1,0,0,1,.32,1.13c-1.26.44-2.3-.23-3.27-.78-2.41-1.34-2.15-3.16.67-5.12A11,11,0,0,0,55.87,22C57.24,22.47,57.84,23.67,58.61,24.7Z" style="fill:#6c6c68"/><path d="M43.86,53l.83-.1,2.06.08c.9,1.34.56,2.86.62,4.32,0,1-.2,2.07,1.24,2.27A26.37,26.37,0,0,1,49.08,63c0,.78.52,2-.59,2.25-1.26.23-1.05-1.09-1.23-1.9a6.88,6.88,0,0,1-.39-2c.18-1.56-.83-2-2-2.41-1.4.16-.5-1.89-1.78-1.83l.12-1.18c.4-.07.93.27,1.14-.36l-.81-.26Z" style="fill:#6c6c68"/><path d="M113.12,39.24c.1-3.56-.47-4-4.9-4.15-1.58-.06-3.51.61-4.23-1.67.15-.8,1.68-.62,1.29-1.8.47-.07,1,0,1.29-.55,1.23,1.79,3.05,2.1,5,1.76s2.49.62,2.13,2.26C113.39,36.46,114.4,38,113.12,39.24Z" style="fill:#868681"/><path d="M65.73,65.94c.2,1.42.15,2.71-1.66,3-1.7.12-1.25-1.87-2.34-2.36-.76,0-1.19-.34-1.18-1.14.85-.22,2,.32,2.57-1.17-1.59.3-2.35-1.34-3.81-1.28l-.63-.12.06-.92c2.93-1.53,4.64-1,6.55,2.12C65.3,64.76,65.08,65.45,65.73,65.94Z" style="fill:#868681"/><path d="M213.8,14.78c.13,2-.72,4.11.43,6.06a5.75,5.75,0,0,0-.26,4.42c0,.63,0,1.26,0,1.89a2.88,2.88,0,0,0-.13,2.08q.09,3.8.16,7.57a21.49,21.49,0,0,0-.1,6.15l-.91.34q-.12-2.94-.25-5.87l-.27-14.22,0-1.15-.6-.62,0-.62c1.35-1.82.24-4,.79-5.9l1-.62A.64.64,0,0,1,213.8,14.78Z" style="fill:#282622"/><path d="M120.22,3.14c-.8-1.35-1.45.18-2.18.11C118.37.37,120.74,0,122.37,1c3.19,1.93,6.49,1.21,9.78,1.42,1,.06,2.35-.57,2.47,1.22L133,3.77c-3,0-6.13-.85-9.09.54C122.58,4.14,121.75,2.55,120.22,3.14Z" style="fill:#c6ced9"/><path d="M173.61,66.19c-1.79-1.38-3.8-.65-5.71-.5a23.36,23.36,0,0,1-4.94.17c1.23-1.44,2.43-2.23,4.16-1.31,1.23.66,2.28-.22,3.42-.32a41.9,41.9,0,0,0,9.49-.6l3.51.44.22.22c-.65,1.3-1.82,1.33-3,1.24a1.37,1.37,0,0,0-2.39,0l-1.12.12C175.89,65.07,174.84,66.23,173.61,66.19Z" style="fill:#282622"/><path d="M187.72,37.44a74.4,74.4,0,0,0-.44-11.84,9.12,9.12,0,0,0,.08-6c.6-2.59-.54-5.32.61-7.87l1.2,1.28c-1.37,2.66-.52,5.51-.6,8.25-.2,6.3,0,12.61,0,18.91,0,.88.58,2-.64,2.62Z" style="fill:#080806"/><path d="M211.26,63.2c0,.42,1,1.32-.12,1.19-6-.67-11.92.16-17.88-.17,0-.35.08-.7.13-1a3.22,3.22,0,0,1,2.27-.58c1.35.94,2.86.25,4.29.4l11.23-.05Z" style="fill:#c5bcb9"/><path d="M233.77,24.37a1,1,0,0,1-.63-1.42c.47-1.36-.38-1.51-1.43-1.43l-.06-3.7c.58-.47.39-1.15.52-1.75,1.66,1.09,3.43,6.33,2.65,8C234.72,24.3,234.13,24.28,233.77,24.37Z" style="fill:#a1a8ac"/><path d="M209.12,15.51c-.92-1.81-2.49-2.12-4.22-1.56a10,10,0,0,1-3.77.29l-.09-.87c3.62-.66,7.28-2.44,10.8.33-.28.91-1.87.5-1.77,1.77Z" style="fill:#a1a8ac"/><path d="M55.87,22a11,11,0,0,1-3.93,1.77c-.09-1.39-1.27-1.8-2.21-2.43a.69.69,0,0,0-.15-.5c.11-1.23,3.2-.09,1.94-2.41l0,0C53.81,18.63,54.79,20.4,55.87,22Z" style="fill:#080806"/><path d="M49.58,20.88a.69.69,0,0,1,.15.5c-2.09,1.08-4.45,1.88-4.38,4.93,0,.61-.79,1.06-1.5,1.22-.16-1.19-1-2.26-.67-3.53,1.43-1.58,2.53-3.67,5.22-3.25Z" style="fill:#a1a8ac"/><path d="M225.06,17.24c-.75,1-2,.91-3,1.27l-.63-.57c-.35-.67-1.42-.92-1.19-1.94,3.59-.14,7.16-1.5,10.79-.26-.37,1.48-1.65.77-2.52,1C227.36,16.83,226.09,16.17,225.06,17.24Z" style="fill:#a1a8ac"/><path d="M146.63,6l-.5,1c-1.74-1.5-4.37.41-6-1.61-.67-.81-1.86-.38-2.82-.5s-2.28.53-2.7-1C138.87,2.94,142.72,4.59,146.63,6Z" style="fill:#a1a8ac"/><path d="M193.39,63.17c0,.35-.09.7-.13,1l-1.78-.12c-.14-.41-.31-.57-.57-.08l-1.52.49c-1.28-1.52-.55-3.3-.68-5l.92,0c0,2.39,1.8,1.6,3.06,1.81C192.67,62,192.62,62.74,193.39,63.17Z" style="fill:#868681"/><path d="M60.55,65.49c0,.8.42,1.13,1.18,1.14a2.64,2.64,0,0,1-.14.48c-1.51.49-3.07,1.56-4.31-.45,0-.62.47-1.37-.41-1.79-.39-.27-1.06,0-1.22-.7v.07l.58-.57.06-.87,2.45-.8-.06.92,0,2c.47.56,1.11.47,1.73.43Z" style="fill:#6c6c68"/><path d="M193.81,14.85a4.6,4.6,0,0,1-.52.06c0-.64.16-1.39-.74-1.64l-1.58,0-.72-.13c3.06-1.81,6.33-1.21,9.57-.8a.81.81,0,0,1,.74,1l-.66.42c-1.45-.22-2.89-.65-4.35-.07-.17-.55-.33-.39-.51,0l0,0C194.23,13.62,193.86,14.07,193.81,14.85Z" style="fill:#a1a8ac"/><path d="M64.09,16.13c-1.77.16-1.18-2-2.36-2.4-.19-.42-.38-.84-.56-1.26a4.53,4.53,0,0,1,5.4,1.7C65.43,14.43,65.42,16.11,64.09,16.13Z" style="fill:#c5c292"/><path d="M116.75,68.85c.19-.31.37-.88.59-.9a10.36,10.36,0,0,1,6.56,1c-1.29,2.11-3.16.93-4.79.76A10.07,10.07,0,0,1,116.75,68.85Z" style="fill:#6c6c68"/><path d="M210.07,15.47c-.1-1.27,1.49-.86,1.77-1.77.62.12,1.46-.42,1.79.59l-1,.62c-1.63,1.79-.38,3.95-.79,5.9l0,.62c-.95.15-1.1-.67-1.51-1.19Z" style="fill:#6c6c68"/><path d="M158.05,8.94l.6-1.79,7,1.88-1.51,1.16a2.37,2.37,0,0,0-3.39,0C159.53,10.51,159.11,9,158.05,8.94Z" style="fill:#a1a8ac"/><path d="M31.75,13.64c1,1.68.46,3.55.65,5.33a1,1,0,0,0-.58,1.32c-.13.4.05.94-.52,1.14C30.3,18.77,29.68,16.13,31.75,13.64Z" style="fill:#6c6c68"/><path d="M231.48,38.73c.3-1.06,1.25-.33,1.82-.64.12,1.74.24,3.47.37,5.21-1.48.33-.82,1.52-1,2.38-.21-.34-.41-.69-.62-1l-.48-1.24Z" style="fill:#080806"/><path d="M180.08,61.33c0-.59,0-1.18.07-1.76s.22-1.23,1-1.13.61.61.44,1.11c-.33,1,.5,1.34,1.1,1.34,3.08,0,2.48,1.58,1.58,3.36l-.51,0-.21-.22c-.07-2.27-1.85-2.44-3.48-2.79Z" style="fill:#282622"/><path d="M199.9,13.78l.66-.42a.33.33,0,0,1,.48,0l.09.87A17.1,17.1,0,0,0,202.39,20c-1.71.56-2.62.16-2.54-1.79C199.91,16.73,199.88,15.26,199.9,13.78Z" style="fill:#6c6c68"/><path d="M73.13,25.49C71.56,24.34,70,23.24,68.44,22c-1.32-1.06-.69-1.82.55-2.37.8.68.3,2.46,2,2.37Z" style="fill:#6c6c68"/><path d="M64.09,16.13c1.33,0,1.34-1.7,2.48-2,.49.46,1.11.81,1.13,1.6-.09.27-.17.55-.25.82-.25.16-.52.3-.75.48-.69.57-.61,2.26-2,1.73C63.56,18.36,64.29,17,64.09,16.13Z" style="fill:#a1a8ac"/><path d="M103,44.66a24.54,24.54,0,0,0,.26,2.85c.2,1-.42,1.15-1.1,1.21s-1.48.19-1.48-.84c0-1.22-.43-2.52.57-3.59Z" style="fill:#080806"/><path d="M106.57,31.07c-.26.57-.82.48-1.29.55-.43-.1-1.32-.1-1-.61.88-1.57.21-3.25.6-4.82C107.64,27,105.78,29.52,106.57,31.07Z" style="fill:#282622"/><path d="M234.42,56c-1.52.07-2.18.95-2.45,2.41-.15-1.42-.3-2.83-.46-4.24l2.76,0Z" style="fill:#6c6c68"/><path d="M213.62,63.07l-2.36.13-.08-.26c.22-1-2.5-1.5-.74-2.71,1.52-1,2.45.27,3.18,1.49v1.05A1,1,0,0,0,213.62,63.07Z" style="fill:#868681"/><path d="M215.36,62.87c.65.14,1.3.33,1.86-.23l1.17-.2,0,.44c-.32,1.76-1.7,1.85-3.09,2s-1.7-.65-1.71-1.77a1,1,0,0,1,0-.3Z" style="fill:#c6ced9"/><path d="M180.18,10.63v7.5h-.69c0-1.05,0-2.11,0-3.17,0-1.46.28-2.9-1.65-3.62-.87-.32.34-.58.38-.95C178.87,10.46,179.62,9.81,180.18,10.63Z" style="fill:#6c6c68"/><path d="M98.84,67.68c0-.6-.19-1.3.57-1.65,2,.2,4-.55,5.93.55-1.78,1.6-4.21-.31-6,1.1l-.23,0Z" style="fill:#282622"/><path d="M30.61,26.18l-1,0c-.23-1.62-.92-3.48,1.85-3.55l.89.05a2.11,2.11,0,0,0,.05,3l0,0C31.77,25.7,31,25.36,30.61,26.18Z" style="fill:#6c6c68"/><path d="M53.41,43.67c-1.45.23-2.9.67-4.29-.23,1.48-.89,2.9-1.95,4.78-1.76C53.73,42.34,53.57,43,53.41,43.67Z" style="fill:#c5bcb9"/><path d="M53.41,43.67c.16-.67.32-1.33.49-2,1.37.64,2.73.14,4.1,0a1.38,1.38,0,0,1,.17.52C56.8,43.36,55.37,44.36,53.41,43.67Z" style="fill:#c6ced9"/><path d="M100,67.84c2,.43,4.22-1.08,6,.82C103.87,69,101.71,69.83,100,67.84Z" style="fill:#a34a58"/><path d="M178.33,65.53a1.37,1.37,0,0,1,2.39,0A1.68,1.68,0,0,0,182,67C180.59,66.76,178.54,68.42,178.33,65.53Z" style="fill:#c5bcb9"/><path d="M173.61,66.19c1.23,0,2.28-1.12,3.6-.54-.94,1.37-1.64,3.56-3.69,1A2.1,2.1,0,0,0,173.61,66.19Z" style="fill:#c5bcb9"/><path d="M71,22c-1.72.09-1.22-1.69-2-2.37a5.49,5.49,0,0,0-1.23-2.54L69.67,17A15.92,15.92,0,0,1,71,22Z" style="fill:#282622"/><path d="M151.39,6.71c-1.61,1-3.06,1.15-4.19-.7C148.61,6.17,150.16,5.5,151.39,6.71Z" style="fill:#a1a8ac"/><path d="M21,34.43c-.21,2.67-2.42,2.6-4.25,3C17.64,35.75,19.59,35.47,21,34.43Z" style="fill:#6c6c68"/><path d="M177.13,9.55l-4.18,0C174.33,7.71,175.73,7.66,177.13,9.55Z" style="fill:#c6ced9"/><path d="M218.5,15.25c-.94.14-.09,1.7-1.29,1.63a1.56,1.56,0,0,0-1.74-1.35.8.8,0,0,1-.28-.37C216.29,15.36,217.44,13.54,218.5,15.25Z" style="fill:#c6ced9"/><path d="M234.32,52.31c-1.73-.58-.67-2.08-1-3.1C235.64,49.58,234.16,51.21,234.32,52.31Z" style="fill:#6c6c68"/><path d="M43.23,55.88l-.12,1.18h0l-.75.26c-.57-.19-1.7.05-1.48-.84s1.26-1.19,2.25-1.13A.52.52,0,0,1,43.23,55.88Z" style="fill:#282622"/><path d="M232.71,45.68c.14-.86-.52-2,1-2.38.56,1,.24,2.05.21,3.09C233.34,46.4,232.88,46.27,232.71,45.68Z" style="fill:#6c6c68"/><path d="M47.43,42.4c-.61,1.33-1.48,1.31-2.5.45C45.64,42,46.54,42.25,47.43,42.4Z" style="fill:#c5bcb9"/><path d="M32.33,22.66l-.89-.05-.14-1.18c.57-.2.39-.74.52-1.14C32.37,21,33.44,21.6,32.33,22.66Z" style="fill:#080806"/><path d="M61.17,12.47c.18.42.37.84.56,1.26H60l-.14-.1c0-.31,0-.62,0-.94C60.33,12.61,60.59,11.72,61.17,12.47Z" style="fill:#806947"/><path d="M69.67,17l-1.91.07c-.1-.17-.21-.34-.31-.52.08-.27.16-.55.25-.82Z" style="fill:#6c6c68"/><path d="M43.23,55.88a.52.52,0,0,0-.11-.52.47.47,0,0,1,.44-.1l.81.26C44.16,56.15,43.63,55.81,43.23,55.88Z" style="fill:#868681"/><path d="M190.91,64c.26-.49.43-.33.57.08-.08.24-.16.47-.25.7Z" style="fill:#c5bcb9"/><path d="M190.25,13.12l.72.13-.39.53a.78.78,0,0,1-.94-.6Z" style="fill:#c6ced9"/><path d="M57,36.84c.15.24,1.09-.17.55.65C57.08,37.5,56.85,37.32,57,36.84Z" style="fill:#6c6c68"/><path d="M57.46,35.66l-.49.68C56.81,35.88,57,35.71,57.46,35.66Z" style="fill:#6c6c68"/><path d="M42.35,57.33l.75-.26-.35.57Z" style="fill:#6c6c68"/><path d="M105.34,66.58c-1.89-1.1-4-.35-5.93-.55,2.31-3.1,6.21-4.19,8.83-7,.93-1,2.15-1.66,2.1-3.48l-6,4.39c-1.63-1.9-2.93-1.81-3.82.64l-2.57,0c0-.57.64-1.58-.43-1.58-2,0-1.75-1.28-1.85-2.48a11.9,11.9,0,0,0-.08-4.25c.28-1.7,1.64-1.08,2.6-1.12,5-.22,9.91-.37,14.87-.54,1,.54.37,1.73,1,2.41,2.33,1.72,3-1.49,5-1.55.07,1.42.14,2.9.22,4.38L119.3,63c.49,3-.75,3.89-3.73,3.63C112.18,66.38,108.75,66.59,105.34,66.58Zm13.1-3.4c.19-.92-.43-1.38-1.19-1.72A14.82,14.82,0,0,0,113.69,60c-.57-.09-.72,1.2-.45,1.78.84,1.87,2.89,1.76,4.46,2.4C118.29,64.44,118.44,63.76,118.44,63.18Zm-11-2.21c-.21,1-1.23,1.85-.35,2.75,1.09,1.12,2.15,0,4.16-.4C109.12,62.91,108.51,61.73,107.41,61Z" style="fill:#080806"/><path d="M157.88,58.92c0,1.37,0,2.73,0,4.09a1.87,1.87,0,0,0-1.73,1.9c-2,.15-1.85-2.38-3.48-2.66-.12-1.1.17-2.71-1.52-2.57s-.67,1.7-.93,2.61a2.71,2.71,0,0,0,0,.29c-2.15-.93-4.3-1.88-6.47-2.77-1.94-.8-2.87-1.68-.75-3.4.46-.37.53-1.22.77-1.85s1.2-1.86.71-1.78c-1.34.24-3.45-.33-3.81,2-1.48.1,0,2.66-2.15,2.4s-4-1.38-5.83-2.4c-.6-.32-1-.81-.31-1.55s.22-1.73-.3-2.49l5.67-.34,6.4-.13c3.25.51,6.48-.14,9.73-.1,4.15,0,4.11-1,4.12,4-.91,1.61-3.62,2.12-2.94,4.72l-.08.08c-.49.06-1.11.14-.91.8a1,1,0,0,0,1.39.7C156.43,60.18,156.75,58.92,157.88,58.92Zm-9-4.69c-.1-.93-.47-1.76-1.54-1.61s-1.37,1.11-1.31,2.13c-.65,1.19-2.23,1.84-2.05,3.53,1,0,2,0,3,0,1.13,0,2.55.46,3.05-1A2.51,2.51,0,0,0,148.91,54.23Z" style="fill:#080806"/><path d="M213.62,61.72c-.73-1.22-1.66-2.53-3.18-1.49-1.76,1.21,1,1.66.74,2.71L200,63a.73.73,0,0,1,.89-.53c1.22.1,1.58-.57,1.35-1.6-.26-1.22-1.06-.68-1.81-.5a15.71,15.71,0,0,1-2.28.21c-.51-.46-.68-1-.18-1.53-.26-1.59,1.27-2,1.94-3,.35.17.69.35,1,.49,1,.4,2.48,1.81,2.92.75.64-1.51-1.31-1.79-2.49-2.2-.07,0-.09-.17-.14-.25.44-.13,1-.24.72-.84-.22-.43-.62-.17-.85.17l-2.4.06-.78-.46h-.2c-1.8-.84-2.89-2.5-4.38-3.7a.35.35,0,0,0,.22-.31.5.5,0,0,0,.42-.23l2.24.27c.06.62-.47,1.65.52,1.69,1.18,0,.61-1.15.81-1.81l7.09-.29c3,.84,6-1.42,9,.07Zm-5.69-10.43c-1.5,2.72-.06,5.08-1.29,6.85-.5.72-.33,1.12.06,1.37.84.55,1-.43,1.13-.83C208.58,56.51,208.28,54.3,207.93,51.29Z" style="fill:#080806"/><path d="M159.15,59.49c0-2,.1-3.94-.12-5.88-.31-2.71.48-4.08,3.46-3.61,1.38.21,2.6,0,2.76-1.78h.57c0,.2,0,.4,0,.6,0,.75.7.48,1.08.68-.28,2.2-1,4.8,2.93,3a2.78,2.78,0,0,1,.42.61c.29.49.89.78,1.2.46a2.5,2.5,0,0,0,.59-1.63c0-.82-.75-.87-1.31-.73-1.18.31-2,.2-2-1.24l2.33-.15,1.89.07c.62-.08,1.44.48,1.78-.54l1.7-.52c1,1.69,2.62.93,4,1,1.66.11,3.34.11,5,.15v0c-6.76,3.57-13.24,7.6-19.62,11.79l-1.6-2.39c-.23.94.24,2-.68,2.32-.77.29-1.07-.53-1.53-1.05A4.72,4.72,0,0,0,159.15,59.49Zm15.59-7.73c-.43.1-1-.23-1.26.32,0,.05.23.29.39.36.73.33.82-.16.86-.69l1.3-.22c-.05-.08-.09-.2-.15-.22A.9.9,0,0,0,174.74,51.76Zm-14-.17-.49-.22c-.07.17-.24.37-.19.48s.3.15.46.22C160.6,51.91,160.67,51.75,160.74,51.59ZM179.86,51c-.17-.06-.36-.22-.48-.17s-.15.29-.23.45c.17.07.37.23.48.18S179.79,51.17,179.86,51Z" style="fill:#080806"/><path d="M120.74,55.88c0-5,0-5,4.64-2.91a147.67,147.67,0,0,1,13.48,6.49c.22.95-1.09,1.13-1,2-.16,1.8-.94,2.27-2.31.94-.46-.44-.63-1.19-1.47-1.1,0-.06-.09-.12-.14-.17l.17.14c.23,1.67-.82,1.95-2.14,1.95-2.45.52-5,0-7.43,1l-1.78-.6A1.82,1.82,0,0,0,121,61.81Z" style="fill:#080806"/><path d="M151.45,35.53c1.31.75,4-1.31,4.07,2a3.59,3.59,0,0,0,0,4.13c0,.6,0,1.19,0,1.78l-.53.68-.6,0L152.66,44c-1.61-1-1.42-2.84-2.08-4.18-1.43.58,0,2.58-1.64,3,0-1.46.32-3-.43-4.37v4.37c-2.44.58-4.87-.4-7.31,0a27.36,27.36,0,0,1-1.08-3.91c-.46-3.45-.17-3.53,3.4-3.77,2.17-.15,4.31-.91,4.62,2.32,1.26-.33.49-2.26,2-2Z" style="fill:#080806"/><path d="M160.91,44.16c-2-2.23-.75-4.92-1.06-7.38-.12-1,.74-1,1.47-1l4.18.09c.08,1.94.11,3.89.28,5.82.05.55-.83,1.37.31,1.67a1.88,1.88,0,0,0,1.41-.07c.65-.5.18-1.33,0-1.85a16.83,16.83,0,0,1-.57-5.18c6-.22,6-.22,6.19,6.08-1.12,0-.4-2-1.54-1.64-.87.24-.28,1.38-.52,2.09L170,43l-.82.14.77.33c-.39,1.1-2.68-.23-2.35,1.8-.45.11-1,.1-1.21.61l-1.85.08-1.07-1.28c-.3-1.23-1.2-.43-1.82-.53Z" style="fill:#080806"/><path d="M214.84,49.39h16.73L221,57.29c-2.28.05-3.51-3.09-6.13-2Z" style="fill:#080806"/><path d="M122.15,42.74c0-2.16,0-4.33,0-6.49,0-1.25.42-1.83,1.73-1.71a12.87,12.87,0,0,0,3,.08c2.93-.42,3.71,1.34,2.87,3.43a5.68,5.68,0,0,0,.24,4.8A38.57,38.57,0,0,1,122.15,42.74Z" style="fill:#080806"/><path d="M32.33,22.66c1.11-1.06,0-1.66-.51-2.37A1,1,0,0,1,32.4,19l2,.15-.18,1-.27.37.36-.29a1.31,1.31,0,0,0,1-1.08,93.3,93.3,0,0,0,10.95.68c.76,0,1.93-.45,2.07,1-2.69-.43-3.79,1.66-5.22,3.24L42,23.76l0,0c-.38-1.18-1.47-1.13-2.4-1.37a.41.41,0,0,0-.67-.13l-1.42.22L37.15,22c-.4-.49-.79-.6-1.15,0a8,8,0,0,0,1.57,3.86c-.8.9-1.47,2.71-2.41,0-.56-1.65-1.88.46-2.78-.21A2.11,2.11,0,0,1,32.33,22.66Z" style="fill:#282622"/><path d="M199.86,56c-.67,1-2.2,1.46-1.94,3a.91.91,0,0,0-1,.43l-2.11,0-.25.05c.06-1.91-.32-3.31-2.77-2.64a12.12,12.12,0,0,1-2,.21c0-2.25-.57-4.55.53-6.72,1.06.23,2.2,1.11,3-.41,1.49,1.2,2.58,2.86,4.38,3.7A.42.42,0,0,0,198,54l.19.21C197.88,55.63,199.63,55.09,199.86,56Z" style="fill:#282622"/><path d="M131.78,41.85c.22-1.83-1.08-3.44-.72-5.32.15-.79.07-1.57,1.17-1.61l1.86.07c4.44.15,4.44.15,5,4.32-1.23,3.11-3.36,4.08-6.49,2.74A4,4,0,0,0,131.78,41.85Z" style="fill:#080806"/><path d="M131.78,41.85a4,4,0,0,1,.84.2c3.13,1.34,5.26.37,6.49-2.74,1,1-.79,3.64,2.09,3.54,2.44-.4,4.87.58,7.3,0h.44c1.68-.45.21-2.45,1.64-3,.66,1.34.47,3.22,2.08,4.18l-2.77,0c-1.47-.78-3-1.93-3.95.59-3.52-1.19-7.16-.31-10.73-.56-1.07-.08-2.15,0-3.22,0-1.51-.72-3.09-1.89-4.12.62-1.53-.09-3-.84-4.55-.65-.82.09-1.21-.44-1.17-1.27a38.57,38.57,0,0,0,7.82.11C130.78,42.88,131.49,42.75,131.78,41.85Z" style="fill:#6c6c68"/><path d="M195.08,45.26c-1.81,1.38-2,.35-1.81-1.21,2.14-1.87.8-4.37,1.2-6.55,1.56-1,3.29-.5,4.94-.51,1.27,0,1.52.92,1.62,2,.14,1.5-.58,3.15.67,4.49l0,.25c-.38.09-1,.35-1.09.24-1.58-2.36-2.93-1-4.3.21l-1.12-.72Z" style="fill:#282622"/><path d="M60.47,32.72c-.63-2.22,1.75-3.39,1.87-5.35,1.59,1.19,4,1.3,4.66,3.69-2.66.12,0,1.6-.58,2.24l0,0a5.9,5.9,0,0,0-2.95.65c-2.2,1.43-.75,3.74-1.38,5.54-.35,1,.57,2.85-1.65,2.76,0-1.37.72-2.73,0-4.1A6.79,6.79,0,0,0,60.47,32.72Z" style="fill:#6c6c68"/><path d="M166.38,45.87c.24-.51.76-.5,1.21-.61,3.23,1.13,6.55.36,9.82.45.92,0,.88-.88.88-1.57a4,4,0,0,0,3.66,0,3.68,3.68,0,0,0,4.15,2.78c.59,0,1.51-.86,1.64.33s-1,.93-1.73.94c-3,0-6,0-9,.06l-4.68,0-1.3,0a1.3,1.3,0,0,1-.55-.12,3.68,3.68,0,0,0,.05-.58c2.06-1.27,4.46,0,6.85-.9C173.58,45.9,169.89,47.15,166.38,45.87Z" style="fill:#6c6c68"/><path d="M75.47,40.38c-3.2-.25-5.15-2.82-7.77-4.14L66.47,35l0-1.75,0,0c1,.05,1.26-.62,1.43-1.39a32,32,0,0,1,8.75,7.38C75.86,39.28,75.46,39.62,75.47,40.38Z" style="fill:#282622"/><path d="M217.94,43.45c1.28-.35,1.44-1.47,1.72-2.49l2.84.76.32,1.34c.65-.37.3-.94.3-1.44l.81-1.78h.93c1.41,1.44.17,2.92.1,4.38-1.31,1-3.08-.12-4.8,1.06,2.13,1,4.15.13,6.38.82-4.39,1-8.65-.83-12.84,1.74.88-2.77,3.18-1.56,4.39-2.33-.05-1.14-1.21-.7-1.47-1.36C216.81,43.45,217.4,43.49,217.94,43.45Z" style="fill:#6c6c68"/><path d="M175.39,42.82c.39-1.76-1.4-2.88-1-5.07.55-2.87,2.1-1.15,3.08-1.4,1.28-.31,2.68-.13,2.67,1.77,0,1.57,0,3.14-.07,4.71Z" style="fill:#080806"/><path d="M180,63.63a41.9,41.9,0,0,1-9.49.6c-.74-.73-2.39-1-1.69-2.49s2.24-1,3.49-1.07c2.49,1.23,5.17.38,7.74.66v0C180.05,62.06,180,62.84,180,63.63Z" style="fill:#6c6c68"/><path d="M201.72,43.77l0-.25c0-.58,0-1.16,0-1.74,0-4.61,0-4.61,4.74-4.28,0,2,0,4,0,5.93-.48,0-1,.06-1.18.59Z" style="fill:#080806"/><path d="M185.47,44.05a2.4,2.4,0,0,1-.53-.12c-.85-1.69-2.16-.68-3.31-.55-.07-1-.16-2-.21-2.94-.21-4.17.75-4.76,4.88-3L185.94,44A1.5,1.5,0,0,0,185.47,44.05Z" style="fill:#080806"/><path d="M194.47,37.5c-.4,2.18.94,4.68-1.2,6.55-1-.31-2.63.55-2.94-1.2s-.81-4,.17-5.47C191.18,36.34,193.15,36.57,194.47,37.5Z" style="fill:#080806"/><path d="M207.65,37.5l4,.1.24,6.46,0,0c-3.86-.42-4.25-.81-4.25-4.27C207.61,39,207.64,38.27,207.65,37.5Z" style="fill:#080806"/><path d="M124.66,9.58c-.46-1.5-2.2-2.83-.61-4.6l3.39-.18c1.15,2.27-.83,2.32-2.39,2.82,1.26,1.53,4.47,2.19,2.32,4.72-1.47,1.72-2.8.52-3.8-.91C125.66,11,125.7,10.89,124.66,9.58Z" style="fill:#fdfdfd"/><path d="M214.87,55.3c2.62-1.1,3.85,2,6.13,2a20.21,20.21,0,0,1-5.58,4.49C215.27,59.61,214.33,57.52,214.87,55.3Z" style="fill:#282622"/><path d="M151.41,66.68a34.25,34.25,0,0,1-13.79-.08l0-.58c3.49.49,6.94.74,10-1.71-.7-.94-1.56-.53-2.27-.71l.06-1.14c1.7-.18,2.87.89,4.12,1.74C149,65.92,150.62,66,151.41,66.68Z" style="fill:#6c6c68"/><path d="M128.49,18.38l.57,2.83c-1.38.52-2.88,0-4.18,1.09-.95.82-1.87-.58-2.21-1.27-.73-1.46-1.21-3.12.66-4.29a4.57,4.57,0,0,0,4,2.31l.86-.68Z" style="fill:#c6ced9"/><path d="M217.94,43.45c-.54,0-1.13,0-1.32.7-1,.17-1.37-.69-1.88-1.29,0-1.77.06-3.54.1-5.31,4.77.09,4.76.09,3,4.76C217.73,42.64,217.91,43.07,217.94,43.45Z" style="fill:#080806"/><path d="M225,44.22c.07-1.46,1.31-2.94-.1-4.38.75-2.65,2.43-2,4.15-1.14-.09,1.79-1.13,3.6.13,5.36a.84.84,0,0,1,0,.52c-.65-.38-.71,2.42-1.64.34C226.86,43.58,225.83,44.31,225,44.22Z" style="fill:#080806"/><path d="M133.36,23.3c-1.49.23-2.44-.12-1.73-2.15.25-.69,0-1.56.06-2.33.13-1-.82-2.8,1.15-2.54,1.19.16,3.5.09,3,2.65a2.76,2.76,0,0,0,.14,1.42C136.73,22.62,135.8,23.46,133.36,23.3Zm1.9-2c0-1.06-.73-1.37-1.55-1.45s-.89.56-.87,1.16-.2,1.47.81,1.55A1.42,1.42,0,0,0,135.26,21.3Z" style="fill:#fdfdfd"/><path d="M207.65,37.5c0,.77,0,1.54,0,2.32,0,3.46.39,3.85,4.25,4.27-.1.9.34,2.27-1.11,2.23s-3.33,1-4.31-1.06V43.43c0-2,0-4,0-5.93Z" style="fill:#6c6c68"/><path d="M148.43,46.48c-.15.34-.3.69-.46,1l-2,0a2,2,0,0,0-3,0h-3.62c-1.86-1.44-4.24.12-6.17-1v-.87h13A2.91,2.91,0,0,1,148.43,46.48Z" style="fill:#6c6c68"/><path d="M159.15,59.49a4.72,4.72,0,0,1,2.86,1.2c.46.52.76,1.34,1.53,1.05.92-.35.45-1.38.68-2.32l1.6,2.39c-1.53,2.82-4.19,1.25-6.36,1.56-.43.06-1-.88-.75-1.07C159.72,61.43,159,60.41,159.15,59.49Z" style="fill:#6c6c68"/><path d="M145.42,62.46l-.06,1.14c-1.37,0-2.61.93-4,.58l-3.5-2.72c0-.87,1.26-1.05,1-2A16.42,16.42,0,0,1,145.42,62.46Z" style="fill:#282622"/><path d="M167,22.45c.4-.79-.74-2.24.88-2.57,1.31-.27,3.29,2.34,3.24,4.07,0,1.39-.91,1.79-2.17,1.86C166,26,167.3,23.82,167,22.45Z" style="fill:#c6ced9"/><path d="M192.15,48.24c-.59-.16-1.58.23-1.6-.8,0-.67.62-.93,1.3-.83,5.41.85,10.86.13,16.28.37.55,0,1.21-.22,1.66.59l-5.42.3c-2.09.14-4.17.77-6.3.25-.41-.46-.81-.55-1.17.05l-.05,0c-1-.21-2.08-.76-3.08.09Z" style="fill:#6c6c68"/><path d="M214.87,55.3c-.54,2.22.4,4.31.55,6.48l-.06,1.09-1.74-.1V61.72l0-12.33h1.25Z" style="fill:#6c6c68"/><path d="M196.62,21.51c1.06,0,1.14.56,1.44,1.08.75,1.24-.16,2.78.83,4a1.25,1.25,0,0,1-1.2,1.34c-.66,0-1.68.33-1.83-.48a13.61,13.61,0,0,1,.06-5.54C196,21.68,196.53,21.56,196.62,21.51Z" style="fill:#c6ced9"/><path d="M189.75,24.59c0-1,.12-2.31,1.44-1.88,1.15.39,3.19-.16,3.24,2.12a2.11,2.11,0,0,1-2.17,2.28C190.86,27.14,189.55,26.45,189.75,24.59Z" style="fill:#c6ced9"/><path d="M48.13,17.89c-.18-1.08-.15-2.25-1.7-2.64-1.38-.35-1.42-1.68-.94-2.62.74-1.48,2.32-.92,3.42-.64s1.78,1.87,1.15,2.51C49.07,15.5,49.67,17.09,48.13,17.89Z" style="fill:#282622"/><path d="M124.5,64.18c2.39-1,5-.44,7.43-1l1.49,1.52-.53,2.39A29.31,29.31,0,0,0,124.5,64.18Z" style="fill:#282622"/><path d="M164.93,21.34c.23,1.23.68,2.45-.86,3.28a2.94,2.94,0,0,1-3.51-.5,2.12,2.12,0,0,1-.2-3.27C161.75,22.2,163.35,21.68,164.93,21.34Z" style="fill:#c6ced9"/><path d="M127.34,19.05a4.57,4.57,0,0,1-4-2.31c.76-.42,1.54-.79,2.26-1.26a2.77,2.77,0,0,1,3.25.13c1.31.95-.52,1.8-.35,2.77h-.29a.94.94,0,0,0-.57-.06l-.42-.15.18.39A2.83,2.83,0,0,1,127.34,19.05Z" style="fill:#fdfdfd"/><path d="M144.13,50.23l-6.4.13.56-2.07h5.9Z" style="fill:#c5bcb9"/><path d="M144.19,48.28H129.68v-.73H146l2,0,2.85.18v.58Z" style="fill:#080806"/><path d="M157.88,58.92c-1.13,0-1.45,1.26-2.44,1.51a1,1,0,0,1-1.39-.7c-.2-.66.42-.74.91-.8l.31.22-.23-.3c-.68-2.6,2-3.11,2.94-4.72C158,55.73,157.91,57.33,157.88,58.92Z" style="fill:#282622"/><path d="M90.4,48.13c-2,1.74-3.22.8-4.18-1.14.79-1.4,3.29-.37,3.58-2.48l1.78,1.3,0,1.19c-.61.1-1.33-.32-1.8.31C89.69,47.39,90.17,47.85,90.4,48.13Z" style="fill:#6c6c68"/><path d="M127.53,49.39c1.64.76,3.38,1.45,3.16,4.06-1.86-1-4.66-.27-5-3.43C126.3,49.79,127.15,50.28,127.53,49.39Z" style="fill:#080806"/><path d="M190.28,50.41c-1.1,2.17-.54,4.47-.53,6.72l-.12,2.37-.92,0c-.1-3.16-.21-6.33-.31-9.49C189.09,49.85,190,48.83,190.28,50.41Z" style="fill:#6c6c68"/><path d="M120.74,55.88l.3,5.93-.15,1.24c-.53-.52-1-1.26-1.59,0l-.06-7.16Z" style="fill:#6c6c68"/><path d="M185.94,44l.36-6.53h1.42l.18,5.4c-.43.73-.57,1.71-1.68,1.82C186.13,44.43,186,44.2,185.94,44Z" style="fill:#6c6c68"/><path d="M139,33.63c-1.65-3,.74-6.23-2.57-8.21,1.63-.53,2.94-1.69,2.86,1.28C139.21,28.79,139.67,30.89,139,33.63Z" style="fill:#6c6c68"/><path d="M127.44,4.8,124.05,5l-.18-.67c3-1.39,6-.49,9.09-.54A5,5,0,0,1,127.44,4.8Z" style="fill:#a1a8ac"/><path d="M167,36.26a16.83,16.83,0,0,0,.57,5.18c.16.52.63,1.35,0,1.85a1.88,1.88,0,0,1-1.41.07c-1.14-.3-.26-1.12-.31-1.67-.17-1.93-.2-3.88-.28-5.82A1.22,1.22,0,0,1,167,36.26Z" style="fill:#6c6c68"/><path d="M187.36,19.65a9.12,9.12,0,0,1-.08,6c-2.1-.09-.57-2.34-1.78-3a2.64,2.64,0,0,0-.14-.48A2.89,2.89,0,0,1,187.36,19.65Z" style="fill:#6c6c68"/><path d="M181.63,43.38c1.15-.13,2.46-1.14,3.31.55l-3,.2a4,4,0,0,1-3.66,0c-.89,0-1.78,0-2.65-.11-1.18-.14-.38-.76-.25-1.21h4.7C180.45,43.44,181.11,43.22,181.63,43.38Z" style="fill:#282622"/><path d="M133,10.8c.25-1.19,1.65-.17,2.06-1-.2-1.21-1.6-.42-2.18-1.42,1.18-.8,2.46-.7,2.86.5s1,2.92,0,4.29c-.49.68-1.6,0-1.74-.18-.38-.66.54-.3.77-.6.7-.88.68-1.39-.63-1.3C133.75,11.08,133.25,11.57,133,10.8Z" style="fill:#fdfdfd"/><path d="M149.19,26.68c7-.63,6.82-2,5.94,6.85C155.73,29.14,154.75,26,149.19,26.68Z" style="fill:#6c6c68"/><path d="M227.11,59.69c0,.4.1.81.16,1.21-1.55.88-1.35-1.84-2.73-1.31a2.64,2.64,0,0,0,1.07-2c0-.88-.41-2.41,1.17-2.13s1.33,1.62.63,2.76c-.1.35-.2.7-.29,1.05A.34.34,0,0,0,227.11,59.69Z" style="fill:#282622"/><path d="M198.07,48.12c2.13.52,4.21-.11,6.3-.25.08.48.16,1,.23,1.45l-7.09.29-.62-.24,0-1.16.05,0Z" style="fill:#c6ced9"/><path d="M145.41,16.1a4,4,0,0,1-.67-3.06c.22-1.92-.37-3.09-3-2.76,2.92-1.57,3.9-1.17,4.17,1.44.15,1.45.06,2.91.08,4.37Z" style="fill:#c6ced9"/><path d="M151.31,14.68c.81-2-.42-4.4,1.33-6.09C154,12.09,153.43,14.77,151.31,14.68Z" style="fill:#fdfdfd"/><path d="M217.81,47.05h9.49C224.18,49.14,221,47.18,217.81,47.05Z" style="fill:#282622"/><path d="M148.43,46.48a2.91,2.91,0,0,0-2.16-.74l-.33-1.1c1-2.52,2.48-1.37,3.95-.59C149.57,45,149.53,46,148.43,46.48Z" style="fill:#080806"/><path d="M224.54,59.59c1.38-.53,1.18,2.19,2.73,1.31l.48.82a7.05,7.05,0,0,0-2.29.32,1.57,1.57,0,0,1-2.41-.76C222.54,60,224.05,60.17,224.54,59.59Z" style="fill:#6c6c68"/><path d="M119.06,44.08c-1.74-2.53.21-5.24-.34-7.85,1.79,1.81.33,4.16,1,6.15Z" style="fill:#6c6c68"/><path d="M164.93,21.34c-1.58.34-3.18.86-4.57-.49,1.42-2.42,3.2-1.11,4.9-.43C165.27,20.43,165,21,164.93,21.34Z" style="fill:#fdfdfd"/><path d="M172.49,25.87V19.2c1.52,2.09,1,4.35.85,6.59Z" style="fill:#6c6c68"/><path d="M127.87,44.66c1-2.51,2.61-1.34,4.12-.62C131.15,46.29,129.59,46.52,127.87,44.66Z" style="fill:#080806"/><path d="M163.46,44.67,164.53,46c-.83.75-1.86.45-2.79.44-.69,0-1.73.47-2.05-.45s.73-1.22,1.22-1.78l.73,0C162.11,44.77,162.82,44.59,163.46,44.67Z" style="fill:#6c6c68"/><path d="M193.81,14.85c.05-.78.42-1.23,1.26-1.17v5.94a2.61,2.61,0,0,1-1.77-2.89l0-.64A1.08,1.08,0,0,0,193.81,14.85Z" style="fill:#6c6c68"/><path d="M93.63,51c-2.12.55-2.07-.85-2-2.23l.66-1.69.51-.14.62.17C94.45,48.32,93.34,49.69,93.63,51Z" style="fill:#282622"/><path d="M211.88,44.06l-.24-6.46,1.12-.18.24,5.87C212.91,44,212.42,44,211.88,44.06Z" style="fill:#6c6c68"/><path d="M150.2,62.58a2.71,2.71,0,0,1,0-.29c.26-.91-.62-2.49.93-2.61s1.4,1.47,1.52,2.57C151.83,62.24,151.18,63.62,150.2,62.58Z" style="fill:#282622"/><path d="M178.65,13.41c-1.25,1-3.14.66-2.75,2.54.23,1.06.39,2.23-1.11,2.79.1-1.65.36-3.27.48-4.86C175.35,12.63,177,13.19,178.65,13.41Z" style="fill:#fdfdfd"/><path d="M145.41,16.1H146c.69.36,1.65-1.73,2.15.21.27,1-.43,1.45-1.28,1.52-1,.09-2.15.23-2.66-1A8.25,8.25,0,0,1,145.41,16.1Z" style="fill:#6c6c68"/><path d="M95.54,52.3a11.9,11.9,0,0,1,.08,4.25H94.09c-.1-1.18-.2-2.36-.29-3.54l.27-.68Z" style="fill:#6c6c68"/><path d="M132.89,67.13c.18-.8.36-1.59.53-2.39h1.31A3.16,3.16,0,0,0,137.65,66l0,.58C136.14,67.57,134.49,67.12,132.89,67.13Z" style="fill:#080806"/><path d="M214.84,37.55c0,1.77-.07,3.54-.1,5.31l-.83.09a21.49,21.49,0,0,1,.1-6.15Z" style="fill:#6c6c68"/><path d="M183.15,17.34c1.54-1.3-.83-3.47,1.07-4.67,1.41,2.69,1,4.58-1.14,5.35C183.1,17.79,183.13,17.57,183.15,17.34Z" style="fill:#c6ced9"/><path d="M206.78,36.72c-1.07-2.1-1.07-2.1-.84-6.2C207.25,32.45,207.25,32.45,206.78,36.72Z" style="fill:#6c6c68"/><path d="M186.52,34.44c-1.36-1.87-1-3.9-.86-6.65C187.33,30.32,186.43,32.45,186.52,34.44Z" style="fill:#6c6c68"/><path d="M153.41,17.55c2.43.1,2.79,1.59,1.84,7.43C154.73,22.17,155.43,19.58,153.41,17.55Z" style="fill:#6c6c68"/><path d="M142.39,23.28c2.41.2,3.25-.83,2.58-3.66,1.33,1.71,2,3,1,4S143.7,24.72,142.39,23.28Z" style="fill:#fdfdfd"/><path d="M152.31,20.56a4.3,4.3,0,0,0,0,3l-.52.47c-2.56.16-1.53-1.93-1.75-3-.29-1.51,1.29-.37,1.79-.92Z" style="fill:#c6ced9"/><path d="M140.65,54.74c.36-2.29,2.47-1.72,3.81-2,.49-.08-.52,1.12-.71,1.78Z" style="fill:#282622"/><path d="M114,53.05c-.63-.68,0-1.87-1-2.41h3.72A4.86,4.86,0,0,1,114,53.05Z" style="fill:#6c6c68"/><path d="M195.08,45.26l.13-1.76,1.12.72c0,2.84,2.57.82,3.74,2.12C198.22,46,196.31,47.54,195.08,45.26Z" style="fill:#6c6c68"/><path d="M172.82,11.45l.56,6.05C171.81,15.58,172.69,13.47,172.82,11.45Z" style="fill:#6c6c68"/><path d="M171.08,42.79c.24-.71-.35-1.85.52-2.09,1.14-.33.42,1.61,1.54,1.64.47.49.57,1.08,0,1.44C172,44.45,171.77,43.12,171.08,42.79Z" style="fill:#6c6c68"/><path d="M205.34,25l.73-1.81c.78.27.4,1.16.85,1.58,0,.15-.07.31-.1.47a2.72,2.72,0,0,0,.27,2.79,1.19,1.19,0,0,0,0,.53c-1.37.14-1.13-1.17-1.64-1.81C205.41,26.17,205.38,25.58,205.34,25Z" style="fill:#6c6c68"/><path d="M207.09,28.56a1.19,1.19,0,0,1,0-.53c.91-1,1.48-2-.27-2.79,0-.16.06-.32.1-.47,1.1-1.11,1.18.35,1.72.67l.41.36C209.13,27.24,208.78,28.37,207.09,28.56Z" style="fill:#c6ced9"/><path d="M151.41,66.68c-.79-.7-2.44-.76-1.87-2.48.8.3,1.61.57,2.39.92.48.21,1.31.37,1,1.07C152.8,66.51,151.94,66.53,151.41,66.68Z" style="fill:#282622"/><path d="M155.57,41.64a3.59,3.59,0,0,1,0-4.13A2.86,2.86,0,0,1,155.57,41.64Z" style="fill:#282622"/><path d="M172.36,48.2l4.68,0c-.19.21-.39.41-.59.62l-1.7.52h-1.18c-.2-.46-.41-.44-.62,0l-.11.18A1.25,1.25,0,0,1,172.36,48.2Z" style="fill:#c6ced9"/><path d="M147.37,26.07c1,2.35.27,4.76-.26,7.18V26.31A2,2,0,0,1,147.37,26.07Z" style="fill:#6c6c68"/><path d="M212.45,22.05l0,1.15c-1.68.07-3.17-.91-4.86-1.15Z" style="fill:#6c6c68"/><path d="M156.14,64.91a1.87,1.87,0,0,1,1.73-1.9c-.29,1,1.3,2.64-1.1,2.75l-.62-.92Z" style="fill:#282622"/><path d="M160.78,10.19a2.37,2.37,0,0,1,3.39,0c-.35.16.16,1.5-.95.63-1.29-1-1.74-.52-1.48,1l-.44.46C160.72,11.66,160.86,10.9,160.78,10.19Z" style="fill:#fdfdfd"/><path d="M210.07,15.47l.27,4.77a1.08,1.08,0,0,1-1.44.59c-1.13-.62.35-.65.33-1.08-.06-1.41-.08-2.83-.11-4.24Z" style="fill:#c6ced9"/><path d="M204.93,20.46a2.58,2.58,0,0,1-.47-3.16C205.73,18.35,205.08,19.48,204.93,20.46Z" style="fill:#c5bcb9"/><path d="M183.15,17.34c0,.23-.05.45-.07.68-.61.58-1.22.67-1.64-.16a1,1,0,0,1,.39-1.28C182.62,16.12,182.59,17.27,183.15,17.34Z" style="fill:#a1a8ac"/><path d="M205.34,25c0,.58.07,1.17.11,1.75-.3.71-.49,1.53-2,1.56C204.78,27.34,204.08,25.75,205.34,25Z" style="fill:#c6ced9"/><path d="M67.85,31.91c-.17.77-.45,1.44-1.43,1.39.61-.64-2.08-2.12.58-2.24C67.29,31.34,67.57,31.63,67.85,31.91Z" style="fill:#080806"/><path d="M124.66,9.58c1,1.31,1,1.38-1.09,1.85C122.77,10.13,123.9,10,124.66,9.58Z" style="fill:#c6ced9"/><path d="M120.89,63.05l.15-1.24a1.82,1.82,0,0,1,1.68,1.77Z" style="fill:#282622"/><path d="M185.36,22.15a2.64,2.64,0,0,1,.14.48,1.09,1.09,0,0,1-1.72.24c-.23-.17-.42-.55-.09-.64A6.6,6.6,0,0,1,185.36,22.15Z" style="fill:#a1a8ac"/><path d="M127.53,49.39c-.38.89-1.23.4-1.84.63,0-.5-.06-1,.43-1.33C126.89,48.25,127,49.34,127.53,49.39Z" style="fill:#c5bcb9"/><path d="M165.82,48.21h-.57c1-1.25,2.33-.43,3.5-.63,0,.17,0,.35,0,.52l.06.16-1.09.14Z" style="fill:#382217"/><path d="M192.15,48.24l1.62.06c.06.39.11.77.17,1.16a.5.5,0,0,1-.42.23C192.89,49.37,192,49.29,192.15,48.24Z" style="fill:#c5bcb9"/><path d="M193.33,16.09l0,.64c-1.05-.06-2.19,0-2.36-1.71Z" style="fill:#c6ced9"/><path d="M134.09,35l-1.86-.07c.1-.46.26-.87.82-.92C133.77,34,134,34.42,134.09,35Z" style="fill:#6c6c68"/><path d="M229.1,44.58a.84.84,0,0,0,0-.52c.76-.45,1.83.25,2.47-.66l.48,1.24Z" style="fill:#6c6c68"/><path d="M128.46,68.66a2.4,2.4,0,0,1,2.28,0A2.22,2.22,0,0,1,128.46,68.66Z" style="fill:#6f202d"/><path d="M197.47,19.72c-1.13.45-1.16-.4-1.24-1.09,0-.15.28-.34.43-.52l.86,1.06A5.11,5.11,0,0,0,197.47,19.72Z" style="fill:#c6ced9"/><path d="M208.64,25.44c.25-1.17,1.06-1.14,2.11-.86l-1.7,1.22Z" style="fill:#c6ced9"/><path d="M206.43,43.43v1.83c-.53-.29-1.05-.58-1.19-1.24C205.47,43.49,206,43.45,206.43,43.43Z" style="fill:#282622"/><path d="M154.39,44.07l.6,0,.6.51c-.06.46,0,1.14-.71,1S154.45,44.61,154.39,44.07Z" style="fill:#6c6c68"/><path d="M59.9,13.64l.14.1c.23.28.63.54.24.92-.06.06-.55-.18-.71-.38S59.22,13.56,59.9,13.64Z" style="fill:#282622"/><path d="M94.07,52.32,93.8,53c-1.06-.44-1.2-.87,0-1.28C93.9,51.92,94,52.12,94.07,52.32Z" style="fill:#282622"/><path d="M143.8,18.85c-.17-.07-.43-.11-.48-.23s.12-.32.19-.48c.17.07.43.11.47.22S143.87,18.68,143.8,18.85Z" style="fill:#6c6c68"/><path d="M35.38,19.08a1.31,1.31,0,0,1-1,1.08l-.09-.08.18-1Z" style="fill:#6c6c68"/><path d="M152.31,23.54c.46.2,1.05.57.66,1-.64.73-.93,0-1.18-.54Z" style="fill:#c6ced9"/><path d="M147.11,26.31a8.87,8.87,0,0,1-.86-.61s.11-.42.21-.44c.65-.14.74.39.91.81A2,2,0,0,0,147.11,26.31Z" style="fill:#6c6c68"/><path d="M151.45,35.53h-1.28C150.6,34.4,151,34.42,151.45,35.53Z" style="fill:#6c6c68"/><path d="M75.47,40.38c0-.76.39-1.1,1.13-1.09a1,1,0,0,1,.06.53l0,.65a2,2,0,0,1-.35.37Z" style="fill:#080806"/><path d="M185.94,44c.1.23.19.46.28.69-.18.36.14,1-.55,1.07-.07-.56-.14-1.12-.2-1.68A1.5,1.5,0,0,1,185.94,44Z" style="fill:#282622"/><path d="M92.76,46.91l-.51.14-.7,0,0-1.19.59.14C92.37,46.26,92.57,46.59,92.76,46.91Z" style="fill:#c6ced9"/><path d="M92.76,46.91c-.19-.32-.39-.65-.59-1,.88-.12,1.23.31,1.21,1.13Z" style="fill:#c5bcb9"/><path d="M164,13.65l-.35.47a3,3,0,0,1-.63-.59c-.22-.39.1-.52.39-.41S163.81,13.47,164,13.65Z" style="fill:#fdfdfd"/><path d="M190.58,13.78l.39-.53,1.58,0c0,.26,0,.51.08.77Z" style="fill:#fdfdfd"/><path d="M192.63,14c0-.26,0-.51-.08-.77.9.25.7,1,.74,1.64C192.75,14.86,192.56,14.54,192.63,14Z" style="fill:#c6ced9"/><path d="M168.73,48.11c0-.17,0-.35,0-.52l1.81-.05a3.68,3.68,0,0,1-.05.58Z" style="fill:#282622"/><path d="M76.63,40.47l0-.65c.62-.2,1.1-.14,1.17.64Z" style="fill:#282622"/><path d="M197.47,19.72a5.11,5.11,0,0,1,.05-.55c.38.19.76-.93,1-.12C198.7,19.6,197.89,19.57,197.47,19.72Z" style="fill:#fdfdfd"/><path d="M218.39,62.44l-1.17.2a.94.94,0,0,1,.91-1.13C218.6,61.52,218.42,62.08,218.39,62.44Z" style="fill:#282622"/><path d="M202.76,24.33a1,1,0,0,1,1.4-.44c.1.05.11.27.17.42l-1.26.34C203,24.54,202.87,24.43,202.76,24.33Z" style="fill:#c6ced9"/><path d="M201.69,46.28l-.24-.09.27-.25.17.19Z" style="fill:#6c6c68"/><path d="M155.59,44.61l-.6-.51.53-.68C155.54,43.82,155.57,44.22,155.59,44.61Z" style="fill:#282622"/><path d="M169.94,43.46l-.77-.33L170,43A1.51,1.51,0,0,1,169.94,43.46Z" style="fill:#6c6c68"/><path d="M151.83,20.07c.34-.38.79-.78,1.15-.21.21.33-.33.57-.68.7C152.15,20.39,152,20.23,151.83,20.07Z" style="fill:#c6ced9"/><path d="M228.63,53.56l-.48.46C228.1,53.66,228.32,53.56,228.63,53.56Z" style="fill:#6c6c68"/><path d="M185.45,50l.28-.3c0,.06,0,.14,0,.17a.74.74,0,0,1-.24.11Z" style="fill:#6c6c68"/><path d="M156.15,64.84l.62.92C156.43,65.54,155.91,65.45,156.15,64.84Z" style="fill:#080806"/><path d="M51.52,18.47l-.2-.17.16.2Z" style="fill:#080806"/><polygon points="182.24 15.09 182.28 15.25 182.15 15.23 182.24 15.09" style="fill:#a1a8ac"/><path d="M195,13.71c.18-.39.34-.55.51,0l-.25,0Z" style="fill:#6c6c68"/><path d="M203.07,24.65c-.19.23-.41.35-.62.05,0,0,.2-.24.31-.37C202.87,24.43,203,24.54,203.07,24.65Z" style="fill:#c6ced9"/><path d="M161.74,11.78c.13.2.41.49.36.57-.3.48-.54.06-.8-.11Z" style="fill:#fdfdfd"/><path d="M82.57,51.22a19.08,19.08,0,0,0-6.67-.41c-2.24.35-2.44-1.65-3.94-1.81,2.48-1.18,5.14-.34,7.63-.89.61-.13.59.65.64,1.1.19,1.52,1.15,1.63,2.36,1.32Z" style="fill:#282622"/><path d="M63.92,48.24a3.31,3.31,0,0,1,.55,0l-2.32,1.56c-.8,1.6.63,1.23,1.33,1.5.51,1.79,2,.63,3,1l0,1.21-7.83,0c3.42-1.69,1.51-5.12,2.52-7.59l.88.14a1.51,1.51,0,0,0,.25,1.55C62.65,48.3,63.33,48.16,63.92,48.24Z" style="fill:#382217"/><path d="M69.56,66.3c1.32-2.29-1.23-3.69-1.3-5.66,1.18.72,3.57-1.45,3.72,1.18C72.08,63.45,72.41,65.93,69.56,66.3Z" style="fill:#6c6c68"/><path d="M66.49,53.52l0-1.21c.09-1.32-.41-2.68.19-4,1.42.2,2.94-.5,4.51.62-.55.71-3.23.14-1.59,2.23.31.39-.21.67-1,.38s-.85.74-.92,1.39A1.07,1.07,0,0,1,66.49,53.52Z" style="fill:#282622"/><path d="M77.83,53a9,9,0,0,1,6.59,0A9.29,9.29,0,0,1,77.83,53Z" style="fill:#2f1011"/><path d="M91.55,47l.7,0-.66,1.69-1.19-.61c-.23-.28-.71-.74-.65-.82C90.22,46.68,90.94,47.1,91.55,47Z" style="fill:#868681"/><path d="M86.74,52.9l.69-.37Z" style="fill:#382217"/><path d="M66.65,48.33c-.6,1.3-.1,2.66-.19,4-1-.33-2.47.83-3-1,1.26-2-.83-1.05-1.33-1.5l2.32-1.56Z" style="fill:#6c6c68"/><path d="M46.75,53l-2.06-.08a4.32,4.32,0,0,0,0-2.59c-.17-.62-.74-1.4.12-1.77a3.08,3.08,0,0,1,2,.14c.92.29.5,1.17.46,1.75A16.28,16.28,0,0,1,46.75,53Z" style="fill:#75694b"/><path d="M66.44,33.28l0,1.75c-.9.27-.84,1.11-1,1.79l0,.72c-3.45.3-1.46-2.33-2-3.61A5.9,5.9,0,0,1,66.44,33.28Z" style="fill:#080806"/><path d="M62.06,46l-.88-.14c0-.81-.55-2,1.09-1.82.37.72,1.08.61,1.71.68,0,.33.07.67.1,1Z" style="fill:#6f2739"/><path d="M62.06,46l2-.28c0,.63,0,1.26,0,1.89l-1.76-.06A1.51,1.51,0,0,1,62.06,46Z" style="fill:#c5bcb9"/><path d="M65.42,36.82c.21-.68.15-1.52,1-1.79l1.23,1.21c0,.28-.07.56-.1.83Z" style="fill:#a1a8ac"/><path d="M65.42,36.82l2.18.25c-.6.68-1.41.4-2.14.47C65.45,37.3,65.43,37.06,65.42,36.82Z" style="fill:#6c6c68"/><path d="M64,44.76c-.63-.07-1.34,0-1.71-.68C62.91,44.13,63.71,43.79,64,44.76Z" style="fill:#a1435d"/><path d="M62.31,47.59l1.76.06-.15.59C63.33,48.16,62.65,48.3,62.31,47.59Z" style="fill:#6b1013"/><path d="M214,27.15c0-.63,0-1.26,0-1.89l2-.93c1.29.31,3.16-.12,2.82,2.26-.36,2.61-2,2.48-3.93,1.92C214.81,27.9,214.66,27.35,214,27.15Z" style="fill:#c6ced9"/><path d="M231.61,43.4c-.64.91-1.71.21-2.47.66-1.26-1.76-.22-3.57-.13-5.36l2.47,0Z" style="fill:#c6ced9"/><path d="M223.93,39.84l-.81,1.78-.62.1L219.66,41c.4-1.06-1-3,1.52-3C222.55,37.94,224.09,37.66,223.93,39.84Z" style="fill:#080806"/><path d="M216,24.33l-2,.93a5.75,5.75,0,0,1,.26-4.42l1.16.62,1.82.58C217.37,23.11,216,23.33,216,24.33Z" style="fill:#6c6c68"/><path d="M225.06,17.24c1-1.07,2.3-.41,3.47-.47-.22,1.17.87,2.65-.84,3.46a2.51,2.51,0,0,0-1.49-2.07h0a.76.76,0,0,0-.57-.83Z" style="fill:#6c6c68"/><path d="M232.53,36.33c-.89-2.22.86-5.28-3-5C233,30.79,233,30.79,232.53,36.33Z" style="fill:#6c6c68"/><path d="M226.2,18.16a2.51,2.51,0,0,1,1.49,2.07c-.34.6-.71.8-1.16.1.07-.36-.06-.49-.42-.37l-.81,1.75C225.28,20.42,223.45,18.63,226.2,18.16Z" style="fill:#c6ced9"/><path d="M221.45,17.94l.63.57c0,.69.08,1.38,0,2.06,0,.49.72,1.19-.26,1.43a1.84,1.84,0,0,1-1.37-.22,1.16,1.16,0,0,1-.15-1.61A3.13,3.13,0,0,0,221.45,17.94Zm-.13,3-.2-.43c-.07.05-.19.11-.19.17a2.42,2.42,0,0,0,.06.46Z" style="fill:#c6ced9"/><path d="M231.65,17.82l.06,3.7c-.13.61.17,1.43-.8,1.61s-1.18-.44-1.42-1.1l.84,0c.93-.32.56-1.09.59-1.72v-.76C231.09,19,230.61,18.07,231.65,17.82Z" style="fill:#c6ced9"/><path d="M217.21,22l-1.82-.58,0-1.74c.67,0,.71,1.5,1.42.78s-.25-1.07-.79-1.4C219.2,19,217.72,20.71,217.21,22Z" style="fill:#c6ced9"/><path d="M230.33,22.06l-.84,0c-1-1.64-.41-2.42,1.43-2.45v.76C230,20.68,230.28,21.4,230.33,22.06Z" style="fill:#c5bcb9"/><path d="M215.47,15.53a1.56,1.56,0,0,1,1.74,1.35c-1.27-.67-1.05.67-1.74,1.37Z" style="fill:#fdfdfd"/><path d="M226.85,26.32c.76.69,1.33,1.31.73,1.87s-.72-.23-.8-.66A5.31,5.31,0,0,1,226.85,26.32Z" style="fill:#a1a8ac"/><path d="M214,27.15c.68.2.83.75.89,1.36l-1,.72A2.88,2.88,0,0,1,214,27.15Z" style="fill:#6c6c68"/><path d="M216.05,19.1c.54.33,1.44.76.79,1.4s-.75-.83-1.42-.78Z" style="fill:#6c6c68"/><path d="M221,27.29a1.78,1.78,0,0,1,.3.34.49.49,0,0,1,0,.29c-.14.29-.3.28-.36,0A2,2,0,0,1,221,27.29Z" style="fill:#6c6c68"/><path d="M226.11,20c.36-.12.49,0,.42.37A1.86,1.86,0,0,1,226.11,20Z" style="fill:#a1a8ac"/><path d="M225.63,17.32a.76.76,0,0,1,.57.83Z" style="fill:#a1a8ac"/><path d="M112.55,21.45c-.82.76-1.55,1.77-2.92,1.12C109.47,19.3,111.38,21.31,112.55,21.45Z" style="fill:#6c6c68"/><path d="M115.67,13.69v-7h.26v7Z" style="fill:#080806"/><path d="M115.84,18.3c.08.17.21.33.2.49s-.16.28-.24.42a1.18,1.18,0,0,1-.21-.46C115.6,18.6,115.75,18.46,115.84,18.3Z" style="fill:#080806"/><path d="M37.15,22l.36.57a1.59,1.59,0,0,0,1.45.71h0a4.34,4.34,0,0,1-.45,2.85c-.55.88-.7.18-.93-.22A8,8,0,0,1,36,22Z" style="fill:#6c6c68"/><path d="M42,23.76c0,.55.19,1.35-.41,1.51-.88.24-1.19-.61-1.68-1.47H42Z" style="fill:#6c6c68"/><path d="M30.61,26.18c.39-.82,1.16-.48,1.79-.58C32.2,27,31.46,26.76,30.61,26.18Z" style="fill:#282622"/><path d="M38.92,22.3a.41.41,0,0,1,.67.13l-.64.79h0C38.94,22.92,38.93,22.61,38.92,22.3Z" style="fill:#6c6c68"/><path d="M39.55,30.36l-.25-.14.25.13Z" style="fill:#6c6c68"/><path d="M109.1,32.14c-.93-1.46.49-2.55-.29-3.69-.29-.43.29-.87.82-.9a1.74,1.74,0,0,1,1.1.22c.57.46.07.94-.27,1.17C109.43,29.62,109.5,30.86,109.1,32.14Z" style="fill:#6c6c68"/><path d="M112.47,39.83c-.27-.7.38-.41.62-.57Z" style="fill:#868681"/><path d="M86.26,69c-.66,3.06-3.11,1.64-4.58,1.43-1.7-.24-2.63-2.1-3.16-3.72a2.26,2.26,0,0,1,1.68-3l0,1.13-.51.37.43.26,0,0a1.15,1.15,0,0,0,.09.51l-.39.6.36.12c0-.23,0-.46,0-.7l.11.19.22,0c.56.77,1.06.65,1.52-.1h.24l.22.05c.55.92.78-.14,1.18-.18l1.78.13C86.81,66.79,85.83,68.09,86.26,69Z" style="fill:#fdfdfd"/><path d="M86.26,69c-.43-.94.55-2.24-.75-3,.22-.95-.74-1.16-1.11-1.74-.7-1.13-1.44-2.21-2.92-2.41,0-1.72,1.29-1.87,2.45-1.78,1.81.14,3.43.75,4.27,2.63C89.25,65.1,88.37,68.11,86.26,69Zm.67-1.57.19.12,0-.19Z" style="fill:#868681"/><path d="M81.48,61.92c1.48.2,2.22,1.28,2.92,2.41H84a1.74,1.74,0,0,0-2,1.12l-1.16,0-.71.08,0,0c0-.21,0-.42.08-.63l0-1.13C79.42,62.28,80.86,62.39,81.48,61.92Z" style="fill:#6c6c68"/><path d="M65.73,65.94c-.65-.49-.43-1.18-.44-1.82C66.1,64.57,65.8,65.28,65.73,65.94Z" style="fill:#a1a8ac"/><path d="M55.37,63.65c-.09-.36.09-.52.42-.58Z" style="fill:#080806"/><path d="M55.37,63.65l.42-.58a.56.56,0,0,0,.5-.27l-.06.87-.47,0-.19.06Z" style="fill:#c5bcb9"/><path d="M55.76,63.63l.47,0-.58.57Z" style="fill:#c6ced9"/><path d="M187.83,54.31c0,2.23,0,4.47,0,6.7a1.45,1.45,0,0,1-.77,1.12c-.85.24-1-.57-.91-1.09.13-.89-1.68-1.18-1-1.43C188.07,58.6,187,56.12,187.83,54.31Z" style="fill:#282622"/><path d="M60.47,32.72a6.79,6.79,0,0,1,0,5.41C58.9,37.15,58.88,34.47,60.47,32.72Z" style="fill:#868681"/><path d="M97.9,60.61l2.58,0a1.57,1.57,0,0,0,.2,1.86c-1.15,1.56-3.09,2-4.5,3.32C95.11,61.53,95.37,60.79,97.9,60.61Z" style="fill:#282622"/><path d="M100.68,62.49a1.57,1.57,0,0,1-.2-1.86c.88-2.45,2.18-2.54,3.81-.64C102.14,59.48,102.1,62,100.68,62.49Z" style="fill:#6c6c68"/><path d="M56.87,64.87c.88.42.38,1.17.41,1.79C55.8,66.36,56.57,65.56,56.87,64.87Z" style="fill:#c5bcb9"/><path d="M227.11,59.69a.34.34,0,0,1,0-.42A1.19,1.19,0,0,1,227.11,59.69Z" style="fill:#6c6c68"/><path d="M59.31,63c1.46-.06,2.22,1.58,3.81,1.28-.57,1.49-1.72,1-2.57,1.17l-.11-.11a2.72,2.72,0,0,1,.05-.49C60.29,64.15,59.08,64.05,59.31,63Z" style="fill:#6c6c68"/><path d="M59.31,63c-.23,1,1,1.11,1.18,1.85L58.71,65l0-2Z" style="fill:#282622"/><path d="M211.82,20.81c.41-1.95-.84-4.11.79-5.9C212.06,16.84,213.17,19,211.82,20.81Z" style="fill:#868681"/><path d="M180,63.63c0-.79,0-1.57,0-2.35,1.63.35,3.41.52,3.48,2.79Z" style="fill:#080806"/><path d="M194.53,59.56l.25-.05c.72.62,1.43,1,2.11,0a.91.91,0,0,1,1-.43c-.5.57-.33,1.07.18,1.53-.47,1.08-2.23.62-2.44,2a3.22,3.22,0,0,0-2.27.58c-.77-.43-.72-1.15-.7-1.86C192.26,59.64,193.12,59.32,194.53,59.56Z" style="fill:#6c6c68"/><path d="M195.66,62.59c.21-1.4,2-.94,2.44-2a15.71,15.71,0,0,0,2.28-.21c.75-.18,1.55-.72,1.81.5.23,1-.13,1.7-1.35,1.6A.73.73,0,0,0,200,63C198.52,62.84,197,63.53,195.66,62.59Z" style="fill:#868681"/><path d="M194.53,59.56c-1.41-.24-2.27.08-1.84,1.75-1.26-.21-3.11.58-3.06-1.81l.12-2.37a12.12,12.12,0,0,0,2-.21C194.21,56.25,194.59,57.65,194.53,59.56Z" style="fill:#080806"/><path d="M58.71,65l1.78-.06a2.72,2.72,0,0,0-.05.49C59.82,65.42,59.18,65.51,58.71,65Z" style="fill:#868681"/><path d="M118.44,63.18c0,.58-.15,1.26-.74,1-1.57-.64-3.62-.53-4.46-2.4-.27-.58-.12-1.87.45-1.78a14.82,14.82,0,0,1,3.56,1.45C118,61.8,118.63,62.26,118.44,63.18Z" style="fill:#868681"/><path d="M107.41,61c1.1.76,1.71,1.94,3.81,2.35-2,.36-3.07,1.52-4.16.4C106.18,62.82,107.2,62,107.41,61Z" style="fill:#282622"/><path d="M148.91,54.23a2.51,2.51,0,0,1,1.15,3c-.5,1.47-1.92,1-3.05,1-1,0-2,0-3,0-.18-1.69,1.4-2.34,2.05-3.53A4.56,4.56,0,0,0,148.91,54.23Z" style="fill:#a1a8ac"/><path d="M148.91,54.23a4.56,4.56,0,0,1-2.85.52c-.06-1,.17-2,1.31-2.13S148.81,53.3,148.91,54.23Z" style="fill:#6c6c68"/><path d="M207.93,51.29c.35,3,.65,5.22-.1,7.39-.14.4-.29,1.38-1.13.83-.39-.25-.56-.65-.06-1.37C207.87,56.37,206.43,54,207.93,51.29Z" style="fill:#6c6c68"/><path d="M199.86,56c-.23-.9-2-.36-1.7-1.75h.25l.25-.08,2.4-.06.13.67c.05.08.07.22.14.25,1.18.41,3.13.69,2.49,2.2-.44,1.06-1.93-.35-2.92-.75C200.55,56.34,200.21,56.16,199.86,56Z" style="fill:#6c6c68"/><path d="M193.94,49.46c-.06-.39-.11-.77-.17-1.16,1-.85,2-.3,3.08-.09,0,.39,0,.78,0,1.16l-.71.36Z" style="fill:#868681"/><path d="M196.18,49.73l.71-.36.62.24c-.2.66.37,1.85-.81,1.81C195.71,51.38,196.24,50.35,196.18,49.73Z" style="fill:#282622"/><path d="M201.19,54.78l-.13-.67c.23-.34.63-.6.85-.17C202.23,54.54,201.63,54.65,201.19,54.78Z" style="fill:#282622"/><path d="M198.66,54.17l-.25.08h-.25L198,54a.9.9,0,0,1-.09-.32Z" style="fill:#282622"/><path d="M197.88,53.71A.9.9,0,0,0,198,54a.42.42,0,0,1-.29-.33Z" style="fill:#6c6c68"/><path d="M168.75,50c0,1.44.84,1.55,2,1.24.56-.14,1.32-.09,1.31.73a2.5,2.5,0,0,1-.59,1.63c-.31.32-.91,0-1.2-.46a2.78,2.78,0,0,0-.42-.61c-3.92,1.76-3.21-.84-2.93-3l1.2,0a.35.35,0,0,0,.36.27A.44.44,0,0,1,168.75,50Z" style="fill:#282622"/><path d="M168.75,50a.44.44,0,0,0-.25-.19c.1-.51.2-1,.29-1.54l-.06-.16h1.78a1.3,1.3,0,0,0,.55.12c0,.54,0,1.07,0,1.61Z" style="fill:#c6ced9"/><path d="M171.08,49.85c0-.54,0-1.07,0-1.61l1.3,0a1.25,1.25,0,0,0,.48,1.34,1.71,1.71,0,0,0,.13.38Z" style="fill:#868681"/><path d="M160.74,51.59c-.07.16-.14.32-.22.48-.16-.07-.41-.1-.46-.22s.12-.31.19-.48Z" style="fill:#282622"/><path d="M174.73,51.75c0,.53-.13,1-.86.69-.16-.07-.41-.31-.39-.36.29-.55.83-.22,1.26-.32Z" style="fill:#282622"/><path d="M168.14,49.54l-1.2,0c-.38-.2-1.05.07-1.08-.68h1.85Z" style="fill:#b9b88a"/><path d="M179.86,51c-.07.16-.11.41-.23.45s-.31-.11-.48-.18c.08-.16.11-.41.23-.45S179.69,50.94,179.86,51Z" style="fill:#282622"/><path d="M174.74,51.76a.9.9,0,0,1,1.14-.45c.06,0,.1.14.15.22l-1.3.22Z" style="fill:#282622"/><path d="M173,49.92a1.71,1.71,0,0,1-.13-.38l.11-.18h1.8C174.41,50.4,173.59,49.84,173,49.92Z" style="fill:#c5bcb9"/><path d="M167.71,48.81h-1.85c0-.2,0-.4,0-.6l1.88.2C167.71,48.54,167.71,48.68,167.71,48.81Z" style="fill:#979562"/><path d="M134.73,64.74h-1.31l-1.49-1.52c1.32,0,2.37-.28,2.14-1.95l0,0c.84-.09,1,.66,1.47,1.1,1.37,1.33,2.15.86,2.31-.94l3.5,2.72C139.14,64.56,136.85,63.73,134.73,64.74Z" style="fill:#6c6c68"/><path d="M134.07,61.27l-.17-.14s.09.11.14.17Z" style="fill:#6c6c68"/><path d="M148.94,42.85h-.44c0-1.45,0-2.91,0-4.37C149.26,39.9,149,41.39,148.94,42.85Z" style="fill:#868681"/><path d="M163.46,44.67c-.64-.08-1.35.1-1.82-.53C162.26,44.24,163.16,43.44,163.46,44.67Z" style="fill:#868681"/><path d="M38.92,22.3c0,.31,0,.62,0,.93a1.59,1.59,0,0,1-1.45-.71Z" style="fill:#868681"/><path d="M37.15,22,36,22C36.36,21.35,36.75,21.46,37.15,22Z" style="fill:#080806"/><path d="M34.34,20.16l-.36.29.27-.37Z" style="fill:#080806"/><path d="M196.89,59.47c-.68,1.07-1.39.66-2.11,0Z" style="fill:#080806"/><path d="M222.5,41.72l.62-.1c0,.5.35,1.07-.3,1.44Z" style="fill:#282622"/><path d="M134.73,64.74c2.12-1,4.41-.18,6.59-.56,1.43.35,2.67-.6,4-.58.71.18,1.57-.23,2.27.71-3,2.45-6.49,2.2-10,1.71A3.16,3.16,0,0,1,134.73,64.74Z" style="fill:#868681"/><path d="M127.34,19.05a2.83,2.83,0,0,0,0-.5c.09-.08.16-.16.24-.24a.94.94,0,0,1,.57.06Z" style="fill:#c5bcb9"/><path d="M135.26,21.3a1.42,1.42,0,0,1-1.61,1.26c-1-.08-.79-.91-.81-1.55s0-1.24.87-1.16S135.24,20.24,135.26,21.3Z" style="fill:#868681"/><path d="M146,47.56h-3A2,2,0,0,1,146,47.56Z" style="fill:#868681"/><path d="M198.07,48.12l-1.17.05C197.26,47.57,197.66,47.66,198.07,48.12Z" style="fill:#868681"/><path d="M127.39,18.55l-.18-.39.42.15C127.55,18.39,127.48,18.47,127.39,18.55Z" style="fill:#c5bcb9"/><path d="M155,58.85l.23.3-.31-.22Z" style="fill:#080806"/><path d="M206.82,25.24c1.75.77,1.18,1.77.27,2.79A2.72,2.72,0,0,1,206.82,25.24Z" style="fill:#868681"/><path d="M173.57,49.37H173C173.16,48.93,173.37,48.91,173.57,49.37Z" style="fill:#a1a8ac"/><path d="M167.71,48.81c0-.13,0-.27,0-.4l1.09-.14c-.09.52-.19,1-.29,1.54a.35.35,0,0,1-.36-.27C168,49.3,167.85,49.06,167.71,48.81Z" style="fill:#c5bcb9"/><path d="M62.15,49.85c.5.45,2.59-.5,1.33,1.5C62.78,51.08,61.35,51.45,62.15,49.85Z" style="fill:#a40116"/><path d="M221.32,20.91l-.33.2a2.42,2.42,0,0,1-.06-.46c0-.06.12-.12.19-.17Z" style="fill:#868681"/><path d="M230.33,22.06c-.05-.66-.31-1.38.59-1.72C230.89,21,231.26,21.74,230.33,22.06Z" style="fill:#868681"/><path d="M84,64.33h.45c.37.58,1.33.79,1.11,1.74l-1.78-.13.09-1.11A1,1,0,0,1,84,64.33Z" style="fill:#c6ced9"/><path d="M84,64.33a1,1,0,0,0-.13.5,1.84,1.84,0,0,0-1.27,1.29l-.22-.05h-.24L82,65.45A1.74,1.74,0,0,1,84,64.33Z" style="fill:#868681"/><path d="M82,65.45l.09.63c-.46.75-1,.87-1.52.1l.27-.75Z" style="fill:#282622"/><path d="M82.55,66.12a1.84,1.84,0,0,1,1.27-1.29l-.09,1.11C83.33,66,83.1,67,82.55,66.12Z" style="fill:#6c6c68"/><path d="M80.24,66l0,.7-.36-.12.39-.6Z" style="fill:#868681"/><path d="M80.24,64.86c0,.21,0,.42-.08.63l-.43-.26Z" style="fill:#868681"/><path d="M80.84,65.43l-.27.75-.22,0L80.24,66l0,0a1.15,1.15,0,0,1-.09-.51Z" style="fill:#868681"/><polygon points="86.94 67.46 87.14 67.39 87.12 67.58 86.94 67.46" style="fill:#fdfdfd"/></g></g></svg>